<svg xmlns="http://www.w3.org/2000/svg" width="48" height="41" viewBox="0 0 48 41">
  <g id="Grupo_1116" data-name="Grupo 1116" transform="translate(-12 -284)">
    <text id="MEU_BANCO" data-name="MEU BANCO" transform="translate(12 314)" fill="#fff" font-size="8" font-family="OpenSans, Open Sans"><tspan x="0.436" y="9">MEU BANCO</tspan></text>
    <g id="Grupo_1091" data-name="Grupo 1091" transform="translate(-2286.715 -3941.188)">
      <path id="Caminho_459" data-name="Caminho 459" d="M2336.954,4225.59v28.792a.4.4,0,0,1-.4.4h-28.433a.4.4,0,0,1-.4-.4V4225.59a.4.4,0,0,1,.4-.4h28.433A.4.4,0,0,1,2336.954,4225.59Zm-.807,28.389v-27.985h-27.625v27.985Z" fill="#fff"/>
      <path id="Caminho_460" data-name="Caminho 460" d="M2337.758,4295.3a.4.4,0,0,1-.4.4H2309.24a.4.4,0,1,1,0-.807h28.115A.4.4,0,0,1,2337.758,4295.3Z" transform="translate(-0.804 -49.983)" fill="#fff"/>
      <path id="Caminho_461" data-name="Caminho 461" d="M2319.924,4307.175v2.622a.4.4,0,0,1-.806,0v-2.622a.4.4,0,1,1,.806,0Z" transform="translate(-8.176 -58.499)" fill="#fff"/>
      <path id="Caminho_462" data-name="Caminho 462" d="M2333.109,4307.175v2.622a.4.4,0,0,1-.807,0v-2.622a.4.4,0,0,1,.807,0Z" transform="translate(-17.63 -58.499)" fill="#fff"/>
      <path id="Caminho_463" data-name="Caminho 463" d="M2346.293,4307.175v2.622a.4.4,0,0,1-.807,0v-2.622a.4.4,0,1,1,.807,0Z" transform="translate(-27.083 -58.499)" fill="#fff"/>
    </g>
  </g>
</svg>
