<svg xmlns="http://www.w3.org/2000/svg" width="42" height="41" viewBox="0 0 42 41">
  <g id="Grupo_1119" data-name="Grupo 1119" transform="translate(-15 -496)">
    <text id="CONTATOS" transform="translate(15 526)" fill="#fff" font-size="8" font-family="OpenSans, Open Sans"><tspan x="0.078" y="9">CONTATOS</tspan></text>
    <g id="Grupo_1080" data-name="Grupo 1080" transform="translate(-4341.043 55.189)">
      <path id="Caminho_443" data-name="Caminho 443" d="M4389.954,459.554a.428.428,0,0,0-.6,0l-2.382,2.381-7.6-7.6,2.476-2.476a.428.428,0,0,0,0-.6l-5.443-5.443a.427.427,0,0,0-.6,0l-6.7,6.7a.427.427,0,0,0,0,.6l16.027,16.027a.428.428,0,1,0,.605-.6L4370,452.823l4.379-4.38,4.839,4.838-.756.756a.428.428,0,0,0,0,.6l8.2,8.2a.427.427,0,0,0,.6,0l.794-.794,4.952,4.952-4.479,4.479a.43.43,0,0,0,0,.6h0a.428.428,0,0,0,.6,0l6.4-6.4a.429.429,0,0,0,0-.606Zm-14.968-11.716,1.115-1.115,4.838,4.838-1.115,1.115Zm18.635,18.56-4.951-4.952.985-.985,4.979,4.923Z" transform="translate(-4.147 -3.416)" fill="#fff"/>
      <path id="Caminho_444" data-name="Caminho 444" d="M4387.681,502.625a.427.427,0,0,0,.466-.4h0a.429.429,0,0,0-.388-.452,9.48,9.48,0,0,1-8.378-8.409.428.428,0,1,0-.852.076,10.336,10.336,0,0,0,9.152,9.185Z" transform="translate(-10.837 -36.512)" fill="#fff"/>
      <path id="Caminho_445" data-name="Caminho 445" d="M4422.158,460.372a9.376,9.376,0,0,1,2.644,5.119.428.428,0,1,0,.846-.128,10.341,10.341,0,0,0-8.563-8.494.427.427,0,0,0-.485.376v0a.428.428,0,0,0,.364.47A9.376,9.376,0,0,1,4422.158,460.372Z" transform="translate(-37.484 -11.236)" fill="#fff"/>
      <path id="Caminho_446" data-name="Caminho 446" d="M4378.05,502.793a13.97,13.97,0,0,1-14.149-14.132.426.426,0,0,0-.407-.436.43.43,0,0,0-.449.419,14.826,14.826,0,0,0,14.833,15.006h.189a.43.43,0,0,0,.419-.449h0A.427.427,0,0,0,4378.05,502.793Z" transform="translate(0 -33.188)" fill="#fff"/>
      <path id="Caminho_447" data-name="Caminho 447" d="M4408.813,440.833a.428.428,0,1,0,.053.854,13.97,13.97,0,0,1,14.7,14.859.427.427,0,0,0,.383.457h0a.43.43,0,0,0,.47-.4,14.826,14.826,0,0,0-15.605-15.775Z" transform="translate(-31.756)" fill="#fff"/>
    </g>
  </g>
</svg>
