<svg xmlns="http://www.w3.org/2000/svg" width="19.947" height="20.031" viewBox="0 0 19.947 20.031">
  <g id="Grupo_1248" data-name="Grupo 1248" transform="translate(-6427.324 -3889.719)">
    <path id="Caminho_448" data-name="Caminho 448" d="M6491.612,3940.984h-8.6a.278.278,0,0,1-.278-.278v-11.923a.278.278,0,0,1,.278-.277h8.6a.277.277,0,0,1,.277.277v11.923A.277.277,0,0,1,6491.612,3940.984Zm-8.323-.555h8.045v-11.368h-8.045Z" transform="translate(-44.618 -31.234)" fill="#fff"/>
    <path id="Caminho_449" data-name="Caminho 449" d="M6491.612,3895.919h-8.6a.278.278,0,0,1-.278-.278V3890a.278.278,0,0,1,.278-.278h8.6a.278.278,0,0,1,.277.278v5.646A.278.278,0,0,1,6491.612,3895.919Zm-8.323-.555h8.045v-5.091h-8.045Z" transform="translate(-44.618 0)" fill="#fff"/>
    <path id="Caminho_450" data-name="Caminho 450" d="M6436.2,3902.2h-8.6a.277.277,0,0,1-.277-.277V3890a.277.277,0,0,1,.277-.278h8.6a.277.277,0,0,1,.277.278v11.923A.277.277,0,0,1,6436.2,3902.2Zm-8.324-.555h8.046v-11.368h-8.046Z" transform="translate(0 0)" fill="#fff"/>
    <path id="Caminho_451" data-name="Caminho 451" d="M6436.2,3966.938h-8.6a.277.277,0,0,1-.277-.278v-5.646a.277.277,0,0,1,.277-.277h8.6a.277.277,0,0,1,.277.277v5.646A.277.277,0,0,1,6436.2,3966.938Zm-8.324-.555h8.046v-5.091h-8.046Z" transform="translate(0 -57.188)" fill="#fff"/>
  </g>
</svg>
