<svg xmlns="http://www.w3.org/2000/svg" width="20" height="19.43" viewBox="0 0 20 19.43">
  <g id="Grupo_1249" data-name="Grupo 1249" transform="translate(-1220.701 1038.474)">
    <path id="Caminho_452" data-name="Caminho 452" d="M1240.7-1019.317v-15.955a.272.272,0,0,0-.272-.273h-10.112l-2.573-2.84a.272.272,0,0,0-.2-.089h-6.565a.272.272,0,0,0-.272.272v5.288a.053.053,0,0,0,0,.01.063.063,0,0,1,0,.01l0,13.577a.272.272,0,0,0,.272.273h19.455A.273.273,0,0,0,1240.7-1019.317Zm-.545-.273h-18.91l0-13.042h18.894s.009,0,.014,0Zm0-13.584-.014,0h-18.894v-4.752h6.172l2.573,2.84a.272.272,0,0,0,.2.089h9.961Z" transform="translate(0 0)" fill="#fff"/>
    <g id="Grupo_1083" data-name="Grupo 1083" transform="translate(1225.465 -1028.759)">
      <g id="Grupo_1082" data-name="Grupo 1082" transform="translate(0 0)">
        <path id="Caminho_453" data-name="Caminho 453" d="M1248.52-986.354a1.286,1.286,0,0,1-.424,1.039,1.814,1.814,0,0,1-1.207.36h-.383v1.5h-.892v-4.206h1.344a1.787,1.787,0,0,1,1.164.33A1.2,1.2,0,0,1,1248.52-986.354Zm-2.014.667h.294a.978.978,0,0,0,.616-.162.569.569,0,0,0,.2-.473.584.584,0,0,0-.171-.463.8.8,0,0,0-.537-.15h-.406Z" transform="translate(-1245.614 987.666)" fill="#fff"/>
        <path id="Caminho_454" data-name="Caminho 454" d="M1268.455-985.6a2.071,2.071,0,0,1-.591,1.591,2.411,2.411,0,0,1-1.708.552h-1.191v-4.206h1.32a2.224,2.224,0,0,1,1.6.544A2,2,0,0,1,1268.455-985.6Zm-.927.023q0-1.355-1.2-1.355h-.475v2.739h.383Q1267.529-984.2,1267.528-985.58Z" transform="translate(-1261.265 987.666)" fill="#fff"/>
        <path id="Caminho_455" data-name="Caminho 455" d="M1288.654-983.46h-.878v-4.206h2.411v.731h-1.533v1.085h1.427v.728h-1.427Z" transform="translate(-1279.714 987.666)" fill="#fff"/>
      </g>
    </g>
  </g>
</svg>
