<svg xmlns="http://www.w3.org/2000/svg" width="19.787" height="19.786" viewBox="0 0 19.787 19.786">
  <g id="Grupo_1249" data-name="Grupo 1249" transform="translate(-4363.043 -440.811)">
    <path id="Caminho_443" data-name="Caminho 443" d="M4382.972,454.942a.285.285,0,0,0-.4,0l-1.589,1.589-5.07-5.07,1.652-1.652a.286.286,0,0,0,0-.4l-3.632-3.632a.286.286,0,0,0-.4,0l-4.473,4.473a.285.285,0,0,0,0,.4l10.694,10.694a.286.286,0,0,0,.4-.4l-10.494-10.492,2.922-2.923,3.229,3.229-.5.5a.286.286,0,0,0,0,.4l5.473,5.473a.285.285,0,0,0,.4,0l.529-.53,3.3,3.3-2.989,2.989a.286.286,0,0,0,0,.4h0a.286.286,0,0,0,.4,0l4.272-4.272a.286.286,0,0,0,0-.4Zm-9.987-7.818.744-.744,3.229,3.229-.744.744Zm12.435,12.384-3.3-3.3.658-.657,3.323,3.285Z" transform="translate(-4.739 -3.903)" fill="#fff"/>
    <path id="Caminho_444" data-name="Caminho 444" d="M4384.635,499.414a.285.285,0,0,0,.311-.267h0a.286.286,0,0,0-.259-.3,6.326,6.326,0,0,1-5.59-5.611.286.286,0,0,0-.569.051,6.9,6.9,0,0,0,6.107,6.129Z" transform="translate(-12.382 -41.72)" fill="#fff"/>
    <path id="Caminho_445" data-name="Caminho 445" d="M4420.308,459.2a6.257,6.257,0,0,1,1.764,3.416.285.285,0,1,0,.564-.086,6.9,6.9,0,0,0-5.714-5.668.285.285,0,0,0-.324.251h0a.286.286,0,0,0,.243.314A6.257,6.257,0,0,1,4420.308,459.2Z" transform="translate(-42.831 -12.838)" fill="#fff"/>
    <path id="Caminho_446" data-name="Caminho 446" d="M4373.057,497.946a9.321,9.321,0,0,1-9.441-9.43.284.284,0,0,0-.271-.291.287.287,0,0,0-.3.28,9.893,9.893,0,0,0,9.9,10.013h.126a.287.287,0,0,0,.279-.3h0A.285.285,0,0,0,4373.057,497.946Z" transform="translate(0 -37.921)" fill="#fff"/>
    <path id="Caminho_447" data-name="Caminho 447" d="M4408.68,440.826a.285.285,0,1,0,.035.57,9.322,9.322,0,0,1,9.809,9.915.285.285,0,0,0,.255.3h0a.287.287,0,0,0,.314-.264,9.893,9.893,0,0,0-10.413-10.526Z" transform="translate(-36.285 0)" fill="#fff"/>
  </g>
</svg>
