<svg xmlns="http://www.w3.org/2000/svg" width="46" height="41" viewBox="0 0 46 41">
  <g id="Grupo_1122" data-name="Grupo 1122" transform="translate(-13 -649)">
    <text id="MEU_PERFIL" data-name="MEU PERFIL" transform="translate(13 679)" fill="#fff" font-size="8" font-family="OpenSans, Open Sans"><tspan x="0.852" y="9">MEU PERFIL</tspan></text>
    <g id="Grupo_1075" data-name="Grupo 1075" transform="translate(-520.191 477.412)">
      <path id="Caminho_431" data-name="Caminho 431" d="M558.22,200.585h-12.2v-5.793a8.57,8.57,0,0,1,16.225-3.853.413.413,0,0,0,.738-.372,9.35,9.35,0,0,0-5.933-4.843,7.32,7.32,0,1,0-5.118.057,9.412,9.412,0,0,0-6.739,9.011V201a.414.414,0,0,0,.414.414H558.22a.413.413,0,1,0,0-.827Zm-10.3-21.679a6.491,6.491,0,1,1,6.491,6.491A6.5,6.5,0,0,1,547.918,178.906Z" fill="#fff"/>
      <path id="Caminho_432" data-name="Caminho 432" d="M604.1,244.466a.413.413,0,0,0-.583.041l-6.436,7.412-1.741-3.1a.413.413,0,0,0-.721.405l2.029,3.611a.414.414,0,0,0,.318.209l.042,0a.413.413,0,0,0,.312-.142l6.821-7.855A.413.413,0,0,0,604.1,244.466Z" transform="translate(-35.052 -51.668)" fill="#fff"/>
    </g>
  </g>
</svg>
