<svg xmlns="http://www.w3.org/2000/svg" width="46" height="39.999" viewBox="0 0 46 39.999">
  <g id="Grupo_1115" data-name="Grupo 1115" transform="translate(-13 -234.001)">
    <text id="ACORDOS_E_CONVENÇÕES" data-name="ACORDOS E CONVENÇÕES" transform="translate(13 263)" fill="#fff" font-size="8" font-family="OpenSans, Open Sans"><tspan x="0.867" y="9">ACORDOS E </tspan></text>
    <g id="Grupo_1085" data-name="Grupo 1085" transform="translate(-1199.701 1272.475)">
      <path id="Caminho_452" data-name="Caminho 452" d="M1250.847-1009.6v-24.049a.411.411,0,0,0-.411-.411h-15.242l-3.879-4.281a.41.41,0,0,0-.3-.135h-9.9a.41.41,0,0,0-.411.41v7.97a.076.076,0,0,0,0,.015.125.125,0,0,1,0,.015l0,20.465a.411.411,0,0,0,.411.411h29.325A.411.411,0,0,0,1250.847-1009.6Zm-.822-.411h-28.5l0-19.658H1250a.213.213,0,0,0,.021,0Zm0-20.476c-.007,0-.014,0-.021,0h-28.479v-7.163h9.3l3.879,4.281a.41.41,0,0,0,.3.135h15.014Z" transform="translate(0 0)" fill="#fff"/>
      <g id="Grupo_1083" data-name="Grupo 1083" transform="translate(1227.881 -1023.831)">
        <g id="Grupo_1082" data-name="Grupo 1082" transform="translate(0 0)">
          <path id="Caminho_453" data-name="Caminho 453" d="M1249.994-985.689a1.938,1.938,0,0,1-.64,1.566,2.734,2.734,0,0,1-1.819.542h-.577v2.255h-1.344v-6.34h2.025a2.694,2.694,0,0,1,1.754.5A1.81,1.81,0,0,1,1249.994-985.689Zm-3.036,1.006h.442a1.474,1.474,0,0,0,.928-.245.858.858,0,0,0,.308-.714.88.88,0,0,0-.258-.7,1.211,1.211,0,0,0-.809-.225h-.611Z" transform="translate(-1245.614 987.666)" fill="#fff"/>
          <path id="Caminho_454" data-name="Caminho 454" d="M1270.226-984.556a3.123,3.123,0,0,1-.891,2.4,3.635,3.635,0,0,1-2.574.833h-1.8v-6.34h1.99a3.352,3.352,0,0,1,2.411.82A3.014,3.014,0,0,1,1270.226-984.556Zm-1.4.034q0-2.043-1.8-2.043h-.716v4.129h.577Q1268.829-982.436,1268.829-984.522Z" transform="translate(-1259.388 987.666)" fill="#fff"/>
          <path id="Caminho_455" data-name="Caminho 455" d="M1289.1-981.326h-1.323v-6.34h3.634v1.1H1289.1v1.635h2.151v1.1H1289.1Z" transform="translate(-1275.625 987.666)" fill="#fff"/>
        </g>
      </g>
    </g>
  </g>
</svg>
