<svg xmlns="http://www.w3.org/2000/svg" width="25" height="40" viewBox="0 0 25 40">
  <g id="Grupo_1170" data-name="Grupo 1170" transform="translate(-893 -30)">
    <g id="Retângulo_958" class="border-logout" data-name="Retângulo 958" transform="translate(893 30)" fill="none" stroke="#fe3e3e" stroke-width="1">
      <rect width="25" height="40" rx="12.5" stroke="none"/>
      <rect x="0.5" y="0.5" width="24" height="39" rx="12" fill="none"/>
    </g>
    <g id="Grupo_1130" data-name="Grupo 1130" transform="translate(-1400.113 -3163.355)">
      <path id="Caminho_489" class="icon-cirulo-logout-1" data-name="Caminho 489" d="M2305.476,3226.408a5.366,5.366,0,0,1-1.931-10.373.165.165,0,1,1,.119.308,5.032,5.032,0,1,0,3.626,0,.165.165,0,1,1,.119-.308,5.366,5.366,0,0,1-1.933,10.373Z" transform="translate(0 -13.497)" fill="#fe3e3e"/>
      <path id="Caminho_490" class="icon-cirulo-logout-2" data-name="Caminho 490" d="M2345.343,3205.611a.165.165,0,0,1-.165-.166v-4.522a.165.165,0,0,1,.331,0v4.522A.165.165,0,0,1,2345.343,3205.611Z" transform="translate(-39.84 0)" fill="#fe3e3e"/>
    </g>
    <text id="sair" class="text-logout" transform="translate(894 49)" fill="#fe3e3e" font-size="10" font-family="OpenSans-Semibold, Open Sans" font-weight="600"><tspan x="2.801" y="11">Sair</tspan></text>
  </g>
</svg>
