<svg xmlns="http://www.w3.org/2000/svg" width="20" height="19.694" viewBox="0 0 20 19.694">
  <g id="Grupo_1248" data-name="Grupo 1248" transform="translate(-3849.258 -1594.563)">
    <path id="Caminho_433" data-name="Caminho 433" d="M3868.952,1594.564l-16.234.05a.305.305,0,1,0,0,.611l15.927-.049-.049,18.472h-18.729v-15.674h16.081v13.231a.305.305,0,0,0,.611,0v-13.241a.6.6,0,0,0-.6-.6h-16.155a.547.547,0,0,0-.547.547v15.741a.607.607,0,0,0,.607.607H3868.6a.607.607,0,0,0,.607-.605l.05-18.783A.305.305,0,0,0,3868.952,1594.564Z" transform="translate(0 0)" fill="#fff"/>
    <path id="Caminho_434" data-name="Caminho 434" d="M3867.21,1625.493v-4.95a.454.454,0,0,0-.454-.454h-5.869v0a.454.454,0,0,0-.44.457l.042,4.948a.454.454,0,0,0,.454.45h5.814A.454.454,0,0,0,3867.21,1625.493Zm-.611-.157h-5.5V1620.7h5.5Z" transform="translate(-8.792 -20.057)" fill="#fff"/>
    <path id="Caminho_435" data-name="Caminho 435" d="M3901.633,1620.28h-4.618a.305.305,0,1,0,0,.61h4.618a.305.305,0,1,0,0-.61Z" transform="translate(-37.286 -20.207)" fill="#fff"/>
    <path id="Caminho_436" data-name="Caminho 436" d="M3864.588,1659.375h11.756a.305.305,0,1,0,0-.61h-11.756a.305.305,0,1,0,0,.61Z" transform="translate(-11.806 -50.447)" fill="#fff"/>
    <path id="Caminho_437" data-name="Caminho 437" d="M3864.766,1672.2h11.909a.305.305,0,1,0,0-.611h-11.909a.305.305,0,1,0,0,.611Z" transform="translate(-11.946 -60.527)" fill="#fff"/>
    <path id="Caminho_438" data-name="Caminho 438" d="M3897.193,1633.464a.305.305,0,0,0,0,.611h4.618a.305.305,0,0,0,0-.611Z" transform="translate(-37.426 -30.567)" fill="#fff"/>
    <path id="Caminho_439" data-name="Caminho 439" d="M3896.658,1646.725h4.619a.305.305,0,1,0,0-.611h-4.619a.305.305,0,0,0,0,.611Z" transform="translate(-37.006 -40.507)" fill="#fff"/>
  </g>
</svg>
