<svg xmlns="http://www.w3.org/2000/svg" width="62" height="39.952" viewBox="0 0 62 39.952">
  <g id="Grupo_1117" data-name="Grupo 1117" transform="translate(-5 -336.048)">
    <text id="MEU_SINDICATO" data-name="MEU SINDICATO" transform="translate(5 365)" fill="#fff" font-size="8" font-family="OpenSans, Open Sans"><tspan x="0.473" y="9">MEU SINDICATO</tspan></text>
    <g id="Grupo_1087" data-name="Grupo 1087" transform="translate(-3822.012 -3097.023)">
      <path id="Caminho_456" data-name="Caminho 456" d="M3871.76,3448.539a.4.4,0,0,1-.282-.117l-14.392-14.393-14.393,14.393a.4.4,0,0,1-.563-.563l14.675-14.675a.41.41,0,0,1,.563,0l14.675,14.675a.4.4,0,0,1-.282.68Z" transform="translate(0 0)" fill="#fff"/>
      <path id="Caminho_457" data-name="Caminho 457" d="M3877.979,3490.723H3870.9a.4.4,0,0,1-.4-.4v-10.159h-6.507v10.159a.4.4,0,0,1-.4.4h-7.081a.4.4,0,0,1-.4-.4v-17.248a.4.4,0,0,1,.8,0v16.85h6.284v-10.159a.4.4,0,0,1,.4-.4h7.3a.4.4,0,0,1,.4.4v10.159h6.284v-16.85a.4.4,0,0,1,.8,0v17.248A.4.4,0,0,1,3877.979,3490.723Z" transform="translate(-10.161 -28.536)" fill="#fff"/>
    </g>
  </g>
</svg>
