<svg xmlns="http://www.w3.org/2000/svg" width="42" height="41" viewBox="0 0 42 41">
  <g id="Grupo_1112" data-name="Grupo 1112" transform="translate(-15 -131)">
    <text id="NOTÍCIAS" transform="translate(15 161)" fill="#fff" font-size="8" font-family="OpenSans, Open Sans"><tspan x="3.176" y="9">NOTÍCIAS</tspan></text>
    <g id="Grupo_1076" data-name="Grupo 1076" transform="translate(-3828.258 -1463.564)">
      <path id="Caminho_433" data-name="Caminho 433" d="M3879.271,1594.564l-24.74.076a.465.465,0,1,0,0,.931l24.272-.075-.075,28.151h-28.542V1599.76H3874.7v20.164a.465.465,0,0,0,.931,0v-20.18a.915.915,0,0,0-.916-.915h-24.619a.834.834,0,0,0-.834.834v23.989a.926.926,0,0,0,.925.926h28.553a.925.925,0,0,0,.925-.923l.076-28.625A.465.465,0,0,0,3879.271,1594.564Z" transform="translate(0 0)" fill="#fff"/>
      <path id="Caminho_434" data-name="Caminho 434" d="M3870.754,1628.325v-7.544a.692.692,0,0,0-.692-.691h-8.945v0a.692.692,0,0,0-.671.7l.064,7.542a.691.691,0,0,0,.691.685h8.86A.692.692,0,0,0,3870.754,1628.325Zm-.931-.239h-8.376v-7.066h8.376Z" transform="translate(-7.536 -17.192)" fill="#fff"/>
      <path id="Caminho_435" data-name="Caminho 435" d="M3904.213,1620.28h-7.038a.465.465,0,1,0,0,.93h7.038a.465.465,0,1,0,0-.93Z" transform="translate(-31.96 -17.32)" fill="#fff"/>
      <path id="Caminho_436" data-name="Caminho 436" d="M3864.748,1659.694h17.916a.465.465,0,1,0,0-.93h-17.916a.465.465,0,1,0,0,.93Z" transform="translate(-10.12 -43.241)" fill="#fff"/>
      <path id="Caminho_437" data-name="Caminho 437" d="M3864.926,1672.523h18.148a.465.465,0,1,0,0-.931h-18.148a.465.465,0,1,0,0,.931Z" transform="translate(-10.239 -51.88)" fill="#fff"/>
      <path id="Caminho_438" data-name="Caminho 438" d="M3897.353,1633.464a.465.465,0,0,0,0,.931h7.038a.465.465,0,0,0,0-.931Z" transform="translate(-32.08 -26.2)" fill="#fff"/>
      <path id="Caminho_439" data-name="Caminho 439" d="M3896.818,1647.045h7.039a.465.465,0,0,0,0-.931h-7.039a.465.465,0,0,0,0,.931Z" transform="translate(-31.72 -34.72)" fill="#fff"/>
    </g>
  </g>
</svg>
