<svg xmlns="http://www.w3.org/2000/svg" width="56" height="41.001" viewBox="0 0 56 41.001">
  <g id="Grupo_1120" data-name="Grupo 1120" transform="translate(-8 -546.999)">
    <text id="REDES_SOCIAIS" data-name="REDES SOCIAIS" transform="translate(8 577)" fill="#fff" font-size="8" font-family="OpenSans, Open Sans"><tspan x="0.137" y="9">REDES SOCIAIS</tspan></text>
    <g id="Grupo_1081" data-name="Grupo 1081" transform="translate(-6405.324 -3342.719)">
      <path id="Caminho_448" data-name="Caminho 448" d="M6495.7,3946.737h-12.565a.406.406,0,0,1-.406-.406v-17.419a.406.406,0,0,1,.406-.405H6495.7a.405.405,0,0,1,.405.405v17.419A.405.405,0,0,1,6495.7,3946.737Zm-12.16-.812H6495.3v-16.608h-11.754Z" transform="translate(-39.643 -27.752)" fill="#fff"/>
      <path id="Caminho_449" data-name="Caminho 449" d="M6495.7,3898.778h-12.565a.406.406,0,0,1-.406-.406v-8.248a.406.406,0,0,1,.406-.406H6495.7a.405.405,0,0,1,.405.406v8.248A.405.405,0,0,1,6495.7,3898.778Zm-12.16-.811H6495.3v-7.437h-11.754Z" transform="translate(-39.643 0)" fill="#fff"/>
      <path id="Caminho_450" data-name="Caminho 450" d="M6440.3,3907.949H6427.73a.405.405,0,0,1-.405-.406v-17.419a.405.405,0,0,1,.405-.406H6440.3a.405.405,0,0,1,.405.406v17.419A.405.405,0,0,1,6440.3,3907.949Zm-12.161-.812h11.755v-16.608h-11.755Z" transform="translate(0 0)" fill="#fff"/>
      <path id="Caminho_451" data-name="Caminho 451" d="M6440.3,3969.8H6427.73a.405.405,0,0,1-.405-.406v-8.248a.4.4,0,0,1,.405-.405H6440.3a.4.4,0,0,1,.405.405v8.248A.405.405,0,0,1,6440.3,3969.8Zm-12.161-.811h11.755v-7.437h-11.755Z" transform="translate(0 -50.812)" fill="#fff"/>
    </g>
  </g>
</svg>
