<svg xmlns="http://www.w3.org/2000/svg" width="46" height="30.806" viewBox="0 0 46 30.806">
  <g id="Grupo_1247" data-name="Grupo 1247" transform="translate(23882 9962.806)">
    <text id="FETRAFI-RS" transform="translate(-23882 -9943)" fill="#fff" font-size="8" font-family="OpenSans-Extrabold, Open Sans" font-weight="800"><tspan x="0.838" y="9">FETRAFI-RS</tspan></text>
    <g id="Grupo_1241" data-name="Grupo 1241" transform="translate(-23907 -10726.707)">
      <path id="Caminho_395" data-name="Caminho 395" d="M1080.958,376.956a1.73,1.73,0,1,1,1.729,1.729,1.729,1.729,0,0,1-1.729-1.729" transform="translate(-1043.855 396.403)" fill="#fff" fill-rule="evenodd"/>
      <path id="Caminho_396" data-name="Caminho 396" d="M1226.149,468.875a1.729,1.729,0,1,1,1.729,1.729,1.73,1.73,0,0,1-1.729-1.729" transform="translate(-1175.722 312.919)" fill="#fff" fill-rule="evenodd"/>
      <path id="Caminho_397" data-name="Caminho 397" d="M1234.979,292.729a1.729,1.729,0,1,1,1.729,1.73,1.729,1.729,0,0,1-1.729-1.73" transform="translate(-1183.742 472.901)" fill="#fff" fill-rule="evenodd"/>
      <path id="Caminho_398" data-name="Caminho 398" d="M1124.271,338.622a5.346,5.346,0,0,1,.623-4.729,5.939,5.939,0,0,1,3.031-1.9s-.421-1.3-.553-1.652a1,1,0,0,0-.186-.316l-.356-1.328a6.4,6.4,0,0,0-4.254,4.028,6.706,6.706,0,0,0,4.172,9.092l-.016-.012c.031.019.061.037.086.051A13.232,13.232,0,0,1,1124.271,338.622Z" transform="translate(-1081.277 438.664)" fill="#fff" fill-rule="evenodd"/>
      <path id="Caminho_399" data-name="Caminho 399" d="M1163.833,316.148a6.705,6.705,0,0,0-9.908-1.379l.02-.008c-.033.016-.064.031-.09.046a13.227,13.227,0,0,1,4.1-.406,5.348,5.348,0,0,1,3.65,3.071,5.938,5.938,0,0,1-.03,3.577s1.323.346,1.69.423a1,1,0,0,0,.366.014l1.311.415A6.4,6.4,0,0,0,1163.833,316.148Z" transform="translate(-1110.062 452.752)" fill="#fff" fill-rule="evenodd"/>
      <path id="Caminho_400" data-name="Caminho 400" d="M1163.524,392.553a13.232,13.232,0,0,1-2.2,3.481,5.348,5.348,0,0,1-4.666.992,5.939,5.939,0,0,1-2.8-2.222s-1.086.831-1.372,1.073a1,1,0,0,0-.235.28l-1.133.779a6.4,6.4,0,0,0,5.217,2.664,6.706,6.706,0,0,0,7.177-6.969l-.007.022C1163.512,392.617,1163.519,392.583,1163.524,392.553Z" transform="translate(-1107.577 380.666)" fill="#fff" fill-rule="evenodd"/>
    </g>
  </g>
</svg>
