<svg xmlns="http://www.w3.org/2000/svg" width="26" height="23.317" viewBox="0 0 26 23.317">
  <g id="Grupo_1248" data-name="Grupo 1248" transform="translate(23964 10322.153)">
    <g id="Grupo_1087" data-name="Grupo 1087" transform="translate(-27806.012 -13751.225)">
      <path id="Caminho_456" data-name="Caminho 456" d="M3861.747,3443.333a.264.264,0,0,1-.187-.078l-9.548-9.549-9.549,9.549a.264.264,0,0,1-.374-.374l9.736-9.736a.272.272,0,0,1,.374,0l9.736,9.736a.264.264,0,0,1-.187.451Z" transform="translate(0)" fill="#fff"/>
      <path id="Caminho_457" data-name="Caminho 457" d="M3870.62,3484.65h-4.7a.265.265,0,0,1-.265-.265v-6.74h-4.317v6.74a.264.264,0,0,1-.264.265h-4.7a.265.265,0,0,1-.264-.265v-11.443a.264.264,0,0,1,.529,0v11.178h4.169v-6.74a.264.264,0,0,1,.264-.264h4.846a.264.264,0,0,1,.264.264v6.74h4.169v-11.178a.264.264,0,1,1,.529,0v11.443A.265.265,0,0,1,3870.62,3484.65Z" transform="translate(-11.488 -32.262)" fill="#fff"/>
    </g>
    <g id="Grupo_1236" data-name="Grupo 1236" transform="translate(-27800.012 -13755.225)">
      <path id="Caminho_456-2" data-name="Caminho 456" d="M3861.747,3443.333a.264.264,0,0,1-.187-.078l-9.548-9.549-2.9,2.66a.264.264,0,0,1-.374-.374l3.086-2.847a.272.272,0,0,1,.374,0l9.736,9.736a.264.264,0,0,1-.187.451Z" transform="translate(0)" fill="#fff"/>
      <path id="Caminho_457-2" data-name="Caminho 457" d="M3870.62,3484.65h-4.7a.265.265,0,0,1-.265-.265c-.105-.314.549-.314.529-.264h4.169v-11.178a.264.264,0,1,1,.529,0v11.443A.265.265,0,0,1,3870.62,3484.65Z" transform="translate(-11.488 -32.262)" fill="#fff"/>
    </g>
  </g>
</svg>
