<svg id="Grupo_109" data-name="Grupo 109" xmlns="http://www.w3.org/2000/svg" width="304" height="58.415" viewBox="0 0 304 58.415">
  <g id="Grupo_5" data-name="Grupo 5" transform="translate(39.563 6.409)">
    <path id="Caminho_1" data-name="Caminho 1" d="M108.789,221.894h10.132q5.921,0,8.793,1.756a5.965,5.965,0,0,1,2.87,5.476,6.922,6.922,0,0,1-1.251,4.172,5.587,5.587,0,0,1-3.3,2.226v.2a6.761,6.761,0,0,1,3.915,2.384,7.2,7.2,0,0,1,1.212,4.332,7.421,7.421,0,0,1-2.971,6.229q-2.971,2.276-8.1,2.275h-11.3Zm7.847,11.145H119a4.272,4.272,0,0,0,2.613-.694,2.425,2.425,0,0,0,.924-2.068q0-2.444-3.7-2.444h-2.207Zm0,5.744v6.1H119.4q3.675,0,3.675-3.1a2.666,2.666,0,0,0-.981-2.224,4.522,4.522,0,0,0-2.852-.775Z" transform="translate(-108.789 -213.05)" fill="#fff"/>
    <path id="Caminho_2" data-name="Caminho 2" d="M140.81,251.007l-1.431-5.443h-9.436l-1.471,5.443h-8.624l9.478-29.168H139.8l9.6,29.168Zm-3.061-11.882-1.252-4.769q-.438-1.587-1.063-4.112t-.825-3.616q-.178,1.014-.7,3.339t-2.334,9.158Z" transform="translate(-95.569 -213.116)" fill="#fff"/>
    <path id="Caminho_3" data-name="Caminho 3" d="M162.391,250.941H152.1L141.49,230.476h-.178q.375,4.828.378,7.37v13.094h-6.955V221.894h10.253l10.569,20.186h.121q-.28-4.39-.279-7.054V221.894h6.993Z" transform="translate(-77.77 -213.05)" fill="#fff"/>
    <path id="Caminho_4" data-name="Caminho 4" d="M163.71,228.143a5.006,5.006,0,0,0-4.371,2.294,11.09,11.09,0,0,0-1.57,6.327q0,8.385,6.378,8.385a13.055,13.055,0,0,0,3.737-.536,36.98,36.98,0,0,0,3.636-1.293v6.637a20.113,20.113,0,0,1-8.227,1.609q-6.577,0-10.082-3.814T149.7,236.725a17.59,17.59,0,0,1,1.7-7.928,12.153,12.153,0,0,1,4.887-5.254,14.747,14.747,0,0,1,7.5-1.84,20.646,20.646,0,0,1,9,2.048l-2.4,6.178a27.161,27.161,0,0,0-3.219-1.271A11.247,11.247,0,0,0,163.71,228.143Z" transform="translate(-59.875 -213.279)" fill="#fff"/>
    <path id="Caminho_5" data-name="Caminho 5" d="M181.751,255.757l-1.431-5.443h-9.439l-1.469,5.443h-8.624l9.478-29.168h10.471l9.6,29.168ZM171.36,224.385v-.577q3.06-3.277,3.884-4.231t1.361-1.71h8.5v.417q-1.591,1.274-4.371,3.241t-4.213,2.861Zm7.331,19.49-1.251-4.769q-.438-1.587-1.063-4.112t-.826-3.616q-.178,1.014-.7,3.339t-2.336,9.158Z" transform="translate(-46.622 -217.866)" fill="#fff"/>
    <path id="Caminho_6" data-name="Caminho 6" d="M183.522,240.372v10.569h-7.847V221.894h9.518q11.84,0,11.841,8.582,0,5.045-4.927,7.807l8.464,12.657h-8.9l-6.161-10.569Zm0-5.9h1.471q4.113,0,4.112-3.636,0-3-4.033-3h-1.55Z" transform="translate(-28.823 -213.05)" fill="#fff"/>
    <path id="Caminho_7" data-name="Caminho 7" d="M188.218,250.941V221.894H196.1v29.047Z" transform="translate(-13.827 -213.05)" fill="#fff"/>
    <path id="Caminho_8" data-name="Caminho 8" d="M222.436,236.628q0,7.331-3.6,11.147t-10.53,3.814q-6.837,0-10.482-3.833t-3.647-11.167q0-7.252,3.627-11.079t10.541-3.825q6.932,0,10.51,3.8T222.436,236.628Zm-19.988,0q0,8.424,5.862,8.424a5.038,5.038,0,0,0,4.42-2.046q1.442-2.048,1.44-6.378,0-4.354-1.46-6.429a4.982,4.982,0,0,0-4.36-2.077Q202.447,228.122,202.447,236.628Z" transform="translate(-6.698 -213.3)" fill="#fff"/>
    <path id="Caminho_9" data-name="Caminho 9" d="M214.5,239.338v11.6h-4.749V221.894h8.2q5.625,0,8.326,2.105t2.7,6.358q0,5.424-5.643,7.728l8.2,12.855h-5.4l-6.956-11.6Zm0-3.934h3.3q3.32,0,4.808-1.232a4.466,4.466,0,0,0,1.491-3.656,3.94,3.94,0,0,0-1.609-3.537,8.824,8.824,0,0,0-4.848-1.071H214.5Z" transform="translate(11.922 -213.05)" fill="#fff"/>
    <path id="Caminho_10" data-name="Caminho 10" d="M239.359,243.281a7.317,7.317,0,0,1-2.8,6.082q-2.8,2.2-7.73,2.2a18.433,18.433,0,0,1-8.067-1.53v-4.49a21.953,21.953,0,0,0,4.222,1.471,17.9,17.9,0,0,0,4.163.536,6.617,6.617,0,0,0,4.163-1.074,3.5,3.5,0,0,0,1.341-2.881,3.611,3.611,0,0,0-1.232-2.762,18.5,18.5,0,0,0-5.087-2.681,13.465,13.465,0,0,1-5.6-3.678,7.768,7.768,0,0,1-1.629-4.966,6.951,6.951,0,0,1,2.584-5.722,10.705,10.705,0,0,1,6.933-2.088,20.38,20.38,0,0,1,8.306,1.829l-1.511,3.875a18.136,18.136,0,0,0-6.914-1.629,5.3,5.3,0,0,0-3.5,1,3.292,3.292,0,0,0-1.192,2.652,3.724,3.724,0,0,0,.476,1.936,4.874,4.874,0,0,0,1.57,1.519,26.367,26.367,0,0,0,3.934,1.888,21.549,21.549,0,0,1,4.69,2.483,7.3,7.3,0,0,1,2.185,2.6A7.828,7.828,0,0,1,239.359,243.281Z" transform="translate(25.078 -213.279)" fill="#fff"/>
  </g>
  <path id="Caminho_11" data-name="Caminho 11" d="M98.638,242.372l23.121-23.121a2.519,2.519,0,0,0,0-3.566h0a2.521,2.521,0,0,0-3.563,0L91.509,242.372a2.519,2.519,0,0,0,0,3.565L118.2,272.624a2.52,2.52,0,0,0,3.563,0h0a2.519,2.519,0,0,0,0-3.566L98.638,245.937A2.523,2.523,0,0,1,98.638,242.372Z" transform="translate(-90.769 -214.947)" fill="#fff"/>
</svg>
