<svg xmlns="http://www.w3.org/2000/svg" width="62" height="35.279" viewBox="0 0 62 35.279">
  <g id="Grupo_675" data-name="Grupo 675" transform="translate(-386 -740.721)">
    <text id="CMS_AD_-_1.0" data-name="CMS AD - 1.0" transform="translate(393 763)" fill="#fff" font-size="8" font-family="OpenSans, Open Sans"><tspan x="0.18" y="9">CMS AD - 1.0</tspan></text>
    <g id="Grupo_674" data-name="Grupo 674" transform="translate(195.79 393.009)">
      <g id="Grupo_669" data-name="Grupo 669" transform="translate(190.211 347.712)">
        <path id="Caminho_336" data-name="Caminho 336" d="M215.317,356.567a45.205,45.205,0,0,0-2.191-6.242,5.07,5.07,0,0,0-2.709-2.392,3.8,3.8,0,0,0-3.534.519c-1.7,1.123-5.358,7.886-6.291,9.556-.539.964-3.3,4.634-.143,5.665,3.356,1.094,9.847.408,12.769-.1C214.963,363.276,217.215,363.076,215.317,356.567Zm-4.357,3a13.4,13.4,0,0,1-4.5-.339c-.648-.108-.338-.761-.068-.89a3.079,3.079,0,0,1,1.208.047,6.505,6.505,0,0,0,2.587.1c.533-.114,1.223-.2.575-2.284a15.1,15.1,0,0,0-.735-2,1.585,1.585,0,0,0-.855-.747,1.119,1.119,0,0,0-1.08.2,15.183,15.183,0,0,0-1.837,3.146c-.091.184-1.309,3.071-1.682,3.939,0,0-.318.979-1.117.733s-.532-.812-.532-.812a20.524,20.524,0,0,1,1-2.125c.427-.822,2.937-5.637,3.741-6.206a1.842,1.842,0,0,1,1.7-.3,2.456,2.456,0,0,1,1.347,1.118,21.909,21.909,0,0,1,1.154,2.99C212.888,359.267,211.8,359.4,210.959,359.569Z" transform="translate(-198.354 -347.712)" fill="#fff"/>
        <g id="Grupo_667" data-name="Grupo 667" transform="translate(0.603 0.102)">
          <path id="Caminho_337" data-name="Caminho 337" d="M205.44,563.307a17.185,17.185,0,0,1-5.009-.587,2.068,2.068,0,0,1-1.424-1.208c-.012-.032-.021-.064-.031-.1a1.9,1.9,0,0,0,1.7,2.273c2.166.433,5.469.03,8.335-.54C207.857,563.244,206.632,563.307,205.44,563.307Z" transform="translate(-198.961 -546.793)" fill="#fff" opacity="0.1"/>
          <path id="Caminho_338" data-name="Caminho 338" d="M225.423,358.888c1.224-2.207,4.474-8.069,6.056-9.116a4.759,4.759,0,0,1,1.178-.578,3.815,3.815,0,0,0-2.75,1.02c-1.254,1.061-3.348,5.926-4.492,8.69Z" transform="translate(-223.591 -349.189)" fill="#fff" opacity="0.1"/>
        </g>
        <g id="Grupo_668" data-name="Grupo 668" transform="translate(0 0.37)">
          <path id="Caminho_339" data-name="Caminho 339" d="M375.255,355.293a43.628,43.628,0,0,1,2.12,6,37.062,37.062,0,0,0-.754-4.828,5.07,5.07,0,0,0-2.186-2.878,4.045,4.045,0,0,0-1.417-.5A5.3,5.3,0,0,1,375.255,355.293Z" transform="translate(-360.422 -353.08)" fill="#fff" opacity="0.2"/>
          <path id="Caminho_340" data-name="Caminho 340" d="M192.135,450c.1-.167.193-.311.253-.418l.258-.464c.4-.718,1.01-1.822,1.71-3.022-.77.887-1.4,1.637-1.746,2.041-.657.769-3.594,3.4-1.855,5.087A8.177,8.177,0,0,1,192.135,450Z" transform="translate(-190.211 -439.688)" fill="#fff" opacity="0.2"/>
          <path id="Caminho_341" data-name="Caminho 341" d="M340.327,571.116l-.137.023c-1.2.206-2.968.44-4.876.573,1.437.151,2.74.23,3.684.256,1.1.03,2.385.136,3.061-1.408A4.29,4.29,0,0,1,340.327,571.116Z" transform="translate(-325.315 -555.575)" fill="#fff" opacity="0.2"/>
        </g>
      </g>
      <g id="Grupo_673" data-name="Grupo 673" transform="translate(210.553 351.401)">
        <g id="Grupo_671" data-name="Grupo 671" transform="translate(0.068 0)">
          <g id="Grupo_670" data-name="Grupo 670">
            <path id="Caminho_342" data-name="Caminho 342" d="M489.341,405.307l-.135-.513a.181.181,0,0,0-.176-.135h-1.079a.181.181,0,0,0-.175.134l-.139.515a.182.182,0,0,1-.175.134h-.852a.182.182,0,0,1-.173-.238l1.246-3.834a.181.181,0,0,1,.173-.125H489.1a.181.181,0,0,1,.172.125l1.262,3.834a.181.181,0,0,1-.172.238h-.844A.182.182,0,0,1,489.341,405.307Zm-.64-1.574a.182.182,0,0,0,.176-.228l-.12-.459q-.063-.229-.153-.592t-.119-.52q-.026.146-.1.48-.066.294-.276,1.089a.182.182,0,0,0,.175.229Z" transform="translate(-486.428 -401.245)" fill="#fff"/>
            <path id="Caminho_343" data-name="Caminho 343" d="M553.7,405.492v-3.817a.181.181,0,0,1,.182-.181h.766a.182.182,0,0,1,.182.181v2.9a.181.181,0,0,0,.182.182h1.247a.182.182,0,0,1,.182.182v.549a.181.181,0,0,1-.182.182h-2.376A.181.181,0,0,1,553.7,405.492Z" transform="translate(-549.065 -401.477)" fill="#fff"/>
            <path id="Caminho_344" data-name="Caminho 344" d="M600.692,405.674h-.766a.182.182,0,0,1-.182-.182V402.6a.181.181,0,0,0-.181-.182H598.9a.182.182,0,0,1-.182-.182v-.56a.182.182,0,0,1,.182-.181h2.8a.182.182,0,0,1,.182.181v.56a.182.182,0,0,1-.182.182h-.655a.182.182,0,0,0-.182.182v2.893A.181.181,0,0,1,600.692,405.674Z" transform="translate(-590.986 -401.477)" fill="#fff"/>
            <path id="Caminho_345" data-name="Caminho 345" d="M655.675,405.674h-2.119a.182.182,0,0,1-.182-.182v-3.817a.182.182,0,0,1,.182-.181h2.119a.182.182,0,0,1,.182.181v.543a.182.182,0,0,1-.182.181h-.989a.182.182,0,0,0-.182.182v.294a.182.182,0,0,0,.182.182h.889a.182.182,0,0,1,.182.182v.543a.182.182,0,0,1-.182.181h-.889a.182.182,0,0,0-.182.182v.426a.182.182,0,0,0,.182.182h.989a.182.182,0,0,1,.182.182v.558A.182.182,0,0,1,655.675,405.674Z" transform="translate(-641.872 -401.477)" fill="#fff"/>
            <path id="Caminho_346" data-name="Caminho 346" d="M701.146,404.335v1.158a.182.182,0,0,1-.182.182H700.2a.181.181,0,0,1-.181-.182v-3.817a.181.181,0,0,1,.181-.181h1.188q1.7,0,1.7,1.235a1.194,1.194,0,0,1-.558,1.03.18.18,0,0,0-.047.249l.925,1.384a.182.182,0,0,1-.151.282h-.837a.182.182,0,0,1-.157-.09l-.781-1.341a.181.181,0,0,0-.157-.09h0A.182.182,0,0,0,701.146,404.335Zm0-1.031h.211q.592,0,.592-.523,0-.432-.58-.432h-.223Z" transform="translate(-685.3 -401.477)" fill="#fff"/>
            <path id="Caminho_347" data-name="Caminho 347" d="M761.328,405.674h-1.189a.182.182,0,0,1-.161-.1l-1.476-2.847h-.026q.054.695.054,1.061v1.7a.182.182,0,0,1-.182.182h-.638a.182.182,0,0,1-.182-.182v-3.817a.182.182,0,0,1,.182-.181H758.9a.182.182,0,0,1,.161.1l1.47,2.808h.017q-.04-.632-.04-1.015v-1.708a.182.182,0,0,1,.182-.181h.643a.181.181,0,0,1,.181.181v3.817A.181.181,0,0,1,761.328,405.674Z" transform="translate(-738.851 -401.477)" fill="#fff"/>
            <path id="Caminho_348" data-name="Caminho 348" d="M825.752,405.307l-.135-.513a.182.182,0,0,0-.176-.135h-1.079a.181.181,0,0,0-.175.134l-.139.515a.182.182,0,0,1-.175.134h-.852a.182.182,0,0,1-.173-.238l1.246-3.834a.182.182,0,0,1,.173-.125h1.243a.181.181,0,0,1,.172.125l1.261,3.834a.181.181,0,0,1-.172.238h-.844A.181.181,0,0,1,825.752,405.307Zm-.64-1.574a.182.182,0,0,0,.176-.228l-.12-.459q-.063-.229-.153-.592t-.118-.52q-.026.146-.1.48-.067.294-.276,1.089a.182.182,0,0,0,.175.229Z" transform="translate(-799.66 -401.245)" fill="#fff"/>
            <path id="Caminho_349" data-name="Caminho 349" d="M887.639,405.674h-.766a.181.181,0,0,1-.182-.182V402.6a.182.182,0,0,0-.182-.182h-.658a.182.182,0,0,1-.182-.182v-.56a.182.182,0,0,1,.182-.181h2.8a.181.181,0,0,1,.181.181v.56a.181.181,0,0,1-.181.182H888a.181.181,0,0,0-.181.182v2.893A.182.182,0,0,1,887.639,405.674Z" transform="translate(-858.162 -401.477)" fill="#fff"/>
            <path id="Caminho_350" data-name="Caminho 350" d="M940.321,405.492v-3.817a.181.181,0,0,1,.181-.181h.772a.182.182,0,0,1,.182.181v3.817a.182.182,0,0,1-.182.182H940.5A.181.181,0,0,1,940.321,405.492Z" transform="translate(-909.047 -401.477)" fill="#fff"/>
            <path id="Caminho_351" data-name="Caminho 351" d="M967.215,401.494h.875a.182.182,0,0,1,.172.238l-1.251,3.817a.182.182,0,0,1-.173.125h-1.066a.181.181,0,0,1-.172-.125l-1.245-3.817a.182.182,0,0,1,.172-.238h.88a.182.182,0,0,1,.175.134l.533,1.984a6.5,6.5,0,0,1,.194.983q.02-.2.08-.5t.106-.472l.544-2A.182.182,0,0,1,967.215,401.494Z" transform="translate(-931.416 -401.477)" fill="#fff"/>
            <path id="Caminho_352" data-name="Caminho 352" d="M1026.22,405.307l-.135-.513a.182.182,0,0,0-.175-.135h-1.079a.181.181,0,0,0-.175.134l-.139.515a.181.181,0,0,1-.175.134h-.852a.182.182,0,0,1-.173-.238l1.246-3.834a.182.182,0,0,1,.173-.125h1.243a.181.181,0,0,1,.172.125l1.262,3.834a.181.181,0,0,1-.172.238h-.844A.181.181,0,0,1,1026.22,405.307Zm-.64-1.574a.182.182,0,0,0,.176-.228l-.12-.459q-.063-.229-.153-.592t-.119-.52q-.026.146-.1.48-.066.294-.276,1.089a.182.182,0,0,0,.175.229Z" transform="translate(-986.316 -401.245)" fill="#fff"/>
          </g>
        </g>
        <g id="Grupo_672" data-name="Grupo 672" transform="translate(0 5.757)">
          <path id="Caminho_353" data-name="Caminho 353" d="M488.986,487.678a2.16,2.16,0,0,1-.576,1.612,2.213,2.213,0,0,1-1.62.566h-1.168a.184.184,0,0,1-.184-.184v-3.811a.185.185,0,0,1,.184-.185h1.262a2.182,2.182,0,0,1,1.554.515A1.943,1.943,0,0,1,488.986,487.678Zm-1.172.04a1.329,1.329,0,0,0-.227-.852.841.841,0,0,0-.691-.277h-.144a.185.185,0,0,0-.184.185v1.973a.185.185,0,0,0,.184.184h.067a.911.911,0,0,0,.755-.3A1.444,1.444,0,0,0,487.814,487.718Z" transform="translate(-485.438 -485.617)" fill="#fff"/>
          <path id="Caminho_354" data-name="Caminho 354" d="M547.808,489.673v-3.811a.185.185,0,0,1,.185-.185h.766a.185.185,0,0,1,.184.185v3.811a.184.184,0,0,1-.184.184h-.766A.184.184,0,0,1,547.808,489.673Z" transform="translate(-543.511 -485.617)" fill="#fff"/>
          <path id="Caminho_355" data-name="Caminho 355" d="M577.171,486.6h1.435a.184.184,0,0,1,.185.185v1.933a.185.185,0,0,1-.129.177,5.045,5.045,0,0,1-1.487.21,1.952,1.952,0,0,1-1.494-.56,2.243,2.243,0,0,1-.527-1.6,2.1,2.1,0,0,1,.577-1.576,2.221,2.221,0,0,1,1.618-.563,3.59,3.59,0,0,1,.745.074,3.54,3.54,0,0,1,.43.118.185.185,0,0,1,.111.244l-.217.537a.183.183,0,0,1-.235.1,2.249,2.249,0,0,0-.828-.15.943.943,0,0,0-.765.322,1.391,1.391,0,0,0-.27.919,1.409,1.409,0,0,0,.245.893.847.847,0,0,0,.7.307,2.261,2.261,0,0,0,.3-.02.185.185,0,0,0,.159-.184v-.316a.184.184,0,0,0-.184-.184h-.377a.184.184,0,0,1-.184-.184v-.5A.184.184,0,0,1,577.171,486.6Z" transform="translate(-568.972 -484.804)" fill="#fff"/>
          <path id="Caminho_356" data-name="Caminho 356" d="M640.3,489.673v-3.811a.184.184,0,0,1,.184-.185h.766a.185.185,0,0,1,.184.185v3.811a.184.184,0,0,1-.184.184h-.766A.184.184,0,0,1,640.3,489.673Z" transform="translate(-629.633 -485.617)" fill="#fff"/>
          <path id="Caminho_357" data-name="Caminho 357" d="M667.416,489.857h-.76a.184.184,0,0,1-.184-.184v-2.888a.184.184,0,0,0-.185-.184h-.652a.185.185,0,0,1-.184-.185v-.555a.184.184,0,0,1,.184-.185h2.8a.185.185,0,0,1,.184.185v.555a.185.185,0,0,1-.184.185h-.649a.184.184,0,0,0-.184.184v2.888A.185.185,0,0,1,667.416,489.857Z" transform="translate(-653.047 -485.617)" fill="#fff"/>
          <path id="Caminho_358" data-name="Caminho 358" d="M717.46,489.487l-.134-.508a.184.184,0,0,0-.178-.138h-1.075a.185.185,0,0,0-.178.136l-.138.511a.185.185,0,0,1-.178.136h-.846a.184.184,0,0,1-.176-.241l1.244-3.828a.185.185,0,0,1,.175-.127h1.239a.184.184,0,0,1,.175.127l1.26,3.828a.185.185,0,0,1-.175.242h-.838A.185.185,0,0,1,717.46,489.487Zm-.643-1.572a.184.184,0,0,0,.178-.231l-.119-.455q-.063-.229-.153-.592t-.119-.52q-.026.146-.1.48-.066.293-.275,1.086a.185.185,0,0,0,.178.232Z" transform="translate(-698.763 -485.384)" fill="#fff"/>
          <path id="Caminho_359" data-name="Caminho 359" d="M781.805,489.673v-3.811a.184.184,0,0,1,.184-.185h.76a.185.185,0,0,1,.184.185v2.9a.184.184,0,0,0,.185.184h1.241a.185.185,0,0,1,.184.184v.543a.184.184,0,0,1-.184.184h-2.37A.184.184,0,0,1,781.805,489.673Z" transform="translate(-761.385 -485.617)" fill="#fff"/>
        </g>
      </g>
    </g>
    <g id="Retângulo_52" data-name="Retângulo 52" transform="translate(386 762)" fill="none" stroke="#0b3c5e" stroke-width="0.2">
      <rect width="62" height="14" rx="7" stroke="none"/>
      <rect x="0.1" y="0.1" width="61.8" height="13.8" rx="6.9" fill="none"/>
    </g>
  </g>
</svg>
