<svg id="Grupo_685" data-name="Grupo 685" xmlns="http://www.w3.org/2000/svg" width="62.379" height="11.986" viewBox="0 0 62.379 11.986">
  <g id="Grupo_5" data-name="Grupo 5" transform="translate(8.118 1.315)">
    <path id="Caminho_1" data-name="Caminho 1" d="M108.789,221.894h2.079a3.538,3.538,0,0,1,1.8.36,1.224,1.224,0,0,1,.589,1.124,1.42,1.42,0,0,1-.257.856,1.147,1.147,0,0,1-.677.457v.041a1.387,1.387,0,0,1,.8.489,1.477,1.477,0,0,1,.249.889,1.523,1.523,0,0,1-.61,1.278,2.668,2.668,0,0,1-1.661.467h-2.32Zm1.61,2.287h.485a.877.877,0,0,0,.536-.142.5.5,0,0,0,.19-.424q0-.5-.758-.5H110.4Zm0,1.179v1.252h.567q.754,0,.754-.636a.547.547,0,0,0-.2-.456.928.928,0,0,0-.585-.159Z" transform="translate(-108.789 -220.079)" fill="#fff"/>
    <path id="Caminho_2" data-name="Caminho 2" d="M124.148,227.824l-.294-1.117h-1.936l-.3,1.117h-1.77l1.945-5.985h2.149l1.969,5.985Zm-.628-2.438-.257-.979q-.09-.326-.218-.844t-.169-.742q-.036.208-.145.685t-.479,1.879Z" transform="translate(-114.865 -220.049)" fill="#fff"/>
    <path id="Caminho_3" data-name="Caminho 3" d="M140.409,227.854H138.3l-2.177-4.2h-.036q.077.991.077,1.512v2.687h-1.427v-5.96h2.1l2.169,4.142h.025q-.057-.9-.057-1.448v-2.695h1.435Z" transform="translate(-123.045 -220.079)" fill="#fff"/>
    <path id="Caminho_4" data-name="Caminho 4" d="M152.576,223.024a1.027,1.027,0,0,0-.9.471,2.276,2.276,0,0,0-.322,1.3q0,1.721,1.309,1.721a2.678,2.678,0,0,0,.767-.11,7.582,7.582,0,0,0,.746-.265V227.5a4.127,4.127,0,0,1-1.688.33,2.669,2.669,0,0,1-2.069-.783,3.23,3.23,0,0,1-.72-2.263,3.609,3.609,0,0,1,.349-1.627,2.494,2.494,0,0,1,1-1.078,3.026,3.026,0,0,1,1.539-.378,4.236,4.236,0,0,1,1.847.42l-.493,1.268a5.574,5.574,0,0,0-.66-.261A2.308,2.308,0,0,0,152.576,223.024Z" transform="translate(-131.27 -219.974)" fill="#fff"/>
    <path id="Caminho_5" data-name="Caminho 5" d="M165.09,225.641l-.294-1.117h-1.937l-.3,1.117h-1.77l1.945-5.985h2.148l1.969,5.985Zm-2.132-6.437v-.118q.628-.672.8-.868t.279-.351h1.745v.086q-.326.261-.9.665t-.865.587Zm1.5,4-.257-.979q-.09-.326-.218-.844t-.169-.742q-.036.208-.145.685t-.479,1.879Z" transform="translate(-137.362 -217.866)" fill="#fff"/>
    <path id="Caminho_6" data-name="Caminho 6" d="M177.285,225.685v2.169h-1.61v-5.96h1.953q2.429,0,2.43,1.761a1.76,1.76,0,0,1-1.011,1.6l1.737,2.6h-1.826l-1.264-2.169Zm0-1.211h.3q.844,0,.844-.746,0-.616-.828-.616h-.318Z" transform="translate(-145.542 -220.079)" fill="#fff"/>
    <path id="Caminho_7" data-name="Caminho 7" d="M188.218,227.854v-5.96h1.618v5.96Z" transform="translate(-152.434 -220.079)" fill="#fff"/>
    <path id="Caminho_8" data-name="Caminho 8" d="M199.979,224.751a3.216,3.216,0,0,1-.738,2.287,3.354,3.354,0,0,1-4.311,0,3.863,3.863,0,0,1,0-4.565,3.374,3.374,0,0,1,4.32-.006A3.217,3.217,0,0,1,199.979,224.751Zm-4.1,0q0,1.729,1.2,1.729a1.034,1.034,0,0,0,.907-.42,3.05,3.05,0,0,0,0-2.628,1.022,1.022,0,0,0-.895-.426Q195.877,223.006,195.877,224.751Z" transform="translate(-155.711 -219.965)" fill="#fff"/>
    <path id="Caminho_9" data-name="Caminho 9" d="M210.73,225.473v2.381h-.974v-5.96h1.684a2.764,2.764,0,0,1,1.708.432,1.551,1.551,0,0,1,.555,1.3,1.631,1.631,0,0,1-1.158,1.586l1.684,2.638h-1.109l-1.427-2.381Zm0-.807h.677a1.545,1.545,0,0,0,.987-.253.916.916,0,0,0,.306-.75.808.808,0,0,0-.33-.726,1.811,1.811,0,0,0-.995-.22h-.644Z" transform="translate(-164.269 -220.079)" fill="#fff"/>
    <path id="Caminho_10" data-name="Caminho 10" d="M224.576,226.131a1.5,1.5,0,0,1-.575,1.248,2.5,2.5,0,0,1-1.586.452,3.782,3.782,0,0,1-1.655-.314V226.6a4.506,4.506,0,0,0,.866.3,3.673,3.673,0,0,0,.854.11,1.358,1.358,0,0,0,.854-.22.718.718,0,0,0,.275-.591.741.741,0,0,0-.253-.567,3.8,3.8,0,0,0-1.044-.55,2.763,2.763,0,0,1-1.15-.755,1.594,1.594,0,0,1-.334-1.019,1.426,1.426,0,0,1,.53-1.174,2.2,2.2,0,0,1,1.423-.428,4.182,4.182,0,0,1,1.7.375l-.31.8a3.721,3.721,0,0,0-1.419-.334,1.088,1.088,0,0,0-.718.206.676.676,0,0,0-.245.544.764.764,0,0,0,.1.4,1,1,0,0,0,.322.312,5.41,5.41,0,0,0,.807.387,4.421,4.421,0,0,1,.962.51,1.5,1.5,0,0,1,.448.534A1.606,1.606,0,0,1,224.576,226.131Z" transform="translate(-170.315 -219.974)" fill="#fff"/>
  </g>
  <path id="Caminho_11" data-name="Caminho 11" d="M92.384,220.574l4.744-4.744a.517.517,0,0,0,0-.732h0a.517.517,0,0,0-.731,0l-5.476,5.476a.517.517,0,0,0,0,.732l5.476,5.476a.517.517,0,0,0,.731,0h0a.517.517,0,0,0,0-.732l-4.744-4.744A.518.518,0,0,1,92.384,220.574Z" transform="translate(-90.769 -214.947)" fill="#fff"/>
</svg>
