<svg xmlns="http://www.w3.org/2000/svg" width="22.178" height="15.524" viewBox="0 0 22.178 15.524">
  <g id="Grupo_1033" data-name="Grupo 1033" transform="translate(0 0)">
    <g id="Grupo_1032" data-name="Grupo 1032">
      <g id="Grupo_1031" data-name="Grupo 1031">
        <g id="Grupo_1030" data-name="Grupo 1030">
          <path id="Caminho_416" data-name="Caminho 416" d="M127.117,213.517a4.828,4.828,0,0,0-4.828-4.828H109.767a4.828,4.828,0,0,0-4.828,4.828v5.869a4.828,4.828,0,0,0,4.828,4.828h12.522a4.828,4.828,0,0,0,4.828-4.828Zm-7.9,3.23-4.994,2.739c-.217.118-.412-.04-.412-.286v-5.622c0-.25.2-.407.419-.283l5.028,2.883A.327.327,0,0,1,119.216,216.747Z" transform="translate(-104.939 -208.689)" fill="#c1c1c1"/>
        </g>
      </g>
    </g>
  </g>
</svg>
