<svg xmlns="http://www.w3.org/2000/svg" width="27.339" height="24.949" viewBox="0 0 27.339 24.949">
  <g id="Grupo_1049" data-name="Grupo 1049" transform="translate(0 0)">
    <g id="Grupo_1039" data-name="Grupo 1039">
      <path id="Caminho_418" data-name="Caminho 418" d="M129.038,234.908a7.023,7.023,0,0,0,2.071-5,.754.754,0,1,0-1.509,0,5.56,5.56,0,0,1-5.56,5.56h-.082a5.56,5.56,0,0,1-5.56-5.56.754.754,0,0,0-1.509,0,7.069,7.069,0,0,0,6.356,7.033V242.1h-3.352a.754.754,0,0,0,0,1.509h8.213a.754.754,0,1,0,0-1.509h-3.352v-5.157A7.014,7.014,0,0,0,129.038,234.908Z" transform="translate(-110.302 -218.659)" fill="#c1c1c1"/>
      <path id="Caminho_419" data-name="Caminho 419" d="M129.973,197.925h-.082a4.065,4.065,0,0,0-4.066,4.065v7.185a4.066,4.066,0,0,0,4.066,4.065h.082a4.066,4.066,0,0,0,4.066-4.065V201.99A4.065,4.065,0,0,0,129.973,197.925Zm-3.176,8.281a.361.361,0,1,1,.361-.362A.362.362,0,0,1,126.8,206.206Zm0-1.492a.362.362,0,1,1,.361-.362A.362.362,0,0,1,126.8,204.715Zm0-1.492a.362.362,0,1,1,.361-.362A.362.362,0,0,1,126.8,203.223Zm0-1.492a.362.362,0,1,1,.361-.362A.362.362,0,0,1,126.8,201.731Zm.8,3.752a.362.362,0,1,1,.362-.362A.361.361,0,0,1,127.6,205.483Zm0-1.492a.362.362,0,1,1,.362-.362A.361.361,0,0,1,127.6,203.991Zm0-1.492a.362.362,0,1,1,.362-.362A.361.361,0,0,1,127.6,202.5Zm0-1.492a.362.362,0,1,1,.362-.362A.361.361,0,0,1,127.6,201.008Zm.769,5.2a.361.361,0,1,1,.362-.362A.362.362,0,0,1,128.364,206.206Zm0-1.492a.362.362,0,1,1,.362-.362A.362.362,0,0,1,128.364,204.715Zm0-1.492a.362.362,0,1,1,.362-.362A.362.362,0,0,1,128.364,203.223Zm0-1.492a.362.362,0,1,1,.362-.362A.362.362,0,0,1,128.364,201.731Zm0-1.492a.362.362,0,1,1,.362-.362A.362.362,0,0,1,128.364,200.239Zm.8,5.244a.362.362,0,1,1,.362-.362A.361.361,0,0,1,129.162,205.483Zm0-1.492a.362.362,0,1,1,.362-.362A.361.361,0,0,1,129.162,203.991Zm0-1.492a.362.362,0,1,1,.362-.362A.361.361,0,0,1,129.162,202.5Zm0-1.492a.362.362,0,1,1,.362-.362A.361.361,0,0,1,129.162,201.008Zm0-1.492a.362.362,0,1,1,.362-.362A.361.361,0,0,1,129.162,199.516Zm.769,6.69a.361.361,0,1,1,.362-.361A.361.361,0,0,1,129.931,206.206Zm0-1.492a.362.362,0,1,1,.362-.362A.362.362,0,0,1,129.931,204.715Zm0-1.492a.362.362,0,1,1,.362-.362A.361.361,0,0,1,129.931,203.223Zm0-1.492a.362.362,0,1,1,.362-.362A.362.362,0,0,1,129.931,201.731Zm0-1.492a.362.362,0,1,1,.362-.362A.361.361,0,0,1,129.931,200.239Zm.8,5.244a.362.362,0,1,1,.362-.362A.362.362,0,0,1,130.73,205.483Zm0-1.492a.362.362,0,1,1,.362-.362A.362.362,0,0,1,130.73,203.991Zm0-1.492a.362.362,0,1,1,.362-.362A.362.362,0,0,1,130.73,202.5Zm0-1.492a.362.362,0,1,1,.362-.362A.362.362,0,0,1,130.73,201.008Zm0-1.492a.362.362,0,1,1,.362-.362A.362.362,0,0,1,130.73,199.516Zm.768,6.69a.361.361,0,1,1,.362-.361A.361.361,0,0,1,131.5,206.206Zm0-1.492a.362.362,0,1,1,.362-.362A.361.361,0,0,1,131.5,204.715Zm0-1.492a.362.362,0,1,1,.362-.362A.361.361,0,0,1,131.5,203.223Zm0-1.492a.362.362,0,1,1,.362-.362A.361.361,0,0,1,131.5,201.731Zm0-1.492a.362.362,0,1,1,.362-.362A.361.361,0,0,1,131.5,200.239Zm.8,5.244a.362.362,0,1,1,.362-.362A.362.362,0,0,1,132.3,205.483Zm0-1.492a.362.362,0,1,1,.362-.362A.362.362,0,0,1,132.3,203.991Zm0-1.492a.362.362,0,1,1,.362-.362A.362.362,0,0,1,132.3,202.5Zm0-1.492a.362.362,0,1,1,.362-.362A.362.362,0,0,1,132.3,201.008Zm.768,5.2a.361.361,0,1,1,.362-.361A.361.361,0,0,1,133.065,206.206Zm0-1.492a.362.362,0,1,1,.362-.362A.362.362,0,0,1,133.065,204.715Zm0-1.492a.362.362,0,1,1,.362-.362A.362.362,0,0,1,133.065,203.223Zm0-1.492a.362.362,0,1,1,.362-.362A.362.362,0,0,1,133.065,201.731Z" transform="translate(-116.234 -197.925)" fill="#c1c1c1"/>
      <g id="Grupo_1036" data-name="Grupo 1036" transform="translate(19.934 0.684)">
        <g id="Grupo_1035" data-name="Grupo 1035">
          <rect id="Retângulo_902" data-name="Retângulo 902" width="0.242" height="0.779" transform="translate(7.163 4.671)" fill="#c1c1c1"/>
          <rect id="Retângulo_903" data-name="Retângulo 903" width="0.242" height="1.176" transform="translate(6.609 4.377)" fill="#c1c1c1"/>
          <rect id="Retângulo_904" data-name="Retângulo 904" width="0.242" height="1.678" transform="translate(6.055 4.221)" fill="#c1c1c1"/>
          <rect id="Retângulo_905" data-name="Retângulo 905" width="0.242" height="2.076" transform="translate(5.502 3.996)" fill="#c1c1c1"/>
          <rect id="Retângulo_906" data-name="Retângulo 906" width="0.242" height="2.474" transform="translate(4.965 3.789)" fill="#c1c1c1"/>
          <rect id="Retângulo_907" data-name="Retângulo 907" width="0.242" height="2.785" transform="translate(4.412 3.668)" fill="#c1c1c1"/>
          <rect id="Retângulo_908" data-name="Retângulo 908" width="0.242" height="2.474" transform="translate(3.858 3.772)" fill="#c1c1c1"/>
          <rect id="Retângulo_909" data-name="Retângulo 909" width="0.242" height="3.893" transform="translate(3.304 3.131)" fill="#c1c1c1"/>
          <rect id="Retângulo_910" data-name="Retângulo 910" width="0.242" height="3.512" transform="translate(2.751 3.27)" fill="#c1c1c1"/>
          <rect id="Retângulo_911" data-name="Retângulo 911" width="0.242" height="2.422" transform="translate(2.197 3.806)" fill="#c1c1c1"/>
          <rect id="Retângulo_912" data-name="Retângulo 912" width="0.242" height="8.27" transform="translate(1.644 0.882)" fill="#c1c1c1"/>
          <rect id="Retângulo_913" data-name="Retângulo 913" width="0.242" height="10.052" transform="translate(1.107)" fill="#c1c1c1"/>
          <rect id="Retângulo_914" data-name="Retângulo 914" width="0.242" height="7.63" transform="translate(0.554 1.194)" fill="#c1c1c1"/>
          <rect id="Retângulo_915" data-name="Retângulo 915" width="0.242" height="8.27" transform="translate(0 0.986)" fill="#c1c1c1"/>
        </g>
      </g>
      <g id="Grupo_1038" data-name="Grupo 1038" transform="translate(0 0.684)">
        <g id="Grupo_1037" data-name="Grupo 1037">
          <rect id="Retângulo_916" data-name="Retângulo 916" width="0.242" height="0.779" transform="translate(0 4.602)" fill="#c1c1c1"/>
          <rect id="Retângulo_917" data-name="Retângulo 917" width="0.242" height="1.176" transform="translate(0.554 4.498)" fill="#c1c1c1"/>
          <rect id="Retângulo_918" data-name="Retângulo 918" width="0.242" height="1.678" transform="translate(1.107 4.152)" fill="#c1c1c1"/>
          <rect id="Retângulo_919" data-name="Retângulo 919" width="0.242" height="2.076" transform="translate(1.661 3.979)" fill="#c1c1c1"/>
          <rect id="Retângulo_920" data-name="Retângulo 920" width="0.242" height="2.474" transform="translate(2.197 3.789)" fill="#c1c1c1"/>
          <rect id="Retângulo_921" data-name="Retângulo 921" width="0.242" height="2.785" transform="translate(2.751 3.599)" fill="#c1c1c1"/>
          <rect id="Retângulo_922" data-name="Retângulo 922" width="0.242" height="2.474" transform="translate(3.304 3.806)" fill="#c1c1c1"/>
          <rect id="Retângulo_923" data-name="Retângulo 923" width="0.242" height="3.893" transform="translate(3.858 3.028)" fill="#c1c1c1"/>
          <rect id="Retângulo_924" data-name="Retângulo 924" width="0.242" height="3.512" transform="translate(4.412 3.27)" fill="#c1c1c1"/>
          <rect id="Retângulo_925" data-name="Retângulo 925" width="0.242" height="2.422" transform="translate(4.965 3.823)" fill="#c1c1c1"/>
          <rect id="Retângulo_926" data-name="Retângulo 926" width="0.242" height="8.27" transform="translate(5.519 0.9)" fill="#c1c1c1"/>
          <rect id="Retângulo_927" data-name="Retângulo 927" width="0.242" height="10.052" transform="translate(6.055)" fill="#c1c1c1"/>
          <rect id="Retângulo_928" data-name="Retângulo 928" width="0.242" height="7.63" transform="translate(6.609 1.228)" fill="#c1c1c1"/>
          <rect id="Retângulo_929" data-name="Retângulo 929" width="0.242" height="8.27" transform="translate(7.163 0.796)" fill="#c1c1c1"/>
        </g>
      </g>
    </g>
  </g>
</svg>
