<svg id="Grupo_1176" data-name="Grupo 1176" xmlns="http://www.w3.org/2000/svg" width="17.982" height="21.941" viewBox="0 0 17.982 21.941">
  <path id="Caminho_427" data-name="Caminho 427" d="M830.3,182.355a5.383,5.383,0,1,1,5.384-5.384A5.389,5.389,0,0,1,830.3,182.355Zm0-10.158a4.775,4.775,0,1,0,4.775,4.775A4.781,4.781,0,0,0,830.3,172.2Z" transform="translate(-823.521 -171.588)" fill="#fff"/>
  <path id="Caminho_428" data-name="Caminho 428" d="M831.885,230.979H818.67a.3.3,0,0,1-.3-.3v-4.565a6.912,6.912,0,1,1,13.824,0v4.565A.3.3,0,0,1,831.885,230.979Zm-12.911-.608h12.607v-4.261a6.3,6.3,0,1,0-12.607,0Z" transform="translate(-818.366 -209.038)" fill="#fff"/>
  <path id="Caminho_429" data-name="Caminho 429" d="M859.853,191.538a4.833,4.833,0,0,1-3.439-1.425.3.3,0,0,1,.43-.43,4.256,4.256,0,1,0,3.009-7.265,4.306,4.306,0,0,0-.624.045.3.3,0,1,1-.089-.6,4.924,4.924,0,0,1,.713-.052,4.864,4.864,0,0,1,0,9.728Z" transform="translate(-848.225 -179.629)" fill="#fff"/>
  <path id="Caminho_430" data-name="Caminho 430" d="M874.994,235.191h-4.157a.3.3,0,0,1,0-.608h3.853v-3.795a5.582,5.582,0,0,0-5.522-5.628,5.5,5.5,0,0,0-.929.079.3.3,0,0,1-.1-.6,6.083,6.083,0,0,1,1.033-.088,6.191,6.191,0,0,1,6.13,6.236v4.1A.3.3,0,0,1,874.994,235.191Z" transform="translate(-857.317 -213.251)" fill="#fff"/>
</svg>
