<svg id="Grupo_1179" data-name="Grupo 1179" xmlns="http://www.w3.org/2000/svg" width="18.236" height="18.314" viewBox="0 0 18.236 18.314">
  <path id="Caminho_448" data-name="Caminho 448" d="M6490.85,3939.914h-7.862a.254.254,0,0,1-.254-.254v-10.9a.254.254,0,0,1,.254-.254h7.862a.254.254,0,0,1,.254.254v10.9A.254.254,0,0,1,6490.85,3939.914Zm-7.609-.507h7.355v-10.393h-7.355Z" transform="translate(-6472.868 -3921.6)" fill="#fff"/>
  <path id="Caminho_449" data-name="Caminho 449" d="M6490.85,3895.387h-7.862a.254.254,0,0,1-.254-.254v-5.161a.254.254,0,0,1,.254-.254h7.862a.254.254,0,0,1,.254.254v5.161A.254.254,0,0,1,6490.85,3895.387Zm-7.609-.508h7.355v-4.654h-7.355Z" transform="translate(-6472.868 -3889.718)" fill="#fff"/>
  <path id="Caminho_450" data-name="Caminho 450" d="M6435.441,3901.126h-7.863a.253.253,0,0,1-.254-.253v-10.9a.254.254,0,0,1,.254-.254h7.863a.254.254,0,0,1,.254.254v10.9A.253.253,0,0,1,6435.441,3901.126Zm-7.61-.507h7.356v-10.393h-7.356Z" transform="translate(-6427.324 -3889.718)" fill="#fff"/>
  <path id="Caminho_451" data-name="Caminho 451" d="M6435.441,3966.406h-7.863a.254.254,0,0,1-.254-.254v-5.162a.253.253,0,0,1,.254-.253h7.863a.253.253,0,0,1,.254.253v5.162A.254.254,0,0,1,6435.441,3966.406Zm-7.61-.508h7.356v-4.654h-7.356Z" transform="translate(-6427.324 -3948.093)" fill="#fff"/>
</svg>
