<svg id="Grupo_1180" data-name="Grupo 1180" xmlns="http://www.w3.org/2000/svg" width="18.375" height="22.836" viewBox="0 0 18.375 22.836">
  <path id="Caminho_431" data-name="Caminho 431" d="M555.167,193.79h-9.344v-4.435a6.562,6.562,0,0,1,12.423-2.95.316.316,0,0,0,.565-.285,7.159,7.159,0,0,0-4.542-3.708,5.6,5.6,0,1,0-3.919.044,7.206,7.206,0,0,0-5.16,6.9v4.752a.317.317,0,0,0,.317.317h9.66a.317.317,0,1,0,0-.633Zm-7.888-16.6a4.97,4.97,0,1,1,4.97,4.97A4.976,4.976,0,0,1,547.279,177.191Z" transform="translate(-545.19 -171.588)" fill="#fff"/>
  <path id="Caminho_432" data-name="Caminho 432" d="M601.863,244.443a.316.316,0,0,0-.447.032l-4.928,5.675-1.333-2.373a.317.317,0,0,0-.552.31l1.553,2.765a.316.316,0,0,0,.244.16l.032,0a.317.317,0,0,0,.239-.109l5.223-6.014A.316.316,0,0,0,601.863,244.443Z" transform="translate(-583.598 -228.202)" fill="#fff"/>
</svg>
