<svg id="Grupo_1178" data-name="Grupo 1178" xmlns="http://www.w3.org/2000/svg" width="18.277" height="18.5" viewBox="0 0 18.277 18.5">
  <path id="Caminho_459" data-name="Caminho 459" d="M2325.992,4225.439v18a.252.252,0,0,1-.252.252h-17.773a.252.252,0,0,1-.252-.252v-18a.252.252,0,0,1,.252-.252h17.773A.252.252,0,0,1,2325.992,4225.439Zm-.5,17.746v-17.494h-17.268v17.494Z" transform="translate(-2307.715 -4225.187)" fill="#fff"/>
  <path id="Caminho_460" data-name="Caminho 460" d="M2326.916,4295.147a.252.252,0,0,1-.252.252h-17.574a.252.252,0,1,1,0-.5h17.574A.252.252,0,0,1,2326.916,4295.147Z" transform="translate(-2308.638 -4282.564)" fill="#fff"/>
  <path id="Caminho_461" data-name="Caminho 461" d="M2319.622,4307.023v1.639a.252.252,0,0,1-.5,0v-1.639a.252.252,0,0,1,.5,0Z" transform="translate(-2317.101 -4292.34)" fill="#fff"/>
  <path id="Caminho_462" data-name="Caminho 462" d="M2332.807,4307.023v1.639a.252.252,0,0,1-.5,0v-1.639a.252.252,0,0,1,.5,0Z" transform="translate(-2327.953 -4292.34)" fill="#fff"/>
  <path id="Caminho_463" data-name="Caminho 463" d="M2345.99,4307.023v1.639a.252.252,0,0,1-.5,0v-1.639a.252.252,0,0,1,.5,0Z" transform="translate(-2338.805 -4292.34)" fill="#fff"/>
</svg>
