<svg id="Grupo_1175" data-name="Grupo 1175" xmlns="http://www.w3.org/2000/svg" width="18.285" height="17.66" viewBox="0 0 18.285 17.66">
  <path id="Caminho_456" data-name="Caminho 456" d="M3860.054,3442.452a.241.241,0,0,1-.171-.071l-8.729-8.729-8.729,8.729a.242.242,0,0,1-.342-.341l8.9-8.9a.249.249,0,0,1,.341,0l8.9,8.9a.241.241,0,0,1-.171.412Z" transform="translate(-3842.012 -3433.072)" fill="#fff"/>
  <path id="Caminho_457" data-name="Caminho 457" d="M3869.376,3483.623h-4.294a.242.242,0,0,1-.242-.242v-6.162h-3.947v6.162a.242.242,0,0,1-.241.242h-4.294a.242.242,0,0,1-.242-.242v-10.461a.242.242,0,0,1,.483,0v10.22h3.811v-6.162a.242.242,0,0,1,.242-.242h4.43a.242.242,0,0,1,.242.242v6.162h3.811v-10.22a.242.242,0,0,1,.483,0v10.461A.242.242,0,0,1,3869.376,3483.623Z" transform="translate(-3853.724 -3465.963)" fill="#fff"/>
</svg>
