<svg id="Grupo_1173" data-name="Grupo 1173" xmlns="http://www.w3.org/2000/svg" width="18.283" height="18.004" viewBox="0 0 18.283 18.004">
  <path id="Caminho_433" data-name="Caminho 433" d="M3867.262,1594.564l-14.841.046a.279.279,0,1,0,0,.558l14.56-.045-.044,16.888h-17.122v-14.329h14.7v12.1a.279.279,0,1,0,.558,0v-12.105a.549.549,0,0,0-.549-.549h-14.769a.5.5,0,0,0-.5.5v14.391a.555.555,0,0,0,.555.555h17.128a.555.555,0,0,0,.555-.554l.046-17.172A.279.279,0,0,0,3867.262,1594.564Z" transform="translate(-3849.258 -1594.564)" fill="#fff"/>
  <path id="Caminho_434" data-name="Caminho 434" d="M3866.63,1625.029V1620.5a.415.415,0,0,0-.415-.415h-5.366v0a.415.415,0,0,0-.4.418l.038,4.524a.415.415,0,0,0,.415.411h5.315A.415.415,0,0,0,3866.63,1625.029Zm-.559-.144h-5.025v-4.239h5.025Z" transform="translate(-3858.255 -1615.09)" fill="#fff"/>
  <path id="Caminho_435" data-name="Caminho 435" d="M3901.211,1620.28h-4.222a.279.279,0,1,0,0,.558h4.222a.279.279,0,0,0,0-.558Z" transform="translate(-3887.416 -1615.244)" fill="#fff"/>
  <path id="Caminho_436" data-name="Caminho 436" d="M3864.562,1659.322h10.748a.279.279,0,0,0,0-.558h-10.748a.279.279,0,1,0,0,.558Z" transform="translate(-3861.34 -1646.19)" fill="#fff"/>
  <path id="Caminho_437" data-name="Caminho 437" d="M3864.74,1672.15h10.887a.279.279,0,1,0,0-.558H3864.74a.279.279,0,1,0,0,.558Z" transform="translate(-3861.483 -1656.506)" fill="#fff"/>
  <path id="Caminho_438" data-name="Caminho 438" d="M3897.167,1633.464a.279.279,0,1,0,0,.558h4.222a.279.279,0,0,0,0-.558Z" transform="translate(-3887.56 -1625.845)" fill="#fff"/>
  <path id="Caminho_439" data-name="Caminho 439" d="M3896.632,1646.672h4.222a.279.279,0,0,0,0-.558h-4.222a.279.279,0,1,0,0,.558Z" transform="translate(-3887.129 -1636.018)" fill="#fff"/>
</svg>
