<svg id="Grupo_1174" data-name="Grupo 1174" xmlns="http://www.w3.org/2000/svg" width="18.285" height="17.764" viewBox="0 0 18.285 17.764">
  <path id="Caminho_452" data-name="Caminho 452" d="M1238.985-1020.96v-14.586a.249.249,0,0,0-.249-.249h-9.245l-2.353-2.6a.25.25,0,0,0-.185-.082h-6a.249.249,0,0,0-.249.249v4.834a.045.045,0,0,0,0,.009.056.056,0,0,1,0,.009l0,12.413a.249.249,0,0,0,.249.249h17.786A.249.249,0,0,0,1238.985-1020.96Zm-.5-.249H1221.2l0-11.923h17.273l.013,0Zm0-12.419-.013,0H1221.2v-4.344h5.642l2.353,2.6a.249.249,0,0,0,.185.082h9.106Z" transform="translate(-1220.701 1038.474)" fill="#fff"/>
  <g id="Grupo_1083" data-name="Grupo 1083" transform="translate(4.355 8.882)">
    <g id="Grupo_1082" data-name="Grupo 1082" transform="translate(0 0)">
      <path id="Caminho_453" data-name="Caminho 453" d="M1248.271-986.467a1.176,1.176,0,0,1-.388.95,1.659,1.659,0,0,1-1.1.329h-.35v1.368h-.815v-3.846h1.228a1.633,1.633,0,0,1,1.064.3A1.1,1.1,0,0,1,1248.271-986.467Zm-1.841.61h.268a.894.894,0,0,0,.563-.149.52.52,0,0,0,.186-.433.534.534,0,0,0-.156-.424.734.734,0,0,0-.49-.137h-.371Z" transform="translate(-1245.614 987.666)" fill="#fff"/>
      <path id="Caminho_454" data-name="Caminho 454" d="M1268.156-985.78a1.893,1.893,0,0,1-.54,1.454,2.2,2.2,0,0,1-1.561.505h-1.089v-3.846h1.207a2.033,2.033,0,0,1,1.462.5A1.828,1.828,0,0,1,1268.156-985.78Zm-.847.021q0-1.239-1.094-1.239h-.434v2.5h.35Q1267.309-984.494,1267.309-985.759Z" transform="translate(-1261.582 987.666)" fill="#fff"/>
      <path id="Caminho_455" data-name="Caminho 455" d="M1288.579-983.82h-.8v-3.846h2.2V-987h-1.4v.992h1.3v.665h-1.3Z" transform="translate(-1280.406 987.666)" fill="#fff"/>
    </g>
  </g>
</svg>
