<svg xmlns="http://www.w3.org/2000/svg" width="19.746" height="19.408" viewBox="0 0 19.746 19.408">
  <g id="Grupo_1182" data-name="Grupo 1182" transform="translate(-3585.379 -3889.74)">
    <path id="Caminho_493" data-name="Caminho 493" d="M3595.251,3899.61a.27.27,0,0,1-.121-.029l-9.6-4.833a.269.269,0,0,1,.007-.484l9.6-4.5a.265.265,0,0,1,.228,0l9.6,4.5a.269.269,0,0,1,.007.484l-9.6,4.833A.269.269,0,0,1,3595.251,3899.61Zm-8.988-5.093,8.988,4.523,8.988-4.523-8.988-4.211Z" transform="translate(0 0)" fill="#fff"/>
    <path id="Caminho_494" data-name="Caminho 494" d="M3595.251,3931.1a.264.264,0,0,1-.121-.029l-9.6-4.833a.269.269,0,0,1,.007-.484l2.059-.965a.269.269,0,0,1,.228.487l-1.557.729,8.988,4.523,8.988-4.523-1.587-.743a.269.269,0,1,1,.228-.487l2.088.978a.269.269,0,0,1,.007.484l-9.6,4.833A.263.263,0,0,1,3595.251,3931.1Z" transform="translate(0 -28.4)" fill="#fff"/>
    <path id="Caminho_495" data-name="Caminho 495" d="M3595.251,3947.286a.267.267,0,0,1-.121-.029l-9.6-4.833a.269.269,0,0,1,.007-.484l2.059-.964a.269.269,0,0,1,.228.487l-1.557.729,8.988,4.523,8.988-4.523-1.587-.743a.269.269,0,0,1,.228-.487l2.088.979a.269.269,0,0,1,.007.484l-9.6,4.833A.266.266,0,0,1,3595.251,3947.286Z" transform="translate(0 -41.532)" fill="#fff"/>
    <path id="Caminho_496" data-name="Caminho 496" d="M3595.251,3965.271a.264.264,0,0,1-.121-.029l-9.6-4.833a.269.269,0,0,1,.007-.484l2.059-.964a.269.269,0,0,1,.228.487l-1.557.729,8.988,4.523,8.988-4.523-1.587-.743a.269.269,0,0,1,.228-.488l2.088.979a.269.269,0,0,1,.007.484l-9.6,4.833A.263.263,0,0,1,3595.251,3965.271Z" transform="translate(0 -56.122)" fill="#fff"/>
  </g>
</svg>
