<svg id="Grupo_1177" data-name="Grupo 1177" xmlns="http://www.w3.org/2000/svg" width="18.088" height="18.088" viewBox="0 0 18.088 18.088">
  <path id="Caminho_443" data-name="Caminho 443" d="M4381.771,454.148a.261.261,0,0,0-.368,0l-1.453,1.453-4.635-4.635,1.511-1.51a.262.262,0,0,0,0-.369l-3.32-3.32a.261.261,0,0,0-.369,0l-4.09,4.09a.261.261,0,0,0,0,.369l9.777,9.777a.261.261,0,0,0,.369-.369l-9.593-9.592,2.672-2.672,2.952,2.952-.461.461a.261.261,0,0,0,0,.369l5,5a.261.261,0,0,0,.369,0l.484-.484,3.021,3.021-2.732,2.732a.261.261,0,0,0,0,.369h0a.261.261,0,0,0,.369,0l3.905-3.905a.262.262,0,0,0,0-.37ZM4372.64,447l.68-.68,2.952,2.952-.68.68Zm11.368,11.322-3.021-3.021.6-.6,3.038,3Z" transform="translate(-4367.885 -444.798)" fill="#fff"/>
  <path id="Caminho_444" data-name="Caminho 444" d="M4384.111,498.861a.26.26,0,0,0,.284-.244h0a.262.262,0,0,0-.237-.276,5.783,5.783,0,0,1-5.11-5.13.261.261,0,0,0-.52.046,6.3,6.3,0,0,0,5.583,5.6Z" transform="translate(-4375.693 -483.427)" fill="#fff"/>
  <path id="Caminho_445" data-name="Caminho 445" d="M4419.989,459a5.718,5.718,0,0,1,1.613,3.123.261.261,0,1,0,.516-.078,6.309,6.309,0,0,0-5.224-5.182.26.26,0,0,0-.3.229h0a.261.261,0,0,0,.222.287A5.72,5.72,0,0,1,4419.989,459Z" transform="translate(-4406.794 -453.925)" fill="#fff"/>
  <path id="Caminho_446" data-name="Caminho 446" d="M4372.2,497.112a8.521,8.521,0,0,1-8.631-8.621.261.261,0,1,0-.522-.01,9.044,9.044,0,0,0,9.048,9.154h.115a.262.262,0,0,0,.256-.274h0A.26.26,0,0,0,4372.2,497.112Z" transform="translate(-4363.044 -479.546)" fill="#fff"/>
  <path id="Caminho_447" data-name="Caminho 447" d="M4408.658,440.824a.261.261,0,1,0,.032.521,8.522,8.522,0,0,1,8.967,9.064.261.261,0,0,0,.234.279h0a.263.263,0,0,0,.287-.241,9.044,9.044,0,0,0-9.52-9.623Z" transform="translate(-4400.108 -440.811)" fill="#fff"/>
</svg>
