<svg xmlns="http://www.w3.org/2000/svg" viewBox="0 0 61.26 32.32"><defs><style>.cls-1{font-size:6.68px;font-family:MyriadPro-Regular, Myriad Pro;}.cls-1,.cls-3,.cls-4{fill:#fff;}.cls-2{letter-spacing:-0.01em;}.cls-4{fill-rule:evenodd;}</style></defs><title>Asset 4</title><g id="Layer_2" data-name="Layer 2"><g id="_002_-NOTÍCIA_ABERTA" data-name="002 -NOTÍCIA ABERTA"><text class="cls-1" transform="translate(32.39 30.65)">fa<tspan class="cls-2" x="5.17" y="0">c</tspan><tspan x="8.12" y="0">ebook</tspan></text><path class="cls-3" d="M2.44,1.63H13A.82.82,0,0,0,13.8.81h0A.81.81,0,0,0,13,0H.81A.81.81,0,0,0,0,.81V13a.81.81,0,0,0,.81.81h0A.82.82,0,0,0,1.63,13V2.44A.81.81,0,0,1,2.44,1.63Z"/><path class="cls-3" d="M28.11,28.92H17.56a.82.82,0,0,0-.82.81h0a.82.82,0,0,0,.82.82H29.73a.82.82,0,0,0,.82-.82V17.56a.82.82,0,0,0-.82-.82h0a.82.82,0,0,0-.81.82V28.11A.82.82,0,0,1,28.11,28.92Z"/><path class="cls-4" d="M18.24,9c.59,0,1.18,0,1.77,0h.25V5.87c-.32,0-.65-.08-1-.1-.61,0-1.21,0-1.82,0a4.44,4.44,0,0,0-2.57.8,3.87,3.87,0,0,0-1.55,2.56,9.77,9.77,0,0,0-.1,1.32c0,.69,0,1.38,0,2.08v.25H10.29v3.44h2.93v8.64h3.57V16.2h2.92c.15-1.15.3-2.28.45-3.46H16.77s0-1.7,0-2.44C16.83,9.29,17.43,9,18.24,9Z"/></g></g></svg>