<svg xmlns="http://www.w3.org/2000/svg" viewBox="0 0 60.27 32.14"><defs><style>.cls-1{font-size:6.68px;font-family:MyriadPro-Regular, Myriad Pro;}.cls-1,.cls-2{fill:#fff;}</style></defs><title>Asset 9</title><g id="Layer_2" data-name="Layer 2"><g id="_002_-NOTÍCIA_ABERTA" data-name="002 -NOTÍCIA ABERTA"><text class="cls-1" transform="translate(33.35 30.47)">podcasts</text><path class="cls-2" d="M2.44,1.63H13A.82.82,0,0,0,13.8.81h0A.81.81,0,0,0,13,0H.81A.81.81,0,0,0,0,.81V13a.81.81,0,0,0,.81.81h0A.82.82,0,0,0,1.63,13V2.44A.81.81,0,0,1,2.44,1.63Z"/><path class="cls-2" d="M28.11,28.92H17.56a.82.82,0,0,0-.82.81h0a.82.82,0,0,0,.82.82H29.73a.82.82,0,0,0,.82-.82V17.56a.82.82,0,0,0-.82-.82h0a.82.82,0,0,0-.81.82V28.11A.82.82,0,0,1,28.11,28.92Z"/><path class="cls-2" d="M19.05,18.76A5.23,5.23,0,0,0,20.6,15a.56.56,0,0,0-.56-.56.57.57,0,0,0-.57.56,4.13,4.13,0,0,1-4.15,4.15h-.06A4.11,4.11,0,0,1,12.33,18,4.16,4.16,0,0,1,11.11,15,.56.56,0,0,0,10,15a5.27,5.27,0,0,0,4.74,5.25v3.85h-2.5a.56.56,0,0,0,0,1.12h6.13a.56.56,0,1,0,0-1.12h-2.5V20.28A5.24,5.24,0,0,0,19.05,18.76Z"/><path class="cls-2" d="M15.32,6.64h-.06a3,3,0,0,0-3,3V15a3,3,0,0,0,3,3h.06a3,3,0,0,0,3-3V9.67A3,3,0,0,0,15.32,6.64ZM13,12.82a.27.27,0,0,1,0-.54.27.27,0,1,1,0,.54Zm0-1.12a.27.27,0,0,1,0-.54.27.27,0,0,1,0,.54Zm0-1.11a.27.27,0,0,1,0-.54.27.27,0,0,1,0,.54Zm0-1.11a.27.27,0,0,1,0-.54.27.27,0,1,1,0,.54Zm.6,2.8a.27.27,0,1,1,.27-.27A.27.27,0,0,1,13.55,12.28Zm0-1.12a.27.27,0,1,1,.27-.27A.27.27,0,0,1,13.55,11.16Zm0-1.11a.27.27,0,1,1,.27-.27A.27.27,0,0,1,13.55,10.05Zm0-1.11a.27.27,0,1,1,.27-.27A.27.27,0,0,1,13.55,8.94Zm.57,3.88a.27.27,0,1,1,.27-.27A.27.27,0,0,1,14.12,12.82Zm0-1.12a.27.27,0,1,1,.27-.27A.27.27,0,0,1,14.12,11.7Zm0-1.11a.27.27,0,1,1,.27-.27A.27.27,0,0,1,14.12,10.59Zm0-1.11a.27.27,0,1,1,.27-.27A.27.27,0,0,1,14.12,9.48Zm0-1.12a.27.27,0,1,1,.27-.27A.27.27,0,0,1,14.12,8.36Zm.6,3.92A.27.27,0,1,1,15,12,.27.27,0,0,1,14.72,12.28Zm0-1.12a.27.27,0,1,1,.27-.27A.27.27,0,0,1,14.72,11.16Zm0-1.11A.27.27,0,1,1,15,9.78.27.27,0,0,1,14.72,10.05Zm0-1.11A.27.27,0,1,1,15,8.67.27.27,0,0,1,14.72,8.94Zm0-1.12A.27.27,0,1,1,15,7.55.27.27,0,0,1,14.72,7.82Zm.57,5a.27.27,0,1,1,.27-.27A.27.27,0,0,1,15.29,12.82Zm0-1.12a.27.27,0,1,1,.27-.27A.27.27,0,0,1,15.29,11.7Zm0-1.11a.27.27,0,1,1,.27-.27A.27.27,0,0,1,15.29,10.59Zm0-1.11a.27.27,0,1,1,.27-.27A.27.27,0,0,1,15.29,9.48Zm0-1.12a.27.27,0,1,1,.27-.27A.27.27,0,0,1,15.29,8.36Zm.6,3.92a.27.27,0,1,1,.27-.27A.27.27,0,0,1,15.89,12.28Zm0-1.12a.27.27,0,1,1,.27-.27A.27.27,0,0,1,15.89,11.16Zm0-1.11a.27.27,0,1,1,.27-.27A.27.27,0,0,1,15.89,10.05Zm0-1.11a.27.27,0,1,1,.27-.27A.27.27,0,0,1,15.89,8.94Zm0-1.12a.27.27,0,1,1,.27-.27A.27.27,0,0,1,15.89,7.82Zm.57,5a.27.27,0,1,1,.27-.27A.27.27,0,0,1,16.46,12.82Zm0-1.12a.27.27,0,1,1,.27-.27A.27.27,0,0,1,16.46,11.7Zm0-1.11a.27.27,0,1,1,.27-.27A.27.27,0,0,1,16.46,10.59Zm0-1.11a.27.27,0,1,1,.27-.27A.27.27,0,0,1,16.46,9.48Zm0-1.12a.27.27,0,1,1,.27-.27A.27.27,0,0,1,16.46,8.36Zm.6,3.92a.27.27,0,1,1,.27-.27A.27.27,0,0,1,17.06,12.28Zm0-1.12a.27.27,0,1,1,.27-.27A.27.27,0,0,1,17.06,11.16Zm0-1.11a.27.27,0,1,1,.27-.27A.27.27,0,0,1,17.06,10.05Zm0-1.11a.27.27,0,1,1,.27-.27A.27.27,0,0,1,17.06,8.94Zm.57,3.88a.27.27,0,1,1,.27-.27A.27.27,0,0,1,17.63,12.82Zm0-1.12a.27.27,0,1,1,.27-.27A.27.27,0,0,1,17.63,11.7Zm0-1.11a.27.27,0,1,1,.27-.27A.27.27,0,0,1,17.63,10.59Zm0-1.11a.27.27,0,1,1,.27-.27A.27.27,0,0,1,17.63,9.48Z"/><rect class="cls-2" x="25.29" y="10.63" width="0.18" height="0.58"/><rect class="cls-2" x="24.88" y="10.41" width="0.18" height="0.88"/><rect class="cls-2" x="24.47" y="10.3" width="0.18" height="1.25"/><rect class="cls-2" x="24.05" y="10.13" width="0.18" height="1.55"/><rect class="cls-2" x="23.65" y="9.97" width="0.18" height="1.85"/><rect class="cls-2" x="23.24" y="9.88" width="0.18" height="2.08"/><rect class="cls-2" x="22.83" y="9.96" width="0.18" height="1.85"/><rect class="cls-2" x="22.41" y="9.48" width="0.18" height="2.9"/><rect class="cls-2" x="22" y="9.59" width="0.18" height="2.62"/><rect class="cls-2" x="21.59" y="9.99" width="0.18" height="1.81"/><rect class="cls-2" x="21.17" y="7.81" width="0.18" height="6.17"/><rect class="cls-2" x="20.77" y="7.15" width="0.18" height="7.5"/><rect class="cls-2" x="20.36" y="8.04" width="0.18" height="5.69"/><rect class="cls-2" x="19.95" y="7.88" width="0.18" height="6.17"/><rect class="cls-2" x="5.07" y="10.58" width="0.18" height="0.58"/><rect class="cls-2" x="5.49" y="10.5" width="0.18" height="0.88"/><rect class="cls-2" x="5.9" y="10.25" width="0.18" height="1.25"/><rect class="cls-2" x="6.31" y="10.12" width="0.18" height="1.55"/><rect class="cls-2" x="6.71" y="9.97" width="0.18" height="1.85"/><rect class="cls-2" x="7.13" y="9.83" width="0.18" height="2.08"/><rect class="cls-2" x="7.54" y="9.99" width="0.18" height="1.85"/><rect class="cls-2" x="7.95" y="9.41" width="0.18" height="2.9"/><rect class="cls-2" x="8.36" y="9.59" width="0.18" height="2.62"/><rect class="cls-2" x="8.78" y="10" width="0.18" height="1.81"/><rect class="cls-2" x="9.19" y="7.82" width="0.18" height="6.17"/><rect class="cls-2" x="9.59" y="7.15" width="0.18" height="7.5"/><rect class="cls-2" x="10" y="8.06" width="0.18" height="5.69"/><rect class="cls-2" x="10.42" y="7.74" width="0.18" height="6.17"/></g></g></svg>