<svg xmlns="http://www.w3.org/2000/svg" viewBox="0 0 62.22 32.14"><defs><style>.cls-1{font-size:6.68px;font-family:MyriadPro-Regular, Myriad Pro;}.cls-1,.cls-3,.cls-4{fill:#fff;}.cls-2{letter-spacing:0em;}.cls-4{fill-rule:evenodd;}</style></defs><title>Asset 8</title><g id="Layer_2" data-name="Layer 2"><g id="_002_-NOTÍCIA_ABERTA" data-name="002 -NOTÍCIA ABERTA"><text class="cls-1" transform="translate(32.39 30.47)">wh<tspan class="cls-2" x="8.63" y="0">a</tspan><tspan x="11.82" y="0">tsapp</tspan></text><path class="cls-3" d="M2.44,1.63H13A.82.82,0,0,0,13.8.81h0A.81.81,0,0,0,13,0H.81A.81.81,0,0,0,0,.81V13a.81.81,0,0,0,.81.81h0A.82.82,0,0,0,1.63,13V2.44A.81.81,0,0,1,2.44,1.63Z"/><path class="cls-3" d="M28.11,28.92H17.56a.82.82,0,0,0-.82.81h0a.82.82,0,0,0,.82.82H29.73a.82.82,0,0,0,.82-.82V17.56a.82.82,0,0,0-.82-.82h0a.82.82,0,0,0-.81.82V28.11A.82.82,0,0,1,28.11,28.92Z"/><path class="cls-4" d="M6.84,23.75c.1-.37.18-.69.26-1,.28-1,.57-2,.83-3.06a.69.69,0,0,0,0-.49,8.41,8.41,0,1,1,3.64,3.54.93.93,0,0,0-.52-.06C8.77,23.24,7.29,23.66,6.84,23.75Zm2-1.93c.84-.22,1.61-.41,2.37-.63a.69.69,0,0,1,.58.08,6.82,6.82,0,0,0,4.65.88A7,7,0,1,0,9.16,18.6a1.49,1.49,0,0,1,.16,1.34C9.11,20.53,9,21.15,8.8,21.82Z"/><path class="cls-4" d="M17.49,19.24c-1.64-.06-4.26-1.36-6-4.47a2.53,2.53,0,0,1,.39-3.23,1.19,1.19,0,0,1,1.08-.16c.09,0,.19.15.23.26.24.54.48,1.08.68,1.64.11.29-.09.57-.51,1.06a.35.35,0,0,0-.06.47,5.7,5.7,0,0,0,2.92,2.51.35.35,0,0,0,.44-.12c.67-.82.74-1.06,1.09-.89,1.7.81,1.83.85,1.84,1A1.85,1.85,0,0,1,17.49,19.24Z"/></g></g></svg>