<svg xmlns="http://www.w3.org/2000/svg" width="237.82" height="52.001" viewBox="0 0 237.82 52.001">
  <g id="Grupo_1055" data-name="Grupo 1055" transform="translate(5312.238 1686.245)" style="isolation: isolate">
    <rect id="Retângulo_907" data-name="Retângulo 907" width="199.772" height="16.375" rx="7.5" transform="translate(-5311.988 -1685.978)" fill="none" stroke="#fff" stroke-miterlimit="10" stroke-width="0.5"/>
    <g id="Grupo_1049" data-name="Grupo 1049" transform="translate(-5302.258 -1686.245)">
      <path id="Caminho_290" data-name="Caminho 290" d="M-5298.2-1678.78l-.116-.022c-1.814-.338-3-.641-3-1.721,0-1.816,2.624-1.868,2.92-1.868a3.17,3.17,0,0,1,2.967,1.3l.142.226,1.141-.673-.16-.24a4.306,4.306,0,0,0-4.086-1.915,5,5,0,0,0-3.521,1.2,2.664,2.664,0,0,0-.761,1.992c0,2.176,2.191,2.6,4.125,2.981,1.97.377,3.259.718,3.247,1.992,0,1.769-2.16,1.958-3.089,1.958a3.874,3.874,0,0,1-3.359-1.764l-.122-.243-1.212.607.124.245a5.017,5.017,0,0,0,4.569,2.441c1.04,0,4.43-.233,4.449-3.228C-5293.946-1677.962-5296.2-1678.4-5298.2-1678.78Z" transform="translate(5303.087 1686.479)" fill="#fff"/>
      <rect id="Retângulo_908" data-name="Retângulo 908" width="1.344" height="11.098" transform="translate(14.858 2.939)" fill="#fff"/>
      <path id="Caminho_291" data-name="Caminho 291" d="M-5275.013-1675.319l-6.7-8.233h-.75v11.1h1.359v-8.22l6.713,8.22h.719v-11.1h-1.345Z" transform="translate(5304.978 1686.492)" fill="#fff"/>
      <path id="Caminho_292" data-name="Caminho 292" d="M-5264.827-1683.552h-3.846v11.1h3.846a5.562,5.562,0,0,0,4.095-1.576,5.685,5.685,0,0,0,1.529-4.1h0A5.318,5.318,0,0,0-5264.827-1683.552Zm0,9.768h-2.486v-8.454h2.486a4.027,4.027,0,0,1,4.264,4.12,4.374,4.374,0,0,1-1.176,3.151A4.2,4.2,0,0,1-5264.827-1673.784Z" transform="translate(5306.242 1686.492)" fill="#fff"/>
      <path id="Caminho_293" data-name="Caminho 293" d="M-5247.591-1678.157a2.546,2.546,0,0,0,1.279-2.243c0-2.326-2.015-3.152-3.741-3.152h-4.6v11.1h4.6c2.608,0,4.1-1.1,4.1-3.031A2.944,2.944,0,0,0-5247.591-1678.157Zm-2.461-4.156c1.119,0,2.426.5,2.426,1.913,0,1.08-.781,1.627-2.32,1.627h-3.345v-3.539Zm-3.239,4.854h3.345c.618,0,2.635.142,2.652,1.958,0,1.14-.928,1.717-2.758,1.717h-3.239Z" transform="translate(5307.527 1686.492)" fill="#fff"/>
      <path id="Caminho_294" data-name="Caminho 294" d="M-5237.4-1683.552l-4.978,11.1h1.472l1.146-2.593h5.947l1.16,2.593h1.474l-4.979-11.1Zm-1.8,7.2,2.415-5.472,2.416,5.472Z" transform="translate(5308.651 1686.492)" fill="#fff"/>
      <path id="Caminho_295" data-name="Caminho 295" d="M-5219.907-1675.319l-6.7-8.233h-.749v11.1h1.359v-8.22l6.714,8.22h.719v-11.1h-1.345Z" transform="translate(5310.028 1686.492)" fill="#fff"/>
      <path id="Caminho_296" data-name="Caminho 296" d="M-5208.309-1682.394a4.338,4.338,0,0,1,3.093,1.262l.179.179.972-.84-.207-.208a5.668,5.668,0,0,0-4.037-1.662,5.635,5.635,0,0,0-4.117,1.583,5.737,5.737,0,0,0-1.583,4.148,5.377,5.377,0,0,0,5.7,5.609,5.666,5.666,0,0,0,4.037-1.664l.2-.2-.937-.885-.188.184a4.466,4.466,0,0,1-3.11,1.263,4.127,4.127,0,0,1-4.37-4.342,4.5,4.5,0,0,1,1.212-3.243A4.326,4.326,0,0,1-5208.309-1682.394Z" transform="translate(5311.251 1686.482)" fill="#fff"/>
      <path id="Caminho_297" data-name="Caminho 297" d="M-5194.154-1685.794l.055-.088v-.364h-1.4l-1.211,1.937-.042.127v.351h1.133Z" transform="translate(5312.832 1686.245)" fill="#fff"/>
      <path id="Caminho_298" data-name="Caminho 298" d="M-5196.208-1683.552l-4.979,11.1h1.474l1.145-2.593h5.946l1.162,2.593h1.473l-4.979-11.1Zm-1.8,7.2,2.416-5.472,2.414,5.472Z" transform="translate(5312.427 1686.492)" fill="#fff"/>
      <path id="Caminho_299" data-name="Caminho 299" d="M-5178.466-1677.513a3.435,3.435,0,0,0,.95-2.482,3.554,3.554,0,0,0-3.741-3.557h-4.916v11.1h1.359v-3.994h2.487l3.647,3.994h1.814l-3.754-4.074A3.547,3.547,0,0,0-5178.466-1677.513Zm-6.348-4.74h3.557a2.3,2.3,0,0,1,1.685.638,2.244,2.244,0,0,1,.62,1.6,2.087,2.087,0,0,1-2.4,2.247h-3.466Z" transform="translate(5313.803 1686.492)" fill="#fff"/>
      <rect id="Retângulo_909" data-name="Retângulo 909" width="1.345" height="11.098" transform="translate(141.94 2.939)" fill="#fff"/>
      <path id="Caminho_300" data-name="Caminho 300" d="M-5160.59-1683.7c-3.864,0-5.595,2.862-5.595,5.7a5.441,5.441,0,0,0,5.595,5.745,5.445,5.445,0,0,0,5.594-5.714h0a5.829,5.829,0,0,0-1.6-4.2A5.488,5.488,0,0,0-5160.59-1683.7Zm0,1.3a4.122,4.122,0,0,1,4.266,4.416,4.175,4.175,0,0,1-4.266,4.43,4.191,4.191,0,0,1-4.25-4.432,4.528,4.528,0,0,1,1.212-3.266A4.161,4.161,0,0,1-5160.59-1682.405Z" transform="translate(5315.635 1686.478)" fill="#fff"/>
      <path id="Caminho_301" data-name="Caminho 301" d="M-5146.06-1678.78l-.116-.022c-1.815-.338-3-.641-3-1.721,0-1.816,2.625-1.868,2.92-1.868a3.172,3.172,0,0,1,2.967,1.3l.141.226,1.142-.673-.162-.24a4.3,4.3,0,0,0-4.084-1.915,5,5,0,0,0-3.522,1.2,2.667,2.667,0,0,0-.761,1.992c0,2.176,2.191,2.6,4.126,2.981,1.968.377,3.258.718,3.247,1.992,0,1.769-2.16,1.958-3.089,1.958a3.876,3.876,0,0,1-3.359-1.764l-.122-.243-1.213.607.125.245a5.017,5.017,0,0,0,4.57,2.441c1.038,0,4.43-.233,4.448-3.228C-5141.808-1677.962-5144.067-1678.4-5146.06-1678.78Z" transform="translate(5317.03 1686.479)" fill="#fff"/>
    </g>
    <g id="Grupo_1051" data-name="Grupo 1051" transform="translate(-5312.125 -1675.643)">
      <g id="Grupo_1050" data-name="Grupo 1050">
        <path id="Caminho_302" data-name="Caminho 302" d="M-5284.07-1641.62a16.254,16.254,0,0,1-11.716,4.58c-11.45,0-16.295-7.883-16.338-15.9-.045-8.06,5.2-16.251,16.338-16.251a15.907,15.907,0,0,1,11.319,4.713l-3.875,3.743a10.6,10.6,0,0,0-7.444-2.906c-7.443,0-10.657,5.549-10.614,10.7.045,5.109,3,10.438,10.614,10.438a11.351,11.351,0,0,0,7.752-3.128Z" transform="translate(5312.125 1677.206)" fill="#fff"/>
        <path id="Caminho_303" data-name="Caminho 303" d="M-5261.533-1643.61h-16.119l-2.644,5.813h-6.3l13.829-30.829h6.343l13.829,30.829h-6.343Zm-8.059-18.542-5.726,13.124h11.452Z" transform="translate(5314.466 1677.258)" fill="#fff"/>
        <path id="Caminho_304" data-name="Caminho 304" d="M-5225.6-1660.13l-10.042,13.389h-1.145l-9.821-13.433v22.417h-5.813v-30.829h6.695l9.645,13.257,9.645-13.257h6.65v30.829h-5.813Z" transform="translate(5317.597 1677.262)" fill="#fff"/>
        <path id="Caminho_305" data-name="Caminho 305" d="M-5194.37-1643.61h-16.118l-2.644,5.813h-6.3l13.83-30.829h6.341l13.829,30.829h-6.341Zm-8.059-18.542-5.726,13.124h11.451Z" transform="translate(5320.622 1677.258)" fill="#fff"/>
        <path id="Caminho_306" data-name="Caminho 306" d="M-5155.814-1653.545a17.454,17.454,0,0,1-2.863,10.042l3.656,3.611-4.1,4.1-3.745-3.7a16,16,0,0,1-8.764,2.29c-10.967,0-15.81-7.971-15.855-15.987-.045-8.06,5.021-16.119,15.855-16.119S-5155.947-1661.473-5155.814-1653.545Zm-25.94.485c.089,5.065,3.436,10.482,10.129,10.482,6.958,0,10.305-5.858,10.086-11.142-.221-4.977-2.818-10.35-10.086-10.35S-5181.843-1658.258-5181.754-1653.061Z" transform="translate(5323.549 1677.195)" fill="#fff"/>
        <path id="Caminho_307" data-name="Caminho 307" d="M-5126.554-1668.586v17.661c0,9.117-5.594,13.785-13.344,13.785-7.4,0-13.7-4.492-13.7-13.785v-17.661h5.769v17.661c0,5.55,3.172,8.5,7.973,8.5s7.531-3.215,7.531-8.5v-17.661Z" transform="translate(5326.655 1677.262)" fill="#fff"/>
        <path id="Caminho_308" data-name="Caminho 308" d="M-5100.46-1642.885h-16.12l-2.643,5.813h-6.3l13.829-30.829h6.342l13.828,30.829h-6.342Zm-16.032-29.641c1.058-2.643,2.82-4.537,5.814-3.875,2.113.484,4.184,2.862,5.594.044l3.611,1.717c-1.322,3.48-3.567,4.537-5.682,3.964-2.246-.616-4.184-3.3-5.946,0Zm7.973,11.1-5.726,13.124h11.45Z" transform="translate(5329.228 1676.534)" fill="#fff"/>
      </g>
    </g>
  </g>
</svg>
