<svg xmlns="http://www.w3.org/2000/svg" width="201.496" height="91.383" viewBox="0 0 201.496 91.383">
  <g id="Grupo_1102" data-name="Grupo 1102" transform="translate(-633.67 -291)">
    <path id="Caminho_389" data-name="Caminho 389" d="M799.036,464.717h-21.7v5.243h8.283v22.229h5.243V469.96h8.179Z" transform="translate(-99.309 -120.085)" fill="#fff" fill-rule="evenodd"/>
    <path id="Caminho_390" data-name="Caminho 390" d="M654.535,469.96v-5.243H633.669v27.472h5.242V481.074h13.841v-5.242H638.911V469.96Z" transform="translate(0 -120.085)" fill="#fff" fill-rule="evenodd"/>
    <rect id="Retângulo_921" data-name="Retângulo 921" width="5.242" height="27.472" transform="translate(777.58 344.632)" fill="#fff"/>
    <path id="Caminho_391" data-name="Caminho 391" d="M1050.369,469.96v-5.243H1029.5v27.472h5.243V481.074h13.84v-5.242h-13.84V469.96Z" transform="translate(-273.628 -120.085)" fill="#fff" fill-rule="evenodd"/>
    <path id="Caminho_392" data-name="Caminho 392" d="M727.215,469.96v-5.243H706.349v27.472h20.866v-5.243H711.592v-5.872h12.163v-5.242H711.592V469.96Z" transform="translate(-50.242 -120.085)" fill="#fff" fill-rule="evenodd"/>
    <path id="Caminho_393" data-name="Caminho 393" d="M955.4,490.592l5.359.157L948.647,462.6l.085-.194h-5.688l.085.194-12.117,28.149,5.359-.157,2.943-6.711h13.147Zm-13.791-11.953,4.274-9.746,4.274,9.746Z" transform="translate(-205.544 -118.488)" fill="#fff" fill-rule="evenodd"/>
    <path id="Caminho_394" data-name="Caminho 394" d="M870.743,492.189h6.386L869.8,481.57a7.96,7.96,0,0,0,1.547-.528c1.179-.59,4.384-2.4,4.875-4.4s.885-6.625-1.081-8.808-4.194-3.113-8.073-3.113H853.747v27.472h5.243v-9.332h5.993ZM858.99,469.96h8.074s2.333-.144,2.765.977a9.3,9.3,0,0,1,.5,4.817c-.4,1.4-2.331,1.776-3.261,1.861H858.99Z" transform="translate(-152.133 -120.085)" fill="#fff" fill-rule="evenodd"/>
    <path id="Caminho_395" data-name="Caminho 395" d="M1080.958,381.046a5.819,5.819,0,1,1,5.819,5.819,5.819,5.819,0,0,1-5.819-5.819" transform="translate(-309.197 -58.223)" fill="#fff" fill-rule="evenodd"/>
    <path id="Caminho_396" data-name="Caminho 396" d="M1226.149,472.964a5.819,5.819,0,1,1,5.818,5.819,5.819,5.819,0,0,1-5.818-5.819" transform="translate(-409.563 -121.764)" fill="#fff" fill-rule="evenodd"/>
    <path id="Caminho_397" data-name="Caminho 397" d="M1234.979,296.819a5.819,5.819,0,1,1,5.819,5.819,5.819,5.819,0,0,1-5.819-5.819" transform="translate(-415.667)" fill="#fff" fill-rule="evenodd"/>
    <path id="Caminho_398" data-name="Caminho 398" d="M1129.258,362.092c-1.547-3.775-1.547-11.062,2.1-15.911s10.2-6.4,10.2-6.4-1.415-4.378-1.861-5.557a3.371,3.371,0,0,0-.624-1.063l-1.2-4.469c-8.218,2.451-12.032,8.008-14.312,13.553s-1.612,15.453.9,19.9,8.729,9.2,13.133,10.7l-.055-.041c.1.065.2.124.291.172C1136.729,372.053,1130.8,365.867,1129.258,362.092Z" transform="translate(-337.68 -26.058)" fill="#fff" fill-rule="evenodd"/>
    <path id="Caminho_399" data-name="Caminho 399" d="M1187.429,323.154c-3.444-4.907-12.154-9.678-17.253-9.949s-12.453,2.4-16.083,5.309l.067-.026c-.112.054-.217.106-.3.154,1.366-.434,9.768-2.1,13.782-1.367s10.154,4.652,12.28,10.334-.1,12.036-.1,12.036,4.451,1.164,5.685,1.424a3.369,3.369,0,0,0,1.231.046l4.411,1.4C1193.5,334.267,1190.874,328.06,1187.429,323.154Z" transform="translate(-359.588 -15.336)" fill="#fff" fill-rule="evenodd"/>
    <path id="Caminho_400" data-name="Caminho 400" d="M1192.862,392.553c-.5,1.345-4.349,8.995-7.39,11.714s-9.911,5.152-15.7,3.338-9.435-7.476-9.435-7.476-3.654,2.8-4.617,3.61a3.368,3.368,0,0,0-.792.943l-3.812,2.621c5.055,6.928,11.568,8.666,17.554,8.964s15.1-3.642,18.451-7.5,5.757-11.3,5.7-15.952l-.023.074C1192.822,392.769,1192.845,392.653,1192.862,392.553Z" transform="translate(-357.696 -70.2)" fill="#fff" fill-rule="evenodd"/>
    <path id="Caminho_401" data-name="Caminho 401" d="M1163.149,524.181a8.6,8.6,0,0,1-2.912-.51,7.7,7.7,0,0,1-2.6-1.567l1.687-2.022a8.5,8.5,0,0,0,1.827,1.15,4.889,4.889,0,0,0,2.05.427,2.492,2.492,0,0,0,1.381-.325,1.021,1.021,0,0,0,.492-.9V520.4a1.131,1.131,0,0,0-.1-.491,1.032,1.032,0,0,0-.39-.4,4.234,4.234,0,0,0-.8-.371,13.846,13.846,0,0,0-1.329-.389,16.3,16.3,0,0,1-1.787-.538,5.042,5.042,0,0,1-1.357-.732,2.974,2.974,0,0,1-.865-1.085,3.771,3.771,0,0,1-.306-1.614v-.037a3.786,3.786,0,0,1,.331-1.6,3.676,3.676,0,0,1,.93-1.233,4.186,4.186,0,0,1,1.431-.8,5.741,5.741,0,0,1,1.833-.278,7.763,7.763,0,0,1,2.625.427,7.605,7.605,0,0,1,2.2,1.224l-1.484,2.151a9.436,9.436,0,0,0-1.706-.937,4.367,4.367,0,0,0-1.669-.343,2.018,2.018,0,0,0-1.252.324.986.986,0,0,0-.417.807v.037a1.172,1.172,0,0,0,.12.547,1.092,1.092,0,0,0,.436.417,4.183,4.183,0,0,0,.866.353q.551.167,1.385.389a13.138,13.138,0,0,1,1.759.584,4.92,4.92,0,0,1,1.3.779,2.978,2.978,0,0,1,.8,1.067,3.623,3.623,0,0,1,.269,1.465v.037a4.048,4.048,0,0,1-.349,1.715,3.549,3.549,0,0,1-.977,1.261,4.418,4.418,0,0,1-1.5.779,6.492,6.492,0,0,1-1.925.269M1145.1,511.014h5.935a5.122,5.122,0,0,1,3.783,1.317,4.011,4.011,0,0,1,1.113,2.968v.037a4.069,4.069,0,0,1-.77,2.568,4.46,4.46,0,0,1-2.013,1.456l3.172,4.636h-3.338l-2.782-4.154h-2.244V524H1145.1Zm5.749,6.306a2.371,2.371,0,0,0,1.623-.5,1.7,1.7,0,0,0,.566-1.335v-.037a1.657,1.657,0,0,0-.594-1.391,2.624,2.624,0,0,0-1.651-.463h-2.837v3.728Z" transform="translate(-353.539 -151.96)" fill="#fff"/>
    <path id="Caminho_402" data-name="Caminho 402" d="M1073.4,572.384v-6.528h.536v6.528Zm15.371-5.345h-1.482v-.988h4.037v.988h-1.482v3.883h-1.072Zm-4.363,3.96a1.931,1.931,0,0,1-2.109-2.164v-2.784h1.072v2.756a1.287,1.287,0,0,0,.279.9,1,1,0,0,0,.772.3,1.015,1.015,0,0,0,.772-.292,1.228,1.228,0,0,0,.279-.877v-2.791h1.072V568.8a2.833,2.833,0,0,1-.149.968,1.827,1.827,0,0,1-.428.685,1.75,1.75,0,0,1-.675.411A2.717,2.717,0,0,1,1084.406,571Zm-4.885.007a2.52,2.52,0,0,1-1-.195,2.443,2.443,0,0,1-.793-.532,2.415,2.415,0,0,1-.522-.8,2.556,2.556,0,0,1-.188-.981v-.014a2.533,2.533,0,0,1,.71-1.778,2.427,2.427,0,0,1,.8-.543,2.6,2.6,0,0,1,1.03-.2,3.233,3.233,0,0,1,.623.056,2.584,2.584,0,0,1,.511.153,2.184,2.184,0,0,1,.425.237,2.867,2.867,0,0,1,.362.306l-.682.786a2.6,2.6,0,0,0-.581-.4,1.486,1.486,0,0,0-.665-.146,1.349,1.349,0,0,0-1.016.445,1.532,1.532,0,0,0-.292.484,1.649,1.649,0,0,0-.1.588v.014a1.678,1.678,0,0,0,.1.592,1.549,1.549,0,0,0,.289.487,1.337,1.337,0,0,0,1.019.452,1.5,1.5,0,0,0,.707-.153,2.727,2.727,0,0,0,.574-.418l.682.689a3.5,3.5,0,0,1-.39.362,2.334,2.334,0,0,1-.442.275,2.3,2.3,0,0,1-.525.174A3.164,3.164,0,0,1,1079.52,571.006Zm-12.832-4.955h3.709v.967h-2.637v1.051h2.324v.967h-2.324v1.886h-1.072Zm-3.827-.035h.988l2.088,4.906h-1.12l-.446-1.092h-2.06l-.445,1.092h-1.093Zm1.127,2.867-.647-1.58-.647,1.58Zm-7.829-2.833h2.227a1.922,1.922,0,0,1,1.42.494,1.505,1.505,0,0,1,.417,1.113v.014a1.527,1.527,0,0,1-.289.964,1.672,1.672,0,0,1-.755.546l1.19,1.74h-1.253l-1.044-1.559h-.842v1.559h-1.072Zm2.157,2.366a.889.889,0,0,0,.609-.188.635.635,0,0,0,.212-.5v-.014a.621.621,0,0,0-.222-.522.985.985,0,0,0-.619-.174h-1.065v1.4Zm-5.532-1.378H1051.3v-.988h4.036v.988h-1.482v3.883h-1.072Zm-6.632-.988h.989l2.282,3v-3h1.058v4.871h-.912l-2.359-3.1v3.1h-1.058Zm-3.549,4.955a2.658,2.658,0,0,1-1.037-.2,2.586,2.586,0,0,1-.818-.536,2.407,2.407,0,0,1-.535-.794,2.5,2.5,0,0,1-.192-.978v-.014a2.46,2.46,0,0,1,.195-.978,2.492,2.492,0,0,1,1.361-1.343,2.819,2.819,0,0,1,2.077,0,2.576,2.576,0,0,1,.818.536,2.389,2.389,0,0,1,.536.794,2.5,2.5,0,0,1,.191.977v.014a2.456,2.456,0,0,1-.195.977,2.492,2.492,0,0,1-1.36,1.343A2.685,2.685,0,0,1,1042.6,571.006Zm.013-.988a1.467,1.467,0,0,0,.592-.119,1.356,1.356,0,0,0,.462-.327,1.534,1.534,0,0,0,.3-.484,1.6,1.6,0,0,0,.108-.588v-.014a1.628,1.628,0,0,0-.108-.592,1.459,1.459,0,0,0-.776-.817,1.424,1.424,0,0,0-.592-.122,1.454,1.454,0,0,0-.595.118,1.358,1.358,0,0,0-.459.327,1.55,1.55,0,0,0-.3.484,1.6,1.6,0,0,0-.108.588v.014a1.627,1.627,0,0,0,.108.592,1.477,1.477,0,0,0,.307.487,1.492,1.492,0,0,0,.466.331A1.427,1.427,0,0,0,1042.617,570.018Zm-5.233.988a2.518,2.518,0,0,1-.995-.195,2.4,2.4,0,0,1-1.315-1.329,2.56,2.56,0,0,1-.188-.981v-.014a2.534,2.534,0,0,1,.71-1.778,2.425,2.425,0,0,1,.8-.543,2.605,2.605,0,0,1,1.03-.2,3.233,3.233,0,0,1,.623.056,2.589,2.589,0,0,1,.511.153,2.189,2.189,0,0,1,.424.237,2.869,2.869,0,0,1,.362.306l-.682.786a2.6,2.6,0,0,0-.582-.4,1.485,1.485,0,0,0-.665-.146,1.35,1.35,0,0,0-1.016.445,1.522,1.522,0,0,0-.292.484,1.638,1.638,0,0,0-.1.588v.014a1.667,1.667,0,0,0,.1.592,1.543,1.543,0,0,0,.289.487,1.338,1.338,0,0,0,1.019.452,1.492,1.492,0,0,0,.706-.153,2.722,2.722,0,0,0,.574-.418l.682.689a3.539,3.539,0,0,1-.39.362,2.334,2.334,0,0,1-.442.275,2.3,2.3,0,0,1-.525.174A3.161,3.161,0,0,1,1037.385,571.006Z" transform="translate(-277.349 -189.999)" fill="#fff"/>
  </g>
</svg>
