<svg id="REDES_-_FACEBOOK" data-name="REDES - FACEBOOK" xmlns="http://www.w3.org/2000/svg" width="61" height="62.625" viewBox="0 0 61 62.625">
  <text id="facebook" transform="translate(0 46.625)" fill="#fff" font-size="11" font-family="ArialMT, Arial"><tspan x="8.178" y="10">facebook</tspan></text>
  <g id="Grupo_12" data-name="Grupo 12" transform="translate(9.053)">
    <path id="Caminho_12" data-name="Caminho 12" d="M31.914,72.523H46.887a1.154,1.154,0,0,0,1.155-1.155h0a1.154,1.154,0,0,0-1.155-1.155H29.607a1.155,1.155,0,0,0-1.155,1.155V88.651a1.155,1.155,0,0,0,1.155,1.155h0a1.155,1.155,0,0,0,1.155-1.155V73.678A1.154,1.154,0,0,1,31.914,72.523Z" transform="translate(-28.452 -70.214)" fill="#fff"/>
    <path id="Caminho_13" data-name="Caminho 13" d="M61.026,103.943H46.054A1.153,1.153,0,0,0,44.9,105.1h0a1.153,1.153,0,0,0,1.155,1.153h17.28a1.154,1.154,0,0,0,1.155-1.153V87.816a1.155,1.155,0,0,0-1.155-1.155h0a1.155,1.155,0,0,0-1.155,1.155v14.973A1.154,1.154,0,0,1,61.026,103.943Z" transform="translate(-21.131 -62.893)" fill="#fff"/>
  </g>
  <path id="Caminho_14" data-name="Caminho 14" d="M49.84,80.414c.84-.027,1.679-.007,2.522-.009h.345V76.038c-.448-.045-.918-.108-1.387-.132-.86-.038-1.723-.081-2.585-.062a6.339,6.339,0,0,0-3.649,1.129,5.46,5.46,0,0,0-2.192,3.646,12.677,12.677,0,0,0-.153,1.874c-.025.98,0,1.96,0,2.941V85.8H38.558v4.877h4.155v12.26h5.077V90.7h4.142c.212-1.623.419-3.228.636-4.9-.332,0-.632,0-.931,0-1.176,0-3.88,0-3.88,0s.012-2.418.04-3.467C47.837,80.894,48.69,80.454,49.84,80.414Z" transform="translate(-14.703 -67.71)" fill="#fff" fill-rule="evenodd"/>
</svg>
