<svg id="REDES_-_PODCASTS" data-name="REDES - PODCASTS" xmlns="http://www.w3.org/2000/svg" width="61" height="62.37" viewBox="0 0 61 62.37">
  <text id="podcasts" transform="translate(0 46.37)" fill="#fff" font-size="11" font-family="ArialMT, Arial"><tspan x="8.487" y="10">podcasts</tspan></text>
  <g id="Grupo_19" data-name="Grupo 19" transform="translate(8.603)">
    <path id="Caminho_22" data-name="Caminho 22" d="M132.831,115.523H147.8a1.155,1.155,0,0,0,1.155-1.155h0a1.155,1.155,0,0,0-1.155-1.155H130.524a1.154,1.154,0,0,0-1.155,1.155v17.282a1.154,1.154,0,0,0,1.155,1.155h0a1.154,1.154,0,0,0,1.153-1.155V116.678A1.155,1.155,0,0,1,132.831,115.523Z" transform="translate(-129.369 -113.214)" fill="#fff"/>
    <path id="Caminho_23" data-name="Caminho 23" d="M161.942,146.943H146.97a1.154,1.154,0,0,0-1.155,1.155h0a1.154,1.154,0,0,0,1.155,1.153h17.282a1.154,1.154,0,0,0,1.155-1.153V130.816a1.155,1.155,0,0,0-1.155-1.155h0a1.155,1.155,0,0,0-1.155,1.155v14.973A1.155,1.155,0,0,1,161.942,146.943Z" transform="translate(-122.049 -105.893)" fill="#fff"/>
  </g>
  <g id="Grupo_24" data-name="Grupo 24" transform="translate(15.873 9.42)">
    <path id="Caminho_24" data-name="Caminho 24" d="M152.047,133.519a7.433,7.433,0,0,0,2.194-5.293.8.8,0,0,0-1.6,0,5.889,5.889,0,0,1-5.889,5.889h-.087a5.889,5.889,0,0,1-5.89-5.889.8.8,0,1,0-1.6,0,7.489,7.489,0,0,0,6.731,7.449v5.461h-3.551a.8.8,0,0,0,0,1.6h8.7a.8.8,0,1,0,0-1.6H147.51v-5.461A7.43,7.43,0,0,0,152.047,133.519Z" transform="translate(-132.203 -116.309)" fill="#fff"/>
    <path id="Caminho_25" data-name="Caminho 25" d="M145.774,119.733h-.087a4.306,4.306,0,0,0-4.306,4.306v7.61a4.306,4.306,0,0,0,4.306,4.306h.087a4.306,4.306,0,0,0,4.306-4.306v-7.61A4.306,4.306,0,0,0,145.774,119.733ZM142.41,128.5a.383.383,0,1,1,.383-.383A.384.384,0,0,1,142.41,128.5Zm0-1.581a.383.383,0,1,1,.383-.383A.383.383,0,0,1,142.41,126.924Zm0-1.579a.383.383,0,1,1,.383-.383A.384.384,0,0,1,142.41,125.344Zm0-1.579a.383.383,0,1,1,.383-.383A.384.384,0,0,1,142.41,123.765Zm.845,3.974a.383.383,0,1,1,.384-.383A.384.384,0,0,1,143.255,127.739Zm0-1.581a.383.383,0,1,1,.384-.383A.383.383,0,0,1,143.255,126.158Zm0-1.579a.383.383,0,1,1,.384-.383A.384.384,0,0,1,143.255,124.578Zm0-1.579a.383.383,0,1,1,.384-.383A.384.384,0,0,1,143.255,123Zm.815,5.506a.383.383,0,1,1,.383-.383A.383.383,0,0,1,144.07,128.5Zm0-1.581a.383.383,0,1,1,.383-.383A.382.382,0,0,1,144.07,126.924Zm0-1.579a.383.383,0,1,1,.383-.383A.383.383,0,0,1,144.07,125.344Zm0-1.579a.383.383,0,1,1,.383-.383A.383.383,0,0,1,144.07,123.765Zm0-1.581a.383.383,0,1,1,.383-.383A.382.382,0,0,1,144.07,122.184Zm.845,5.555a.383.383,0,1,1,.383-.383A.384.384,0,0,1,144.916,127.739Zm0-1.581a.383.383,0,1,1,.383-.383A.383.383,0,0,1,144.916,126.158Zm0-1.579a.383.383,0,1,1,.383-.383A.384.384,0,0,1,144.916,124.578Zm0-1.579a.383.383,0,1,1,.383-.383A.384.384,0,0,1,144.916,123Zm0-1.581a.383.383,0,1,1,.383-.383A.383.383,0,0,1,144.916,121.418Zm.814,7.087a.383.383,0,1,1,.383-.383A.384.384,0,0,1,145.729,128.5Zm0-1.581a.383.383,0,1,1,.383-.383A.383.383,0,0,1,145.729,126.924Zm0-1.579a.383.383,0,1,1,.383-.383A.384.384,0,0,1,145.729,125.344Zm0-1.579a.383.383,0,1,1,.383-.383A.384.384,0,0,1,145.729,123.765Zm0-1.581a.383.383,0,1,1,.383-.383A.383.383,0,0,1,145.729,122.184Zm.847,5.555a.383.383,0,1,1,.383-.383A.383.383,0,0,1,146.576,127.739Zm0-1.581a.383.383,0,1,1,.383-.383A.382.382,0,0,1,146.576,126.158Zm0-1.579a.383.383,0,1,1,.383-.383A.383.383,0,0,1,146.576,124.578Zm0-1.579a.383.383,0,1,1,.383-.383A.383.383,0,0,1,146.576,123Zm0-1.581a.383.383,0,1,1,.383-.383A.382.382,0,0,1,146.576,121.418Zm.814,7.087a.383.383,0,1,1,.383-.383A.383.383,0,0,1,147.39,128.5Zm0-1.581a.383.383,0,1,1,.383-.383A.382.382,0,0,1,147.39,126.924Zm0-1.579a.383.383,0,1,1,.383-.383A.383.383,0,0,1,147.39,125.344Zm0-1.579a.383.383,0,1,1,.383-.383A.383.383,0,0,1,147.39,123.765Zm0-1.581a.383.383,0,1,1,.383-.383A.382.382,0,0,1,147.39,122.184Zm.845,5.555a.383.383,0,1,1,.383-.383A.384.384,0,0,1,148.235,127.739Zm0-1.581a.383.383,0,1,1,.383-.383A.383.383,0,0,1,148.235,126.158Zm0-1.579a.383.383,0,1,1,.383-.383A.384.384,0,0,1,148.235,124.578Zm0-1.579a.383.383,0,1,1,.383-.383A.384.384,0,0,1,148.235,123Zm.814,5.506a.383.383,0,1,1,.383-.383A.384.384,0,0,1,149.049,128.5Zm0-1.581a.383.383,0,1,1,.383-.383A.383.383,0,0,1,149.049,126.924Zm0-1.579a.383.383,0,1,1,.383-.383A.384.384,0,0,1,149.049,125.344Zm0-1.579a.383.383,0,1,1,.383-.383A.384.384,0,0,1,149.049,123.765Z" transform="translate(-131.223 -119.733)" fill="#fff"/>
    <g id="Grupo_21" data-name="Grupo 21" transform="translate(21.113 0.725)">
      <g id="Grupo_20" data-name="Grupo 20">
        <rect id="Retângulo_40" data-name="Retângulo 40" width="0.257" height="0.825" transform="translate(7.586 4.947)" fill="#fff"/>
        <rect id="Retângulo_41" data-name="Retângulo 41" width="0.257" height="1.246" transform="translate(7 4.636)" fill="#fff"/>
        <rect id="Retângulo_42" data-name="Retângulo 42" width="0.257" height="1.777" transform="translate(6.413 4.471)" fill="#fff"/>
        <rect id="Retângulo_43" data-name="Retângulo 43" width="0.257" height="2.199" transform="translate(5.827 4.233)" fill="#fff"/>
        <rect id="Retângulo_44" data-name="Retângulo 44" width="0.257" height="2.62" transform="translate(5.259 4.013)" fill="#fff"/>
        <rect id="Retângulo_45" data-name="Retângulo 45" width="0.257" height="2.95" transform="translate(4.673 3.885)" fill="#fff"/>
        <rect id="Retângulo_46" data-name="Retângulo 46" width="0.257" height="2.62" transform="translate(4.086 3.995)" fill="#fff"/>
        <rect id="Retângulo_47" data-name="Retângulo 47" width="0.257" height="4.123" transform="translate(3.5 3.317)" fill="#fff"/>
        <rect id="Retângulo_48" data-name="Retângulo 48" width="0.257" height="3.72" transform="translate(2.913 3.463)" fill="#fff"/>
        <rect id="Retângulo_49" data-name="Retângulo 49" width="0.257" height="2.565" transform="translate(2.327 4.031)" fill="#fff"/>
        <rect id="Retângulo_50" data-name="Retângulo 50" width="0.257" height="8.759" transform="translate(1.741 0.935)" fill="#fff"/>
        <rect id="Retângulo_51" data-name="Retângulo 51" width="0.257" height="10.646" transform="translate(1.173)" fill="#fff"/>
        <rect id="Retângulo_52" data-name="Retângulo 52" width="0.257" height="8.081" transform="translate(0.586 1.264)" fill="#fff"/>
        <rect id="Retângulo_53" data-name="Retângulo 53" width="0.257" height="8.759" transform="translate(0 1.044)" fill="#fff"/>
      </g>
    </g>
    <g id="Grupo_23" data-name="Grupo 23" transform="translate(0 0.725)">
      <g id="Grupo_22" data-name="Grupo 22">
        <rect id="Retângulo_54" data-name="Retângulo 54" width="0.257" height="0.825" transform="translate(0 4.874)" fill="#fff"/>
        <rect id="Retângulo_55" data-name="Retângulo 55" width="0.257" height="1.246" transform="translate(0.586 4.764)" fill="#fff"/>
        <rect id="Retângulo_56" data-name="Retângulo 56" width="0.257" height="1.777" transform="translate(1.173 4.398)" fill="#fff"/>
        <rect id="Retângulo_57" data-name="Retângulo 57" width="0.257" height="2.199" transform="translate(1.759 4.214)" fill="#fff"/>
        <rect id="Retângulo_58" data-name="Retângulo 58" width="0.257" height="2.62" transform="translate(2.327 4.013)" fill="#fff"/>
        <rect id="Retângulo_59" data-name="Retângulo 59" width="0.257" height="2.95" transform="translate(2.913 3.811)" fill="#fff"/>
        <rect id="Retângulo_60" data-name="Retângulo 60" width="0.257" height="2.62" transform="translate(3.5 4.031)" fill="#fff"/>
        <rect id="Retângulo_61" data-name="Retângulo 61" width="0.257" height="4.123" transform="translate(4.086 3.207)" fill="#fff"/>
        <rect id="Retângulo_62" data-name="Retângulo 62" width="0.257" height="3.72" transform="translate(4.673 3.463)" fill="#fff"/>
        <rect id="Retângulo_63" data-name="Retângulo 63" width="0.257" height="2.565" transform="translate(5.259 4.05)" fill="#fff"/>
        <rect id="Retângulo_64" data-name="Retângulo 64" width="0.257" height="8.759" transform="translate(5.845 0.953)" fill="#fff"/>
        <rect id="Retângulo_65" data-name="Retângulo 65" width="0.257" height="10.646" transform="translate(6.413)" fill="#fff"/>
        <rect id="Retângulo_66" data-name="Retângulo 66" width="0.257" height="8.081" transform="translate(7 1.301)" fill="#fff"/>
        <rect id="Retângulo_67" data-name="Retângulo 67" width="0.257" height="8.759" transform="translate(7.586 0.843)" fill="#fff"/>
      </g>
    </g>
  </g>
</svg>
