<svg id="REDES_-_YOUTUBE" data-name="REDES - YOUTUBE" xmlns="http://www.w3.org/2000/svg" width="61" height="62.408" viewBox="0 0 61 62.408">
  <text id="youtube" transform="translate(0 46.408)" fill="#fff" font-size="11" font-family="ArialMT, Arial"><tspan x="10.928" y="10">youtube</tspan></text>
  <g id="Grupo_26" data-name="Grupo 26" transform="translate(8.658 0)">
    <path id="Caminho_26" data-name="Caminho 26" d="M233.758,115.525h15.009a1.157,1.157,0,0,0,1.158-1.155h0a1.157,1.157,0,0,0-1.158-1.156H231.443a1.157,1.157,0,0,0-1.158,1.156v17.3a1.157,1.157,0,0,0,1.158,1.155h0a1.157,1.157,0,0,0,1.158-1.155V116.681A1.156,1.156,0,0,1,233.758,115.525Z" transform="translate(-230.285 -113.214)" fill="#fff"/>
    <path id="Caminho_27" data-name="Caminho 27" d="M262.938,146.971H247.93a1.157,1.157,0,0,0-1.158,1.156h0a1.157,1.157,0,0,0,1.158,1.155h17.324a1.157,1.157,0,0,0,1.158-1.155v-17.3a1.157,1.157,0,0,0-1.158-1.156h0a1.157,1.157,0,0,0-1.158,1.156v14.986A1.156,1.156,0,0,1,262.938,146.971Z" transform="translate(-222.947 -105.887)" fill="#fff"/>
  </g>
  <g id="Grupo_29" data-name="Grupo 29" transform="translate(17.483 12.73)">
    <g id="Grupo_28" data-name="Grupo 28">
      <g id="Grupo_27" data-name="Grupo 27">
        <path id="Caminho_28" data-name="Caminho 28" d="M262.106,127.6a5.581,5.581,0,0,0-5.585-5.578H242.03a5.581,5.581,0,0,0-5.585,5.578v6.78a5.581,5.581,0,0,0,5.585,5.577h14.49a5.581,5.581,0,0,0,5.585-5.577Zm-9.14,3.731-5.779,3.165c-.251.136-.477-.046-.477-.331v-6.5c0-.289.233-.47.484-.327l5.818,3.331A.377.377,0,0,1,252.965,131.332Z" transform="translate(-236.445 -122.023)" fill="#fff"/>
      </g>
    </g>
  </g>
</svg>
