<svg xmlns="http://www.w3.org/2000/svg" width="27.15" height="22.093" viewBox="0 0 27.15 22.093">
  <path id="Caminho_577" data-name="Caminho 577" d="M142.59,94.356a5.6,5.6,0,0,1-5.191-3.871,5.579,5.579,0,0,0,2.391-.07.873.873,0,0,0,.08-.038,5.572,5.572,0,0,1-3.622-2.56,5.419,5.419,0,0,1-.818-2.966,5.533,5.533,0,0,0,2.482.677,5.606,5.606,0,0,1-2.3-3.384,5.535,5.535,0,0,1,.6-4.041,15.961,15.961,0,0,0,11.506,5.83c-.033-.221-.066-.415-.089-.61a5.427,5.427,0,0,1,.813-3.648,5.368,5.368,0,0,1,3.784-2.522,5.439,5.439,0,0,1,4.883,1.555.283.283,0,0,0,.3.089,11.255,11.255,0,0,0,3.244-1.249.774.774,0,0,1,.075-.038.09.09,0,0,1,.035,0,5.709,5.709,0,0,1-2.387,3.035,10.715,10.715,0,0,0,3.106-.835l.023.024c-.214.279-.419.565-.641.838a10.875,10.875,0,0,1-2.028,1.925.191.191,0,0,0-.092.176,15.422,15.422,0,0,1-.1,2.477,16.388,16.388,0,0,1-1.437,4.967,16.088,16.088,0,0,1-3.014,4.4,14.915,14.915,0,0,1-7.668,4.271,16.486,16.486,0,0,1-3.106.369,15.739,15.739,0,0,1-8.927-2.394c-.035-.02-.069-.046-.132-.085a11.274,11.274,0,0,0,5.58-.77A11,11,0,0,0,142.59,94.356Z" transform="translate(-134.357 -77.068)" fill="#919191" fill-rule="evenodd"/>
</svg>
