<svg xmlns="http://www.w3.org/2000/svg" width="111.148" height="12.034" viewBox="0 0 111.148 12.034">
  <g id="Group_100" data-name="Group 100" transform="translate(-92.817 -1461.313)">
    <text id="SITE_DESENVOLVIDO_POR" data-name="SITE DESENVOLVIDO POR" transform="translate(92.817 1464.348)" fill="#2d83b6" font-size="5" font-family="SegoeUI, Segoe UI"><tspan x="0" y="5">SITE DESENVOLVIDO POR</tspan></text>
    <g id="Group_97" data-name="Group 97" transform="translate(163.816 1461.313)">
      <g id="Group_92" data-name="Group 92" transform="translate(0)">
        <path id="Path_72" data-name="Path 72" d="M183.353,1467.092a29.474,29.474,0,0,0-1.43-4.073,3.306,3.306,0,0,0-1.768-1.561,2.479,2.479,0,0,0-2.306.338c-1.107.733-3.5,5.147-4.106,6.237-.352.629-2.157,3.025-.093,3.7,2.19.714,6.426.266,8.333-.063C183.122,1471.471,184.592,1471.341,183.353,1467.092Zm-2.844,1.959a8.741,8.741,0,0,1-2.934-.221c-.423-.071-.221-.5-.045-.581a2.014,2.014,0,0,1,.789.031,4.24,4.24,0,0,0,1.688.067c.348-.074.8-.131.376-1.491a9.856,9.856,0,0,0-.48-1.3,1.035,1.035,0,0,0-.558-.487.73.73,0,0,0-.7.131,9.909,9.909,0,0,0-1.2,2.053c-.059.121-.855,2.005-1.1,2.571,0,0-.208.639-.729.479s-.347-.53-.347-.53a13.443,13.443,0,0,1,.651-1.387,25.245,25.245,0,0,1,2.442-4.05,1.2,1.2,0,0,1,1.112-.2,1.6,1.6,0,0,1,.88.729,14.379,14.379,0,0,1,.753,1.952C181.768,1468.854,181.058,1468.939,180.509,1469.051Z" transform="translate(-172.282 -1461.313)" fill="#fff"/>
        <g id="Group_90" data-name="Group 90" transform="translate(0.394 0.066)">
          <path id="Path_73" data-name="Path 73" d="M176.9,1475.723a11.222,11.222,0,0,1-3.269-.382,1.351,1.351,0,0,1-.929-.788c-.008-.021-.015-.042-.02-.063a1.242,1.242,0,0,0,1.109,1.484,15.935,15.935,0,0,0,5.439-.353C178.482,1475.682,177.682,1475.723,176.9,1475.723Z" transform="translate(-172.676 -1464.946)" fill="#fff" opacity="0.1"/>
          <path id="Path_74" data-name="Path 74" d="M174.313,1467.734c.8-1.44,2.92-5.266,3.952-5.949a3.109,3.109,0,0,1,.769-.378,2.491,2.491,0,0,0-1.795.666c-.818.693-2.185,3.868-2.932,5.671Z" transform="translate(-173.118 -1461.404)" fill="#fff" opacity="0.1"/>
        </g>
        <g id="Group_91" data-name="Group 91" transform="translate(0 0.241)">
          <path id="Path_75" data-name="Path 75" d="M184.867,1463.089a28.424,28.424,0,0,1,1.384,3.914,24.372,24.372,0,0,0-.492-3.151,3.309,3.309,0,0,0-1.427-1.878,2.645,2.645,0,0,0-.925-.329A3.454,3.454,0,0,1,184.867,1463.089Z" transform="translate(-175.187 -1461.644)" fill="#fff" opacity="0.2"/>
          <path id="Path_76" data-name="Path 76" d="M173.392,1469.927c.067-.109.126-.2.165-.273s.1-.185.168-.3c.26-.468.659-1.189,1.116-1.972-.5.579-.914,1.068-1.14,1.333-.429.5-2.346,2.216-1.211,3.32A5.327,5.327,0,0,1,173.392,1469.927Z" transform="translate(-172.136 -1463.196)" fill="#fff" opacity="0.2"/>
          <path id="Path_77" data-name="Path 77" d="M184.355,1475.416l-.089.015c-.781.135-1.938.287-3.183.374.937.1,1.788.15,2.4.167.718.019,1.557.088,2-.92A2.793,2.793,0,0,1,184.355,1475.416Z" transform="translate(-174.558 -1465.273)" fill="#fff" opacity="0.2"/>
        </g>
      </g>
      <g id="Group_96" data-name="Group 96" transform="translate(13.276 2.407)">
        <g id="Group_94" data-name="Group 94" transform="translate(0.044)">
          <g id="Group_93" data-name="Group 93">
            <path id="Path_78" data-name="Path 78" d="M192.3,1467.265l-.088-.335a.119.119,0,0,0-.115-.088h-.7a.119.119,0,0,0-.115.088l-.09.336a.119.119,0,0,1-.115.088h-.556a.119.119,0,0,1-.113-.155l.813-2.5a.118.118,0,0,1,.112-.082h.812a.118.118,0,0,1,.112.082l.823,2.5a.118.118,0,0,1-.112.155h-.551A.119.119,0,0,1,192.3,1467.265Zm-.417-1.028a.119.119,0,0,0,.115-.149l-.079-.3c-.028-.1-.061-.228-.1-.386s-.065-.271-.077-.339c-.011.063-.034.168-.066.313q-.044.193-.18.711a.119.119,0,0,0,.115.149Z" transform="translate(-190.4 -1464.614)" fill="#fff"/>
            <path id="Path_79" data-name="Path 79" d="M194.548,1467.239v-2.491a.118.118,0,0,1,.118-.119h.5a.118.118,0,0,1,.118.119v1.9a.119.119,0,0,0,.119.119h.813a.118.118,0,0,1,.119.118v.358a.119.119,0,0,1-.119.119h-1.551A.118.118,0,0,1,194.548,1467.239Z" transform="translate(-191.523 -1464.618)" fill="#fff"/>
            <path id="Path_80" data-name="Path 80" d="M198.608,1467.357h-.5a.119.119,0,0,1-.118-.119v-1.888a.118.118,0,0,0-.118-.118h-.43a.118.118,0,0,1-.118-.119v-.365a.118.118,0,0,1,.118-.119h1.831a.118.118,0,0,1,.118.119v.365a.118.118,0,0,1-.118.119h-.427a.118.118,0,0,0-.118.118v1.888A.119.119,0,0,1,198.608,1467.357Z" transform="translate(-192.274 -1464.618)" fill="#fff"/>
            <path id="Path_81" data-name="Path 81" d="M202.194,1467.357h-1.382a.119.119,0,0,1-.119-.119v-2.491a.119.119,0,0,1,.119-.119h1.382a.119.119,0,0,1,.119.119v.354a.118.118,0,0,1-.119.118h-.645a.119.119,0,0,0-.118.119v.192a.119.119,0,0,0,.118.119h.581a.118.118,0,0,1,.118.118v.354a.118.118,0,0,1-.118.119h-.581a.119.119,0,0,0-.118.118v.279a.119.119,0,0,0,.118.118h.645a.119.119,0,0,1,.119.119v.363A.119.119,0,0,1,202.194,1467.357Z" transform="translate(-193.186 -1464.618)" fill="#fff"/>
            <path id="Path_82" data-name="Path 82" d="M204.306,1466.483v.756a.119.119,0,0,1-.119.119h-.5a.119.119,0,0,1-.118-.119v-2.491a.119.119,0,0,1,.118-.119h.775q1.113,0,1.112.807a.778.778,0,0,1-.364.672.118.118,0,0,0-.031.163l.6.9a.119.119,0,0,1-.1.185h-.546a.118.118,0,0,1-.1-.059l-.511-.875a.117.117,0,0,0-.1-.058h0A.118.118,0,0,0,204.306,1466.483Zm0-.672h.138q.386,0,.386-.341,0-.282-.379-.282h-.145Z" transform="translate(-193.964 -1464.618)" fill="#fff"/>
            <path id="Path_83" data-name="Path 83" d="M209.594,1467.357h-.776a.118.118,0,0,1-.105-.064l-.963-1.858h-.017q.035.453.035.692v1.111a.118.118,0,0,1-.118.119h-.416a.119.119,0,0,1-.118-.119v-2.491a.119.119,0,0,1,.118-.119h.773a.12.12,0,0,1,.105.063l.959,1.833h.012q-.026-.413-.026-.663v-1.115a.119.119,0,0,1,.118-.119h.42a.118.118,0,0,1,.118.119v2.491A.118.118,0,0,1,209.594,1467.357Z" transform="translate(-194.924 -1464.618)" fill="#fff"/>
            <path id="Path_84" data-name="Path 84" d="M213.043,1467.265l-.088-.335a.118.118,0,0,0-.115-.088h-.7a.118.118,0,0,0-.115.088l-.091.336a.118.118,0,0,1-.114.088h-.556a.119.119,0,0,1-.112-.155l.813-2.5a.118.118,0,0,1,.112-.082h.812a.118.118,0,0,1,.112.082l.823,2.5a.118.118,0,0,1-.112.155h-.551A.119.119,0,0,1,213.043,1467.265Zm-.418-1.028a.118.118,0,0,0,.115-.149l-.078-.3c-.028-.1-.061-.228-.1-.386s-.065-.271-.077-.339c-.012.063-.034.168-.066.313q-.044.193-.18.711a.119.119,0,0,0,.115.149Z" transform="translate(-196.014 -1464.614)" fill="#fff"/>
            <path id="Path_85" data-name="Path 85" d="M216.3,1467.357h-.5a.119.119,0,0,1-.118-.119v-1.888a.118.118,0,0,0-.119-.118h-.429a.118.118,0,0,1-.118-.119v-.365a.118.118,0,0,1,.118-.119h1.831a.118.118,0,0,1,.118.119v.365a.118.118,0,0,1-.118.119h-.427a.118.118,0,0,0-.118.118v1.888A.119.119,0,0,1,216.3,1467.357Z" transform="translate(-197.062 -1464.618)" fill="#fff"/>
            <path id="Path_86" data-name="Path 86" d="M218.385,1467.239v-2.491a.119.119,0,0,1,.119-.119h.5a.119.119,0,0,1,.119.119v2.491a.119.119,0,0,1-.119.119h-.5A.119.119,0,0,1,218.385,1467.239Z" transform="translate(-197.974 -1464.618)" fill="#fff"/>
            <path id="Path_87" data-name="Path 87" d="M221.739,1464.629h.57a.119.119,0,0,1,.113.156l-.816,2.491a.118.118,0,0,1-.113.082h-.7a.118.118,0,0,1-.112-.082l-.813-2.491a.119.119,0,0,1,.113-.156h.574a.119.119,0,0,1,.115.088l.348,1.295a4.171,4.171,0,0,1,.127.642q.013-.13.053-.326c.026-.131.049-.233.069-.309l.355-1.3A.119.119,0,0,1,221.739,1464.629Z" transform="translate(-198.375 -1464.618)" fill="#fff"/>
            <path id="Path_88" data-name="Path 88" d="M225.4,1467.265l-.088-.335a.118.118,0,0,0-.115-.088h-.7a.118.118,0,0,0-.115.088l-.091.336a.118.118,0,0,1-.114.088h-.557a.119.119,0,0,1-.112-.155l.813-2.5a.118.118,0,0,1,.112-.082h.812a.118.118,0,0,1,.112.082l.823,2.5a.118.118,0,0,1-.112.155h-.551A.119.119,0,0,1,225.4,1467.265Zm-.418-1.028a.118.118,0,0,0,.115-.149l-.078-.3c-.028-.1-.061-.228-.1-.386s-.065-.271-.077-.339c-.012.063-.034.168-.066.313q-.044.193-.18.711a.119.119,0,0,0,.115.149Z" transform="translate(-199.359 -1464.614)" fill="#fff"/>
          </g>
        </g>
        <g id="Group_95" data-name="Group 95" transform="translate(0 3.758)">
          <path id="Path_89" data-name="Path 89" d="M192.655,1471.126a1.412,1.412,0,0,1-.376,1.052,1.447,1.447,0,0,1-1.058.369h-.762a.12.12,0,0,1-.12-.12v-2.487a.121.121,0,0,1,.12-.12h.823a1.425,1.425,0,0,1,1.015.336A1.267,1.267,0,0,1,192.655,1471.126Zm-.765.026a.871.871,0,0,0-.148-.556.55.55,0,0,0-.451-.181H191.2a.12.12,0,0,0-.12.12v1.287a.12.12,0,0,0,.12.12h.044a.594.594,0,0,0,.492-.195A.943.943,0,0,0,191.89,1471.152Z" transform="translate(-190.339 -1469.781)" fill="#fff"/>
          <path id="Path_90" data-name="Path 90" d="M194.184,1472.427v-2.487a.121.121,0,0,1,.12-.12h.5a.121.121,0,0,1,.12.12v2.487a.12.12,0,0,1-.12.12h-.5A.12.12,0,0,1,194.184,1472.427Z" transform="translate(-191.38 -1469.781)" fill="#fff"/>
          <path id="Path_91" data-name="Path 91" d="M197.186,1470.936h.937a.12.12,0,0,1,.12.12v1.262a.121.121,0,0,1-.084.116,3.3,3.3,0,0,1-.971.136,1.276,1.276,0,0,1-.975-.365,1.466,1.466,0,0,1-.344-1.043,1.372,1.372,0,0,1,.377-1.028,1.449,1.449,0,0,1,1.056-.368,2.356,2.356,0,0,1,.486.048,2.286,2.286,0,0,1,.28.077.121.121,0,0,1,.072.16l-.141.35a.12.12,0,0,1-.154.068,1.466,1.466,0,0,0-.54-.1.615.615,0,0,0-.5.21.908.908,0,0,0-.177.6.92.92,0,0,0,.16.583.554.554,0,0,0,.46.2,1.432,1.432,0,0,0,.2-.013.12.12,0,0,0,.1-.12v-.206a.12.12,0,0,0-.12-.12h-.247a.121.121,0,0,1-.12-.121v-.328A.12.12,0,0,1,197.186,1470.936Z" transform="translate(-191.836 -1469.766)" fill="#fff"/>
          <path id="Path_92" data-name="Path 92" d="M199.887,1472.427v-2.487a.121.121,0,0,1,.12-.12h.5a.121.121,0,0,1,.12.12v2.487a.12.12,0,0,1-.12.12h-.5A.12.12,0,0,1,199.887,1472.427Z" transform="translate(-192.923 -1469.781)" fill="#fff"/>
          <path id="Path_93" data-name="Path 93" d="M202.721,1472.548h-.5a.12.12,0,0,1-.12-.12v-1.885a.12.12,0,0,0-.12-.12h-.425a.12.12,0,0,1-.12-.12v-.362a.121.121,0,0,1,.12-.12h1.826a.12.12,0,0,1,.12.12v.362a.12.12,0,0,1-.12.12h-.423a.12.12,0,0,0-.12.12v1.885A.12.12,0,0,1,202.721,1472.548Z" transform="translate(-193.343 -1469.781)" fill="#fff"/>
          <path id="Path_94" data-name="Path 94" d="M206.365,1472.454l-.088-.332a.12.12,0,0,0-.116-.09h-.7a.12.12,0,0,0-.116.089l-.09.333a.12.12,0,0,1-.116.089h-.552a.12.12,0,0,1-.115-.158l.812-2.5a.121.121,0,0,1,.115-.083h.809a.121.121,0,0,1,.115.083l.822,2.5a.12.12,0,0,1-.115.158h-.547A.119.119,0,0,1,206.365,1472.454Zm-.42-1.026a.121.121,0,0,0,.117-.151l-.078-.3c-.028-.1-.061-.228-.1-.386s-.065-.271-.077-.34c-.011.063-.034.168-.066.314q-.044.192-.179.708a.121.121,0,0,0,.117.152Z" transform="translate(-194.162 -1469.776)" fill="#fff"/>
          <path id="Path_95" data-name="Path 95" d="M208.612,1472.427v-2.487a.121.121,0,0,1,.12-.12h.5a.121.121,0,0,1,.12.12v1.892a.12.12,0,0,0,.12.12h.81a.12.12,0,0,1,.12.12v.354a.12.12,0,0,1-.12.12h-1.547A.12.12,0,0,1,208.612,1472.427Z" transform="translate(-195.285 -1469.781)" fill="#fff"/>
        </g>
      </g>
    </g>
  </g>
</svg>
