<svg xmlns="http://www.w3.org/2000/svg" width="159.992" height="53.334" viewBox="0 0 159.992 53.334">
  <g id="download-svg" data-name="download-svg" transform="translate(18372.531 6489.213)">
    <text id="baixar-edital-svg"   data-name="Baixar Edital SVG" transform="translate(-18308.617 -6468.13)" fill="#125488" font-size="15" font-family="Anton-Regular, Anton"><tspan x="0" y="18">BAIXAR EDITAL</tspan></text>
    <path id="path-SVG-download-1" data-name="path-SVG-download-1" d="M406.068,4158.179h41.893v-20.531H406.068Zm28.735-17h8.54v3.124h-5.416v2.912h4.3v3.126h-4.3v4.474H434.8Zm-12.321,0h4.964a4.594,4.594,0,0,1,4.589,4.589v4.415a4.594,4.594,0,0,1-4.589,4.588h-4.964Zm-12,0h4.972a4.581,4.581,0,1,1,0,9.162h-1.847v4.474h-3.124Z" transform="translate(-18769.242 -10604.575)" fill="#015c92"/>
    <path id="path-SVG-download-2" data-name="path-SVG-download-2" d="M429.417,4150.353v-4.415a1.468,1.468,0,0,0-1.465-1.465h-1.838v7.343h1.838a1.467,1.467,0,0,0,1.465-1.464Z" transform="translate(-18769.748 -10604.749)" fill="#015c92"/>
    <path id="path-SVG-download-3" data-name="path-SVG-download-3" d="M402.7,4160.727v-26.78h33.663v-19.159H411.2v14.726h-14.73v38.608h39.9v-7.395Zm12.316-34.2h14.316v3.126H415.018Z" transform="translate(-18769 -10604)" fill="#015c92"/>
    <path id="path-SVG-download-4" data-name="path-SVG-download-4" d="M408.074,4114.792l-11.6,11.6h11.6Z" transform="translate(-18769.002 -10604)" fill="#015c92"/>
    <path id="path-SVG-download-5" data-name="path-SVG-download-5" d="M433.514,4133.5h115.5c3.826,0,6.927,3.748,6.927,8.369V4153.2c0,4.623-3.1,8.37-6.927,8.37h-115.5" transform="translate(-18768.98 -10604.188)" fill="none" stroke="#015c92" stroke-miterlimit="10" stroke-width="1" fill-rule="evenodd"/>
  </g>
</svg>
