<svg xmlns="http://www.w3.org/2000/svg" viewBox="0 0 39.19 50.28"><defs><style>.cls-1{font-size:8.53px;font-family:MyriadPro-Regular, Myriad Pro;}.cls-1,.cls-4{fill:#015c92;}.cls-2{letter-spacing:-0.01em;}.cls-3{letter-spacing:0em;}</style></defs><g id="Layer_2" data-name="Layer 2"><g id="_002_-NOTÍCIA_ABERTA" data-name="002 -NOTÍCIA ABERTA"><text class="cls-1" transform="translate(1.62 48.15)">insta<tspan class="cls-2" x="17.05" y="0">g</tspan><tspan class="cls-3" x="21.77" y="0">r</tspan><tspan x="24.52" y="0">am</tspan></text><path class="cls-4" d="M3.29,2.08H16.77a1,1,0,0,0,1-1h0a1,1,0,0,0-1-1H1.22a1,1,0,0,0-1,1V16.59a1,1,0,0,0,1,1h0a1,1,0,0,0,1-1V3.12A1,1,0,0,1,3.29,2.08Z"/><path class="cls-4" d="M36.07,36.94H22.6a1,1,0,0,0-1,1h0a1,1,0,0,0,1,1H38.15a1,1,0,0,0,1-1V22.43a1,1,0,0,0-1-1h0a1,1,0,0,0-1,1V35.9A1,1,0,0,1,36.07,36.94Z"/><path class="cls-4" d="M25.48,8H14.77a6.61,6.61,0,0,0-6.6,6.6V25.31a6.61,6.61,0,0,0,6.6,6.6H25.48a6.61,6.61,0,0,0,6.6-6.6V14.59A6.61,6.61,0,0,0,25.48,8ZM30,25.31a4.48,4.48,0,0,1-4.48,4.47H14.77a4.48,4.48,0,0,1-4.48-4.47V14.59a4.49,4.49,0,0,1,4.48-4.48H25.48A4.49,4.49,0,0,1,30,14.59V25.31Z"/><path class="cls-4" d="M20.13,13.79A6.16,6.16,0,1,0,26.29,20,6.17,6.17,0,0,0,20.13,13.79Zm0,10.2a4,4,0,1,1,4-4A4,4,0,0,1,20.13,24Z"/><path class="cls-4" d="M26.55,12a1.54,1.54,0,1,0,1.1.45A1.56,1.56,0,0,0,26.55,12Z"/></g></g></svg>