<svg xmlns="http://www.w3.org/2000/svg" viewBox="0 0 59.03 32.14"><defs><style>.cls-1{font-size:6.68px;font-family:MyriadPro-Regular, Myriad Pro;}.cls-1,.cls-4,.cls-5{fill:#fff;}.cls-2{letter-spacing:0.01em;}.cls-3{letter-spacing:-0.01em;}.cls-5{fill-rule:evenodd;}</style></defs><title>Asset 5</title><g id="Layer_2" data-name="Layer 2"><g id="_002_-NOTÍCIA_ABERTA" data-name="002 -NOTÍCIA ABERTA"><text class="cls-1" transform="translate(33.35 30.47)"><tspan class="cls-2">t</tspan><tspan x="2.27" y="0">wit</tspan><tspan class="cls-3" x="10.96" y="0">t</tspan><tspan x="13.14" y="0">er</tspan></text><path class="cls-4" d="M2.44,1.63H13A.82.82,0,0,0,13.8.81h0A.81.81,0,0,0,13,0H.81A.81.81,0,0,0,0,.81V13a.81.81,0,0,0,.81.81h0A.82.82,0,0,0,1.63,13V2.44A.81.81,0,0,1,2.44,1.63Z"/><path class="cls-4" d="M28.11,28.92H17.56a.82.82,0,0,0-.82.81h0a.82.82,0,0,0,.82.82H29.73a.82.82,0,0,0,.82-.82V17.56a.82.82,0,0,0-.82-.82h0a.82.82,0,0,0-.81.82V28.11A.82.82,0,0,1,28.11,28.92Z"/><path class="cls-5" d="M11.26,20a4.21,4.21,0,0,1-3.9-2.91A4,4,0,0,0,9.16,17l.06,0A4.15,4.15,0,0,1,6.5,15.05a4.05,4.05,0,0,1-.61-2.23,4.05,4.05,0,0,0,1.86.51A4.25,4.25,0,0,1,6.47,7.75a12,12,0,0,0,8.64,4.38c0-.16,0-.31-.06-.46a4.08,4.08,0,0,1,.61-2.74A4,4,0,0,1,18.5,7a4.08,4.08,0,0,1,3.67,1.17.21.21,0,0,0,.22.07,8.63,8.63,0,0,0,2.44-.94l.05,0h0a4.31,4.31,0,0,1-1.79,2.28A8.21,8.21,0,0,0,25.45,9l0,0L25,9.61a8,8,0,0,1-1.52,1.44.15.15,0,0,0-.07.14,10.53,10.53,0,0,1-.08,1.86,12.46,12.46,0,0,1-1.07,3.73A12.28,12.28,0,0,1,20,20.08a11.22,11.22,0,0,1-5.76,3.21,12.89,12.89,0,0,1-2.33.27,11.82,11.82,0,0,1-6.7-1.8l-.1-.06a8.42,8.42,0,0,0,4.19-.58A8.15,8.15,0,0,0,11.26,20Z"/></g></g></svg>