<svg xmlns="http://www.w3.org/2000/svg" viewBox="0 0 56.85 32.17"><defs><style>.cls-1{font-size:6.69px;font-family:MyriadPro-Regular, Myriad Pro;}.cls-1,.cls-3{fill:#fff;}.cls-2{letter-spacing:-0.01em;}</style></defs><title>Asset 10</title><g id="Layer_2" data-name="Layer 2"><g id="_002_-NOTÍCIA_ABERTA" data-name="002 -NOTÍCIA ABERTA"><text class="cls-1" transform="translate(32.47 30.5)"><tspan class="cls-2">y</tspan><tspan x="3.08" y="0">outube</tspan></text><path class="cls-3" d="M2.45,1.63H13a.82.82,0,0,0,.82-.82h0A.82.82,0,0,0,13,0H.82A.81.81,0,0,0,0,.81V13a.81.81,0,0,0,.82.81h0A.81.81,0,0,0,1.63,13V2.44A.82.82,0,0,1,2.45,1.63Z"/><path class="cls-3" d="M28.17,28.94H17.6a.82.82,0,0,0-.81.82h0a.81.81,0,0,0,.81.81H29.8a.81.81,0,0,0,.82-.81V17.57a.81.81,0,0,0-.82-.81h0a.81.81,0,0,0-.81.81V28.13A.82.82,0,0,1,28.17,28.94Z"/><path class="cls-3" d="M24.35,12.9A3.93,3.93,0,0,0,20.41,9H10.21A3.93,3.93,0,0,0,6.27,12.9v4.77a3.93,3.93,0,0,0,3.94,3.93h10.2a3.93,3.93,0,0,0,3.94-3.93Zm-6.44,2.63-4.07,2.23c-.18.09-.34,0-.34-.24V13c0-.21.17-.33.34-.23l4.1,2.34A.27.27,0,0,1,17.91,15.53Z"/></g></g></svg>