<svg id="REDES_-_INSTAGRAM" data-name="REDES - INSTAGRAM" xmlns="http://www.w3.org/2000/svg" width="61" height="62.372" viewBox="0 0 61 62.372">
  <text id="instagram" transform="translate(0 46.372)" fill="#fff" font-size="11" font-family="ArialMT, Arial"><tspan x="6.352" y="10">instagram</tspan></text>
  <g id="Grupo_32" data-name="Grupo 32" transform="translate(9.308)">
    <path id="Caminho_29" data-name="Caminho 29" d="M233.749,72.523h14.973a1.155,1.155,0,0,0,1.155-1.155h0a1.155,1.155,0,0,0-1.155-1.155H231.44a1.155,1.155,0,0,0-1.155,1.155V88.651a1.155,1.155,0,0,0,1.155,1.155h0a1.155,1.155,0,0,0,1.155-1.155V73.678A1.155,1.155,0,0,1,233.749,72.523Z" transform="translate(-230.285 -70.214)" fill="#fff"/>
    <path id="Caminho_30" data-name="Caminho 30" d="M262.859,103.943H247.887a1.154,1.154,0,0,0-1.155,1.155h0a1.154,1.154,0,0,0,1.155,1.153h17.282a1.153,1.153,0,0,0,1.153-1.153V87.816a1.154,1.154,0,0,0-1.153-1.155h0a1.154,1.154,0,0,0-1.155,1.155v14.973A1.155,1.155,0,0,1,262.859,103.943Z" transform="translate(-222.964 -62.893)" fill="#fff"/>
  </g>
  <g id="Grupo_33" data-name="Grupo 33" transform="translate(17.082 7.899)">
    <path id="Caminho_31" data-name="Caminho 31" d="M255.7,75.68H243.357a7.614,7.614,0,0,0-7.606,7.606V95.634a7.614,7.614,0,0,0,7.606,7.606H255.7a7.614,7.614,0,0,0,7.606-7.606V83.286A7.614,7.614,0,0,0,255.7,75.68Zm5.16,19.954a5.166,5.166,0,0,1-5.16,5.16H243.357a5.166,5.166,0,0,1-5.16-5.16V83.286a5.165,5.165,0,0,1,5.16-5.159H255.7a5.165,5.165,0,0,1,5.16,5.159V95.634Z" transform="translate(-235.751 -75.68)" fill="#fff"/>
    <path id="Caminho_32" data-name="Caminho 32" d="M247.474,80.3a7.1,7.1,0,1,0,7.1,7.1A7.108,7.108,0,0,0,247.474,80.3Zm0,11.757A4.656,4.656,0,1,1,252.13,87.4,4.661,4.661,0,0,1,247.474,92.059Z" transform="translate(-233.694 -73.623)" fill="#fff"/>
    <path id="Caminho_33" data-name="Caminho 33" d="M250.959,78.867a1.793,1.793,0,0,0,0,3.587,1.793,1.793,0,0,0,0-3.587Z" transform="translate(-229.78 -74.261)" fill="#fff"/>
  </g>
</svg>
