<svg id="REDES_-_TWITTER" data-name="REDES - TWITTER" xmlns="http://www.w3.org/2000/svg" width="61" height="62.372" viewBox="0 0 61 62.372">
  <text id="twitter" transform="translate(0 46.372)" fill="#fff" font-size="11" font-family="ArialMT, Arial"><tspan x="15.832" y="10">twitter</tspan></text>
  <g id="Grupo_14" data-name="Grupo 14" transform="translate(8.842)">
    <path id="Caminho_15" data-name="Caminho 15" d="M132.831,72.523H147.8a1.155,1.155,0,0,0,1.155-1.155h0a1.155,1.155,0,0,0-1.155-1.155H130.524a1.154,1.154,0,0,0-1.155,1.155V88.651a1.154,1.154,0,0,0,1.155,1.155h0a1.154,1.154,0,0,0,1.153-1.155V73.678A1.155,1.155,0,0,1,132.831,72.523Z" transform="translate(-129.369 -70.214)" fill="#fff"/>
    <path id="Caminho_16" data-name="Caminho 16" d="M161.942,103.943H146.97a1.154,1.154,0,0,0-1.155,1.155h0a1.154,1.154,0,0,0,1.155,1.153h17.282a1.154,1.154,0,0,0,1.155-1.153V87.816a1.155,1.155,0,0,0-1.155-1.155h0a1.155,1.155,0,0,0-1.155,1.155v14.973A1.155,1.155,0,0,1,161.942,103.943Z" transform="translate(-121.717 -62.893)" fill="#fff"/>
  </g>
  <path id="Caminho_17" data-name="Caminho 17" d="M143.133,95.5A5.964,5.964,0,0,1,137.6,91.37a5.947,5.947,0,0,0,2.549-.075.93.93,0,0,0,.085-.04,5.939,5.939,0,0,1-3.861-2.728,5.776,5.776,0,0,1-.871-3.162,5.9,5.9,0,0,0,2.646.721,5.976,5.976,0,0,1-2.447-3.607,5.9,5.9,0,0,1,.637-4.308A17.013,17.013,0,0,0,148.6,84.385c-.035-.236-.071-.442-.1-.65a5.785,5.785,0,0,1,.867-3.889,5.722,5.722,0,0,1,4.033-2.688,5.8,5.8,0,0,1,5.205,1.658.3.3,0,0,0,.318.1,12,12,0,0,0,3.458-1.331.829.829,0,0,1,.079-.04.1.1,0,0,1,.038,0,6.085,6.085,0,0,1-2.545,3.236,11.422,11.422,0,0,0,3.311-.89l.025.026c-.228.3-.447.6-.684.893a11.592,11.592,0,0,1-2.162,2.052.2.2,0,0,0-.1.188,16.437,16.437,0,0,1-.111,2.64,17.468,17.468,0,0,1-1.532,5.295,17.148,17.148,0,0,1-3.212,4.688,15.9,15.9,0,0,1-8.173,4.552,17.573,17.573,0,0,1-3.311.393,16.776,16.776,0,0,1-9.516-2.552c-.038-.022-.074-.049-.14-.091a12.017,12.017,0,0,0,5.948-.821A11.728,11.728,0,0,0,143.133,95.5Z" transform="translate(-118.402 -67.163)" fill="#fff" fill-rule="evenodd"/>
</svg>
