<svg id="REDES_-_WHATS" data-name="REDES - WHATS" xmlns="http://www.w3.org/2000/svg" width="61" height="62.37" viewBox="0 0 61 62.37">
  <text id="whatsapp" transform="translate(0 46.37)" fill="#fff" font-size="11" font-family="ArialMT, Arial"><tspan x="6.956" y="10">whatsapp</tspan></text>
  <g id="Grupo_16" data-name="Grupo 16" transform="translate(8.7)">
    <path id="Caminho_18" data-name="Caminho 18" d="M31.914,115.523H46.887a1.154,1.154,0,0,0,1.155-1.155h0a1.154,1.154,0,0,0-1.155-1.155H29.607a1.155,1.155,0,0,0-1.155,1.155v17.282a1.155,1.155,0,0,0,1.155,1.155h0a1.155,1.155,0,0,0,1.155-1.155V116.678A1.154,1.154,0,0,1,31.914,115.523Z" transform="translate(-28.452 -113.214)" fill="#fff"/>
    <path id="Caminho_19" data-name="Caminho 19" d="M61.026,146.943H46.054A1.153,1.153,0,0,0,44.9,148.1h0a1.153,1.153,0,0,0,1.155,1.153h17.28a1.154,1.154,0,0,0,1.155-1.153V130.816a1.155,1.155,0,0,0-1.155-1.155h0a1.155,1.155,0,0,0-1.155,1.155v14.973A1.154,1.154,0,0,1,61.026,146.943Z" transform="translate(-21.131 -105.893)" fill="#fff"/>
  </g>
  <g id="Grupo_17" data-name="Grupo 17" transform="translate(17.756 9.646)">
    <path id="Caminho_20" data-name="Caminho 20" d="M35.171,143.954c.136-.52.251-.973.374-1.423.4-1.447.8-2.887,1.178-4.338a1.064,1.064,0,0,0-.071-.7,11.93,11.93,0,1,1,5.155,5.022,1.179,1.179,0,0,0-.734-.077C37.912,143.234,35.81,143.828,35.171,143.954Zm2.78-2.74c1.189-.312,2.285-.585,3.37-.889a.977.977,0,0,1,.815.116,9.767,9.767,0,0,0,6.607,1.25,9.975,9.975,0,1,0-10.278-5.042,2.082,2.082,0,0,1,.223,1.9C38.392,139.383,38.209,140.259,37.951,141.214Z" transform="translate(-35.171 -119.89)" fill="#fff" fill-rule="evenodd"/>
    <path id="Caminho_21" data-name="Caminho 21" d="M48.454,135.571c-2.331-.084-6.042-1.923-8.584-6.34a3.583,3.583,0,0,1,.551-4.587,1.658,1.658,0,0,1,1.532-.227c.129.02.264.218.329.364.338.769.672,1.542.967,2.33.156.419-.132.808-.736,1.5a.516.516,0,0,0-.079.678,8.127,8.127,0,0,0,4.14,3.556.5.5,0,0,0,.63-.171c.952-1.162,1.049-1.5,1.551-1.263,2.41,1.155,2.6,1.2,2.61,1.474A2.628,2.628,0,0,1,48.454,135.571Z" transform="translate(-33.337 -117.91)" fill="#fff" fill-rule="evenodd"/>
  </g>
</svg>
