<svg xmlns="http://www.w3.org/2000/svg" width="343.257" height="74.908" viewBox="0 0 343.257 74.908">
  <g id="Grupo_1071" data-name="Grupo 1071" transform="translate(-29.807 -322.28)">
    <path id="Caminho_403" data-name="Caminho 403" d="M39.9,357.449,69.547,327.8a3.233,3.233,0,0,0,0-4.572h0a3.233,3.233,0,0,0-4.572,0L30.754,357.449a3.233,3.233,0,0,0,0,4.572l34.221,34.221a3.233,3.233,0,0,0,4.572,0h0a3.232,3.232,0,0,0,0-4.572L39.9,362.021A3.233,3.233,0,0,1,39.9,357.449Z" fill="#fff"/>
    <g id="Grupo_1074" data-name="Grupo 1074" transform="translate(78.252 335.891)">
      <g id="Grupo_1072" data-name="Grupo 1072">
        <g id="Grupo_1071-2" data-name="Grupo 1071">
          <path id="Caminho_404" data-name="Caminho 404" d="M131.9,370.042h10.376q6.062,0,9,1.8a6.1,6.1,0,0,1,2.94,5.6,7.085,7.085,0,0,1-1.282,4.272A5.716,5.716,0,0,1,149.56,384v.2a6.922,6.922,0,0,1,4.008,2.441,7.367,7.367,0,0,1,1.241,4.435,7.6,7.6,0,0,1-3.041,6.378q-3.041,2.33-8.291,2.329H131.9Zm8.036,11.413h2.421a4.376,4.376,0,0,0,2.675-.712,2.482,2.482,0,0,0,.946-2.116q0-2.5-3.784-2.5h-2.258Zm0,5.88v6.246h2.828q3.764,0,3.763-3.174a2.729,2.729,0,0,0-1.007-2.279,4.635,4.635,0,0,0-2.919-.793Z" transform="translate(-131.901 -360.989)" fill="#fff"/>
          <path id="Caminho_405" data-name="Caminho 405" d="M205.757,399.651l-1.465-5.574h-9.663l-1.506,5.574h-8.83l9.7-29.866h10.722l9.826,29.866Zm-3.133-12.166-1.282-4.883q-.447-1.627-1.088-4.211t-.845-3.7q-.183,1.038-.722,3.418t-2.391,9.379Z" transform="translate(-159.432 -360.854)" fill="#fff"/>
          <path id="Caminho_406" data-name="Caminho 406" d="M283.142,399.786H272.6l-10.864-20.955h-.183q.386,4.944.386,7.548v13.407h-7.121V370.042h10.5l10.823,20.67h.122q-.285-4.5-.285-7.222V370.042h7.161Z" transform="translate(-196.495 -360.989)" fill="#fff"/>
          <path id="Caminho_407" data-name="Caminho 407" d="M340.08,375.733a5.125,5.125,0,0,0-4.476,2.35,11.349,11.349,0,0,0-1.607,6.48q0,8.585,6.531,8.585a13.387,13.387,0,0,0,3.825-.549,38.291,38.291,0,0,0,3.723-1.322v6.795a20.6,20.6,0,0,1-8.423,1.648q-6.734,0-10.325-3.906t-3.591-11.292a18.015,18.015,0,0,1,1.74-8.117,12.446,12.446,0,0,1,5-5.381,15.112,15.112,0,0,1,7.68-1.882,21.157,21.157,0,0,1,9.216,2.1l-2.462,6.327a27.676,27.676,0,0,0-3.3-1.3A11.521,11.521,0,0,0,340.08,375.733Z" transform="translate(-233.759 -360.516)" fill="#fff"/>
          <path id="Caminho_408" data-name="Caminho 408" d="M399.722,389.76l-1.465-5.574h-9.663l-1.506,5.574h-8.83l9.7-29.866h10.721l9.827,29.866Zm-10.64-32.124v-.59q3.133-3.357,3.977-4.334t1.394-1.75h8.707v.428q-1.628,1.3-4.476,3.316t-4.313,2.93Zm7.507,19.958-1.282-4.883q-.448-1.627-1.088-4.211t-.845-3.7q-.183,1.038-.722,3.418t-2.391,9.379Z" transform="translate(-261.359 -350.963)" fill="#fff"/>
          <path id="Caminho_409" data-name="Caminho 409" d="M456.823,388.963v10.823h-8.036V370.042h9.745q12.126,0,12.125,8.789,0,5.167-5.046,8l8.667,12.959h-9.114l-6.307-10.823Zm0-6.042h1.505q4.212,0,4.211-3.723,0-3.072-4.13-3.072h-1.587Z" transform="translate(-298.421 -360.989)" fill="#fff"/>
          <path id="Caminho_410" data-name="Caminho 410" d="M508.211,399.786V370.042h8.077v29.744Z" transform="translate(-329.647 -360.989)" fill="#fff"/>
          <path id="Caminho_411" data-name="Caminho 411" d="M565.4,384.355q0,7.507-3.683,11.413t-10.782,3.906q-7,0-10.732-3.927t-3.733-11.434q0-7.426,3.713-11.342t10.793-3.917q7.1,0,10.762,3.886T565.4,384.355Zm-20.467,0q0,8.626,6,8.626a5.159,5.159,0,0,0,4.526-2.1q1.475-2.1,1.475-6.531,0-4.456-1.5-6.581a5.1,5.1,0,0,0-4.466-2.126Q544.929,375.648,544.929,384.355Z" transform="translate(-344.495 -360.471)" fill="#fff"/>
          <path id="Caminho_412" data-name="Caminho 412" d="M626.67,390.28a8.771,8.771,0,0,1-1.4,4.913,9.193,9.193,0,0,1-4.049,3.337,15.007,15.007,0,0,1-6.205,1.19,25.1,25.1,0,0,1-4.984-.417,18.5,18.5,0,0,1-4.191-1.455v-7.161a23.894,23.894,0,0,0,4.781,1.841,17.814,17.814,0,0,0,4.557.661,4.426,4.426,0,0,0,2.625-.621,1.907,1.907,0,0,0,.834-1.6,1.759,1.759,0,0,0-.335-1.068,3.906,3.906,0,0,0-1.079-.926q-.742-.468-3.957-1.912A18.971,18.971,0,0,1,608.9,384.5a7.865,7.865,0,0,1-2.157-2.848,9.457,9.457,0,0,1-.7-3.8,7.625,7.625,0,0,1,2.99-6.408q2.991-2.3,8.22-2.3a23.067,23.067,0,0,1,9.419,2.136l-2.462,6.205a17.839,17.839,0,0,0-7.2-1.913,3.752,3.752,0,0,0-2.279.549,1.662,1.662,0,0,0-.712,1.363,1.968,1.968,0,0,0,.905,1.566,34.455,34.455,0,0,0,4.913,2.523,13.588,13.588,0,0,1,5.34,3.713A8.064,8.064,0,0,1,626.67,390.28Z" transform="translate(-380.948 -360.516)" fill="#fff"/>
          <path id="Caminho_413" data-name="Caminho 413" d="M665.793,387.9v11.881h-4.862V370.042h8.4q5.757,0,8.525,2.157t2.767,6.51q0,5.554-5.778,7.914l8.4,13.163h-5.533L670.594,387.9Zm0-4.028h3.377q3.4,0,4.924-1.261a4.576,4.576,0,0,0,1.526-3.743,4.03,4.03,0,0,0-1.648-3.621,9.04,9.04,0,0,0-4.964-1.1h-3.214Z" transform="translate(-409.9 -360.989)" fill="#fff"/>
          <path id="Caminho_414" data-name="Caminho 414" d="M732.109,391.236a7.487,7.487,0,0,1-2.868,6.226q-2.868,2.258-7.914,2.258a18.881,18.881,0,0,1-8.26-1.567v-4.6a22.437,22.437,0,0,0,4.323,1.505,18.327,18.327,0,0,0,4.263.549,6.782,6.782,0,0,0,4.262-1.1,3.584,3.584,0,0,0,1.373-2.95,3.7,3.7,0,0,0-1.261-2.828,19,19,0,0,0-5.208-2.746,13.776,13.776,0,0,1-5.737-3.764,7.962,7.962,0,0,1-1.668-5.086,7.123,7.123,0,0,1,2.645-5.859,10.972,10.972,0,0,1,7.1-2.136,20.858,20.858,0,0,1,8.5,1.872l-1.546,3.967a18.576,18.576,0,0,0-7.08-1.668,5.432,5.432,0,0,0-3.581,1.028,3.374,3.374,0,0,0-1.22,2.716,3.825,3.825,0,0,0,.488,1.984,4.985,4.985,0,0,0,1.607,1.556,27.206,27.206,0,0,0,4.028,1.933,22.024,22.024,0,0,1,4.8,2.543,7.482,7.482,0,0,1,2.238,2.665A8.019,8.019,0,0,1,732.109,391.236Z" transform="translate(-437.297 -360.516)" fill="#fff"/>
        </g>
      </g>
      <g id="Grupo_1073" data-name="Grupo 1073" transform="translate(251.031 44.494)">
        <path id="Caminho_415" data-name="Caminho 415" d="M662.178,450.43h-1.247V444.9h3.425v.961h-2.178v1.427H664.2v.957h-2.027Z" transform="translate(-660.931 -444.818)" fill="#fff"/>
        <path id="Caminho_416" data-name="Caminho 416" d="M673.875,450.43h-3.441V444.9h3.441v.961H671.7v1.215h2.023v.961H671.7v1.427h2.174Z" transform="translate(-665.925 -444.818)" fill="#fff"/>
        <path id="Caminho_417" data-name="Caminho 417" d="M681.793,450.43h-1.266v-4.557H678.9V444.9h4.511v.977h-1.622Z" transform="translate(-670.376 -444.818)" fill="#fff"/>
        <path id="Caminho_418" data-name="Caminho 418" d="M691.439,448.307v2.123h-1.267V444.9h1.741a3.159,3.159,0,0,1,1.8.411,1.421,1.421,0,0,1,.585,1.247,1.4,1.4,0,0,1-.29.868,1.9,1.9,0,0,1-.821.6q1.349,1.866,1.758,2.411H693.54l-1.426-2.123Zm0-.954h.409a1.666,1.666,0,0,0,.887-.185.645.645,0,0,0,.286-.583.593.593,0,0,0-.292-.56,1.894,1.894,0,0,0-.9-.167h-.384Z" transform="translate(-676.297 -444.818)" fill="#fff"/>
        <path id="Caminho_419" data-name="Caminho 419" d="M704.466,450.405l-.434-1.317h-2.178l-.433,1.317h-1.365l2.109-5.556h1.548l2.117,5.556Zm-.736-2.3q-.6-1.79-.676-2.025c-.05-.157-.087-.28-.108-.371q-.135.485-.772,2.4Z" transform="translate(-681.491 -444.793)" fill="#fff"/>
        <path id="Caminho_420" data-name="Caminho 420" d="M714.879,450.43h-1.246V444.9h3.424v.961h-2.178v1.427h2.027v.957h-2.027Z" transform="translate(-688.625 -444.818)" fill="#fff"/>
        <path id="Caminho_421" data-name="Caminho 421" d="M723.136,450.43V444.9H724.4v5.533Z" transform="translate(-693.619 -444.818)" fill="#fff"/>
        <path id="Caminho_422" data-name="Caminho 422" d="M727.739,452.128v-.946h2.195v.946Z" transform="translate(-696.038 -448.12)" fill="#fff"/>
        <path id="Caminho_423" data-name="Caminho 423" d="M735.563,448.307v2.123H734.3V444.9h1.741a3.159,3.159,0,0,1,1.8.411,1.421,1.421,0,0,1,.584,1.247,1.394,1.394,0,0,1-.29.868,1.9,1.9,0,0,1-.822.6q1.349,1.866,1.758,2.411h-1.406l-1.426-2.123Zm0-.954h.409a1.665,1.665,0,0,0,.886-.185.645.645,0,0,0,.286-.583.593.593,0,0,0-.292-.56,1.894,1.894,0,0,0-.9-.167h-.385Z" transform="translate(-699.484 -444.818)" fill="#fff"/>
        <path id="Caminho_424" data-name="Caminho 424" d="M748.884,448.806a1.39,1.39,0,0,1-.582,1.181,2.673,2.673,0,0,1-1.62.432,4.065,4.065,0,0,1-1.692-.333V449a7.422,7.422,0,0,0,1.024.352,3.266,3.266,0,0,0,.766.1,1.158,1.158,0,0,0,.64-.148.491.491,0,0,0,.223-.439.459.459,0,0,0-.1-.289,1.068,1.068,0,0,0-.288-.244,7.58,7.58,0,0,0-.774-.374,3.737,3.737,0,0,1-.821-.458,1.746,1.746,0,0,1-.437-.511,1.367,1.367,0,0,1-.164-.681,1.385,1.385,0,0,1,.538-1.154,2.355,2.355,0,0,1,1.485-.42,3.761,3.761,0,0,1,.889.1,6.518,6.518,0,0,1,.885.288l-.409.913a6.34,6.34,0,0,0-.791-.254,2.743,2.743,0,0,0-.615-.072.858.858,0,0,0-.551.156.494.494,0,0,0-.192.4.475.475,0,0,0,.077.271.825.825,0,0,0,.247.223,7.791,7.791,0,0,0,.8.388,3.2,3.2,0,0,1,1.148.744A1.381,1.381,0,0,1,748.884,448.806Z" transform="translate(-705.102 -444.73)" fill="#fff"/>
      </g>
    </g>
  </g>
</svg>
