<svg id="Grupo_1071" data-name="Grupo 1071" xmlns="http://www.w3.org/2000/svg" width="158.27" height="92.08" viewBox="0 0 158.27 92.08">
  <rect id="Retângulo_260" data-name="Retângulo 260" width="158.27" height="1.129" transform="translate(0 46.538)" fill="#53a6d8"/>
  <rect id="Retângulo_261" data-name="Retângulo 261" width="0.664" height="28.547" transform="translate(1.171 33.393)" fill="#53a6d8"/>
  <rect id="Retângulo_262" data-name="Retângulo 262" width="0.664" height="4.78" transform="translate(0.266 45.277)" fill="#53a6d8"/>
  <rect id="Retângulo_263" data-name="Retângulo 263" width="0.664" height="18.456" transform="translate(2.075 38.173)" fill="#53a6d8"/>
  <rect id="Retângulo_264" data-name="Retângulo 264" width="0.664" height="15.468" transform="translate(2.98 39.368)" fill="#53a6d8"/>
  <rect id="Retângulo_265" data-name="Retângulo 265" width="0.664" height="56.43" transform="translate(3.885 27.551)" fill="#53a6d8"/>
  <rect id="Retângulo_266" data-name="Retângulo 266" width="0.664" height="62.936" transform="translate(4.79 21.51)" fill="#53a6d8"/>
  <rect id="Retângulo_267" data-name="Retângulo 267" width="0.664" height="30.339" transform="translate(5.695 31.601)" fill="#53a6d8"/>
  <rect id="Retângulo_268" data-name="Retângulo 268" width="0.664" height="27.883" transform="translate(6.6 31.136)" fill="#53a6d8"/>
  <rect id="Retângulo_269" data-name="Retângulo 269" width="0.664" height="62.936" transform="translate(7.505 24.829)" fill="#53a6d8"/>
  <rect id="Retângulo_270" data-name="Retângulo 270" width="0.664" height="30.339" transform="translate(8.41 34.92)" fill="#53a6d8"/>
  <rect id="Retângulo_271" data-name="Retângulo 271" width="0.664" height="40.165" transform="translate(9.315 26.887)" fill="#53a6d8"/>
  <rect id="Retângulo_272" data-name="Retângulo 272" width="0.664" height="40.165" transform="translate(10.22 26.954)" fill="#53a6d8"/>
  <rect id="Retângulo_273" data-name="Retângulo 273" width="0.664" height="33.991" transform="translate(11.125 33.128)" fill="#53a6d8"/>
  <rect id="Retângulo_274" data-name="Retângulo 274" width="0.664" height="23.767" transform="translate(12.03 37.974)" fill="#53a6d8"/>
  <rect id="Retângulo_275" data-name="Retângulo 275" width="0.664" height="12.016" transform="translate(12.935 41.294)" fill="#53a6d8"/>
  <rect id="Retângulo_276" data-name="Retângulo 276" width="0.664" height="11.153" transform="translate(13.84 42.157)" fill="#53a6d8"/>
  <rect id="Retângulo_277" data-name="Retângulo 277" width="0.664" height="4.78" transform="translate(14.745 45.078)" fill="#53a6d8"/>
  <rect id="Retângulo_278" data-name="Retângulo 278" width="0.664" height="7.635" transform="translate(15.65 43.285)" fill="#53a6d8"/>
  <rect id="Retângulo_279" data-name="Retângulo 279" width="0.664" height="8.63" transform="translate(16.555 42.422)" fill="#53a6d8"/>
  <rect id="Retângulo_280" data-name="Retângulo 280" width="0.664" height="4.78" transform="translate(17.46 44.546)" fill="#53a6d8"/>
  <rect id="Retângulo_281" data-name="Retângulo 281" width="0.664" height="28.547" transform="translate(21.63 32.796)" fill="#53a6d8"/>
  <rect id="Retângulo_282" data-name="Retângulo 282" width="0.664" height="18.456" transform="translate(22.413 37.576)" fill="#53a6d8"/>
  <rect id="Retângulo_283" data-name="Retângulo 283" width="0.664" height="56.43" transform="translate(23.197 26.954)" fill="#53a6d8"/>
  <rect id="Retângulo_284" data-name="Retângulo 284" width="0.664" height="62.936" transform="translate(23.981 20.912)" fill="#53a6d8"/>
  <rect id="Retângulo_285" data-name="Retângulo 285" width="0.664" height="30.339" transform="translate(24.764 31.003)" fill="#53a6d8"/>
  <rect id="Retângulo_286" data-name="Retângulo 286" width="0.664" height="27.883" transform="translate(25.548 30.538)" fill="#53a6d8"/>
  <rect id="Retângulo_287" data-name="Retângulo 287" width="0.664" height="16.265" transform="translate(26.331 39.103)" fill="#53a6d8"/>
  <rect id="Retângulo_288" data-name="Retângulo 288" width="0.664" height="4.78" transform="translate(20.846 44.878)" fill="#53a6d8"/>
  <rect id="Retângulo_289" data-name="Retângulo 289" width="0.664" height="13.676" transform="translate(27.115 40.298)" fill="#53a6d8"/>
  <rect id="Retângulo_290" data-name="Retângulo 290" width="0.664" height="12.415" transform="translate(27.899 39.235)" fill="#53a6d8"/>
  <rect id="Retângulo_291" data-name="Retângulo 291" width="0.664" height="33.194" transform="translate(28.682 33.194)" fill="#53a6d8"/>
  <rect id="Retângulo_292" data-name="Retângulo 292" width="0.664" height="46.87" transform="translate(29.466 23.169)" fill="#53a6d8"/>
  <rect id="Retângulo_293" data-name="Retângulo 293" width="0.664" height="35.518" transform="translate(30.25 34.522)" fill="#53a6d8"/>
  <rect id="Retângulo_294" data-name="Retângulo 294" width="0.664" height="30.406" transform="translate(31.033 33.791)" fill="#53a6d8"/>
  <rect id="Retângulo_295" data-name="Retângulo 295" width="0.664" height="21.975" transform="translate(31.817 37.443)" fill="#53a6d8"/>
  <rect id="Retângulo_296" data-name="Retângulo 296" width="0.664" height="10.954" transform="translate(32.601 41.426)" fill="#53a6d8"/>
  <rect id="Retângulo_297" data-name="Retângulo 297" width="0.664" height="15.336" transform="translate(33.384 39.235)" fill="#53a6d8"/>
  <rect id="Retângulo_298" data-name="Retângulo 298" width="0.664" height="17.726" transform="translate(34.168 38.572)" fill="#53a6d8"/>
  <rect id="Retângulo_299" data-name="Retângulo 299" width="0.664" height="25.493" transform="translate(34.951 34.986)" fill="#53a6d8"/>
  <rect id="Retângulo_300" data-name="Retângulo 300" width="0.664" height="39.634" transform="translate(35.735 27.949)" fill="#53a6d8"/>
  <rect id="Retângulo_301" data-name="Retângulo 301" width="0.664" height="17.327" transform="translate(36.519 39.103)" fill="#53a6d8"/>
  <rect id="Retângulo_302" data-name="Retângulo 302" width="0.664" height="9.693" transform="translate(37.302 42.09)" fill="#53a6d8"/>
  <rect id="Retângulo_303" data-name="Retângulo 303" width="0.664" height="7.369" transform="translate(38.086 43.086)" fill="#53a6d8"/>
  <rect id="Retângulo_304" data-name="Retângulo 304" width="0.664" height="5.046" transform="translate(38.87 44.082)" fill="#53a6d8"/>
  <rect id="Retângulo_305" data-name="Retângulo 305" width="0.664" height="23.568" transform="translate(39.653 35.65)" fill="#53a6d8"/>
  <rect id="Retângulo_306" data-name="Retângulo 306" width="0.664" height="15.004" transform="translate(40.437 40.895)" fill="#53a6d8"/>
  <rect id="Retângulo_307" data-name="Retângulo 307" width="0.664" height="15.933" transform="translate(41.221 40.895)" fill="#53a6d8"/>
  <rect id="Retângulo_308" data-name="Retângulo 308" width="0.664" height="12.083" transform="translate(42.004 41.493)" fill="#53a6d8"/>
  <rect id="Retângulo_309" data-name="Retângulo 309" width="0.664" height="37.244" transform="translate(42.788 31.534)" fill="#53a6d8"/>
  <rect id="Retângulo_310" data-name="Retângulo 310" width="0.664" height="13.145" transform="translate(43.572 43.352)" fill="#53a6d8"/>
  <rect id="Retângulo_311" data-name="Retângulo 311" width="0.664" height="5.842" transform="translate(44.355 44.347)" fill="#53a6d8"/>
  <rect id="Retângulo_312" data-name="Retângulo 312" width="0.664" height="38.505" transform="translate(45.139 28.48)" fill="#53a6d8"/>
  <rect id="Retângulo_313" data-name="Retângulo 313" width="0.664" height="8.697" transform="translate(45.922 43.352)" fill="#53a6d8"/>
  <rect id="Retângulo_314" data-name="Retângulo 314" width="0.664" height="9.892" transform="translate(46.706 43.352)" fill="#53a6d8"/>
  <rect id="Retângulo_315" data-name="Retângulo 315" width="0.664" height="45.874" transform="translate(47.49 26.555)" fill="#53a6d8"/>
  <rect id="Retângulo_316" data-name="Retângulo 316" width="0.664" height="43.352" transform="translate(48.273 24.895)" fill="#53a6d8"/>
  <rect id="Retângulo_317" data-name="Retângulo 317" width="0.664" height="9.162" transform="translate(49.057 43.816)" fill="#53a6d8"/>
  <rect id="Retângulo_318" data-name="Retângulo 318" width="0.664" height="18.921" transform="translate(49.841 37.908)" fill="#53a6d8"/>
  <rect id="Retângulo_319" data-name="Retângulo 319" width="0.664" height="19.385" transform="translate(50.624 37.908)" fill="#53a6d8"/>
  <rect id="Retângulo_320" data-name="Retângulo 320" width="0.664" height="12.68" transform="translate(51.408 40.829)" fill="#53a6d8"/>
  <rect id="Retângulo_321" data-name="Retângulo 321" width="0.664" height="11.419" transform="translate(52.192 41.426)" fill="#53a6d8"/>
  <rect id="Retângulo_322" data-name="Retângulo 322" width="0.664" height="20.182" transform="translate(52.975 38.505)" fill="#53a6d8"/>
  <rect id="Retângulo_323" data-name="Retângulo 323" width="0.664" height="15.535" transform="translate(53.759 39.103)" fill="#53a6d8"/>
  <rect id="Retângulo_324" data-name="Retângulo 324" width="0.664" height="15.535" transform="translate(54.543 39.036)" fill="#53a6d8"/>
  <rect id="Retângulo_325" data-name="Retângulo 325" width="0.664" height="4.514" transform="translate(55.326 44.878)" fill="#53a6d8"/>
  <rect id="Retângulo_326" data-name="Retângulo 326" width="0.664" height="15.535" transform="translate(56.11 39.103)" fill="#53a6d8"/>
  <rect id="Retângulo_327" data-name="Retângulo 327" width="0.664" height="10.622" transform="translate(56.893 43.285)" fill="#53a6d8"/>
  <rect id="Retângulo_328" data-name="Retângulo 328" width="0.664" height="4.514" transform="translate(57.677 44.812)" fill="#53a6d8"/>
  <rect id="Retângulo_329" data-name="Retângulo 329" width="0.664" height="22.638" transform="translate(58.461 36.779)" fill="#53a6d8"/>
  <rect id="Retângulo_330" data-name="Retângulo 330" width="0.664" height="37.377" transform="translate(59.244 29.609)" fill="#53a6d8"/>
  <rect id="Retângulo_331" data-name="Retângulo 331" width="0.664" height="17.925" transform="translate(60.028 34.389)" fill="#53a6d8"/>
  <rect id="Retângulo_332" data-name="Retângulo 332" width="0.664" height="4.514" transform="translate(60.812 45.609)" fill="#53a6d8"/>
  <rect id="Retângulo_333" data-name="Retângulo 333" width="0.664" height="28.547" transform="translate(66.853 32.53)" fill="#53a6d8"/>
  <rect id="Retângulo_334" data-name="Retângulo 334" width="0.664" height="41.161" transform="translate(67.65 30.273)" fill="#53a6d8"/>
  <rect id="Retângulo_335" data-name="Retângulo 335" width="0.664" height="80.927" transform="translate(68.446 9.693)" fill="#53a6d8"/>
  <rect id="Retângulo_336" data-name="Retângulo 336" width="0.664" height="50.19" transform="translate(69.243 28.148)" fill="#53a6d8"/>
  <rect id="Retângulo_337" data-name="Retângulo 337" width="0.664" height="16.73" transform="translate(70.04 40.829)" fill="#53a6d8"/>
  <rect id="Retângulo_338" data-name="Retângulo 338" width="0.664" height="31.136" transform="translate(70.836 33.592)" fill="#53a6d8"/>
  <rect id="Retângulo_339" data-name="Retângulo 339" width="0.664" height="12.415" transform="translate(71.699 41.426)" fill="#53a6d8"/>
  <rect id="Retângulo_340" data-name="Retângulo 340" width="0.664" height="7.701" transform="translate(66.056 43.352)" fill="#53a6d8"/>
  <rect id="Retângulo_341" data-name="Retângulo 341" width="0.664" height="18.522" transform="translate(72.496 37.841)" fill="#53a6d8"/>
  <rect id="Retângulo_342" data-name="Retângulo 342" width="0.664" height="23.435" transform="translate(73.293 36.049)" fill="#53a6d8"/>
  <rect id="Retângulo_343" data-name="Retângulo 343" width="0.664" height="51.716" transform="translate(74.089 21.842)" fill="#53a6d8"/>
  <rect id="Retângulo_344" data-name="Retângulo 344" width="0.664" height="54.438" transform="translate(74.886 20.979)" fill="#53a6d8"/>
  <rect id="Retângulo_345" data-name="Retângulo 345" width="0.664" height="18.854" transform="translate(75.683 38.505)" fill="#53a6d8"/>
  <rect id="Retângulo_346" data-name="Retângulo 346" width="0.664" height="12.747" transform="translate(76.479 41.294)" fill="#53a6d8"/>
  <rect id="Retângulo_347" data-name="Retângulo 347" width="0.664" height="4.514" transform="translate(77.276 44.546)" fill="#53a6d8"/>
  <rect id="Retângulo_348" data-name="Retângulo 348" width="0.664" height="12.747" transform="translate(78.073 40.63)" fill="#53a6d8"/>
  <rect id="Retângulo_349" data-name="Retângulo 349" width="0.664" height="12.282" transform="translate(78.869 41.625)" fill="#53a6d8"/>
  <rect id="Retângulo_350" data-name="Retângulo 350" width="0.664" height="13.742" transform="translate(81.259 40.895)" fill="#53a6d8"/>
  <rect id="Retângulo_351" data-name="Retângulo 351" width="0.664" height="12.282" transform="translate(80.463 41.891)" fill="#53a6d8"/>
  <rect id="Retângulo_352" data-name="Retângulo 352" width="0.664" height="7.17" transform="translate(79.666 43.352)" fill="#53a6d8"/>
  <rect id="Retângulo_353" data-name="Retângulo 353" width="0.664" height="26.622" transform="translate(82.056 34.986)" fill="#53a6d8"/>
  <rect id="Retângulo_354" data-name="Retângulo 354" width="0.664" height="12.68" transform="translate(82.919 40.962)" fill="#53a6d8"/>
  <rect id="Retângulo_355" data-name="Retângulo 355" width="0.664" height="49.791" transform="translate(83.716 22.572)" fill="#53a6d8"/>
  <rect id="Retângulo_356" data-name="Retângulo 356" width="0.664" height="25.161" transform="translate(84.512 33.858)" fill="#53a6d8"/>
  <rect id="Retângulo_357" data-name="Retângulo 357" width="0.664" height="36.447" transform="translate(85.309 27.817)" fill="#53a6d8"/>
  <rect id="Retângulo_358" data-name="Retângulo 358" width="0.664" height="36.381" transform="translate(86.106 30.804)" fill="#53a6d8"/>
  <rect id="Retângulo_359" data-name="Retângulo 359" width="0.664" height="13.742" transform="translate(86.902 40.696)" fill="#53a6d8"/>
  <rect id="Retângulo_360" data-name="Retângulo 360" width="0.664" height="13.742" transform="translate(87.699 40.165)" fill="#53a6d8"/>
  <rect id="Retângulo_361" data-name="Retângulo 361" width="0.664" height="4.514" transform="translate(88.496 45.675)" fill="#53a6d8"/>
  <rect id="Retângulo_362" data-name="Retângulo 362" width="0.664" height="24.696" transform="translate(89.292 37.908)" fill="#53a6d8"/>
  <rect id="Retângulo_363" data-name="Retângulo 363" width="0.664" height="35.518" transform="translate(90.089 33.26)" fill="#53a6d8"/>
  <rect id="Retângulo_364" data-name="Retângulo 364" width="0.664" height="10.689" transform="translate(90.886 38.572)" fill="#53a6d8"/>
  <rect id="Retângulo_365" data-name="Retângulo 365" width="0.664" height="11.552" transform="translate(91.682 41.559)" fill="#53a6d8"/>
  <rect id="Retângulo_366" data-name="Retângulo 366" width="0.664" height="7.236" transform="translate(92.479 43.883)" fill="#53a6d8"/>
  <rect id="Retângulo_367" data-name="Retângulo 367" width="0.664" height="45.277" transform="translate(93.342 24.829)" fill="#53a6d8"/>
  <rect id="Retângulo_368" data-name="Retângulo 368" width="0.664" height="59.218" transform="translate(94.139 16.73)" fill="#53a6d8"/>
  <rect id="Retângulo_369" data-name="Retângulo 369" width="0.664" height="36.514" transform="translate(94.935 27.153)" fill="#53a6d8"/>
  <rect id="Retângulo_370" data-name="Retângulo 370" width="0.664" height="5.377" transform="translate(95.732 45.011)" fill="#53a6d8"/>
  <rect id="Retângulo_371" data-name="Retângulo 371" width="0.664" height="3.718" transform="translate(96.529 45.41)" fill="#53a6d8"/>
  <rect id="Retângulo_372" data-name="Retângulo 372" width="0.664" height="8.763" transform="translate(97.325 43.086)" fill="#53a6d8"/>
  <rect id="Retângulo_373" data-name="Retângulo 373" width="0.664" height="5.377" transform="translate(98.122 44.347)" fill="#53a6d8"/>
  <rect id="Retângulo_374" data-name="Retângulo 374" width="0.664" height="14.141" transform="translate(105.624 39.767)" fill="#53a6d8"/>
  <rect id="Retângulo_375" data-name="Retângulo 375" width="0.664" height="26.356" transform="translate(106.42 34.522)" fill="#53a6d8"/>
  <rect id="Retângulo_376" data-name="Retângulo 376" width="0.664" height="42.688" transform="translate(107.217 25.161)" fill="#53a6d8"/>
  <rect id="Retângulo_377" data-name="Retângulo 377" width="0.664" height="31.468" transform="translate(108.014 39.302)" fill="#53a6d8"/>
  <rect id="Retângulo_378" data-name="Retângulo 378" width="0.664" height="17.593" transform="translate(108.81 40.298)" fill="#53a6d8"/>
  <rect id="Retângulo_379" data-name="Retângulo 379" width="0.664" height="29.211" transform="translate(109.607 32.198)" fill="#53a6d8"/>
  <rect id="Retângulo_380" data-name="Retângulo 380" width="0.664" height="36.381" transform="translate(110.47 31.269)" fill="#53a6d8"/>
  <rect id="Retângulo_381" data-name="Retângulo 381" width="0.664" height="7.701" transform="translate(104.827 42.82)" fill="#53a6d8"/>
  <rect id="Retângulo_382" data-name="Retângulo 382" width="0.664" height="27.02" transform="translate(111.267 33.924)" fill="#53a6d8"/>
  <rect id="Retângulo_383" data-name="Retângulo 383" width="0.664" height="14.473" transform="translate(112.063 40.43)" fill="#53a6d8"/>
  <rect id="Retângulo_384" data-name="Retângulo 384" width="0.664" height="58.355" transform="translate(112.86 16.464)" fill="#53a6d8"/>
  <rect id="Retângulo_385" data-name="Retângulo 385" width="0.664" height="53.177" transform="translate(113.657 18.589)" fill="#53a6d8"/>
  <rect id="Retângulo_386" data-name="Retângulo 386" width="0.664" height="33.792" transform="translate(114.453 31.202)" fill="#53a6d8"/>
  <rect id="Retângulo_387" data-name="Retângulo 387" width="0.664" height="36.182" transform="translate(115.25 29.742)" fill="#53a6d8"/>
  <rect id="Retângulo_388" data-name="Retângulo 388" width="0.664" height="12.481" transform="translate(116.047 44.015)" fill="#53a6d8"/>
  <rect id="Retângulo_389" data-name="Retângulo 389" width="0.664" height="31.8" transform="translate(116.843 28.082)" fill="#53a6d8"/>
  <rect id="Retângulo_390" data-name="Retângulo 390" width="0.664" height="39.567" transform="translate(117.64 31.667)" fill="#53a6d8"/>
  <rect id="Retângulo_391" data-name="Retângulo 391" width="0.664" height="7.767" transform="translate(120.03 43.551)" fill="#53a6d8"/>
  <rect id="Retângulo_392" data-name="Retângulo 392" width="0.664" height="16.132" transform="translate(119.233 40.895)" fill="#53a6d8"/>
  <rect id="Retângulo_393" data-name="Retângulo 393" width="0.664" height="47.468" transform="translate(118.437 29.277)" fill="#53a6d8"/>
  <rect id="Retângulo_394" data-name="Retângulo 394" width="0.664" height="9.759" transform="translate(120.827 40.895)" fill="#53a6d8"/>
  <rect id="Retângulo_395" data-name="Retângulo 395" width="0.664" height="20.912" transform="translate(121.69 37.376)" fill="#53a6d8"/>
  <rect id="Retângulo_396" data-name="Retângulo 396" width="0.664" height="13.742" transform="translate(122.486 40.895)" fill="#53a6d8"/>
  <rect id="Retângulo_397" data-name="Retângulo 397" width="0.664" height="21.311" transform="translate(123.283 37.177)" fill="#53a6d8"/>
  <rect id="Retângulo_398" data-name="Retângulo 398" width="0.664" height="10.157" transform="translate(124.08 40.364)" fill="#53a6d8"/>
  <rect id="Retângulo_399" data-name="Retângulo 399" width="0.664" height="29.808" transform="translate(124.876 31.335)" fill="#53a6d8"/>
  <rect id="Retângulo_400" data-name="Retângulo 400" width="0.664" height="10.29" transform="translate(125.673 42.024)" fill="#53a6d8"/>
  <rect id="Retângulo_401" data-name="Retângulo 401" width="0.664" height="10.888" transform="translate(126.47 40.497)" fill="#53a6d8"/>
  <rect id="Retângulo_402" data-name="Retângulo 402" width="0.664" height="4.514" transform="translate(127.266 45.144)" fill="#53a6d8"/>
  <rect id="Retângulo_403" data-name="Retângulo 403" width="0.664" height="57.293" transform="translate(128.063 21.045)" fill="#53a6d8"/>
  <rect id="Retângulo_404" data-name="Retângulo 404" width="0.664" height="32.663" transform="translate(128.86 32.729)" fill="#53a6d8"/>
  <rect id="Retângulo_405" data-name="Retângulo 405" width="0.664" height="8.232" transform="translate(129.656 40.43)" fill="#53a6d8"/>
  <rect id="Retângulo_406" data-name="Retângulo 406" width="0.664" height="10.357" transform="translate(130.453 43.219)" fill="#53a6d8"/>
  <rect id="Retângulo_407" data-name="Retângulo 407" width="0.664" height="10.224" transform="translate(131.25 40.364)" fill="#53a6d8"/>
  <rect id="Retângulo_408" data-name="Retângulo 408" width="0.664" height="3.386" transform="translate(132.113 45.609)" fill="#53a6d8"/>
  <rect id="Retângulo_409" data-name="Retângulo 409" width="0.664" height="2.257" transform="translate(132.909 45.941)" fill="#53a6d8"/>
  <rect id="Retângulo_410" data-name="Retângulo 410" width="0.664" height="2.656" transform="translate(133.706 45.941)" fill="#53a6d8"/>
  <rect id="Retângulo_411" data-name="Retângulo 411" width="0.664" height="5.377" transform="translate(134.503 44.48)" fill="#53a6d8"/>
  <rect id="Retângulo_412" data-name="Retângulo 412" width="0.664" height="3.718" transform="translate(135.299 44.878)" fill="#53a6d8"/>
  <rect id="Retângulo_413" data-name="Retângulo 413" width="0.664" height="1.726" transform="translate(136.096 46.671)" fill="#53a6d8"/>
  <rect id="Retângulo_414" data-name="Retângulo 414" width="0.664" height="2.456" transform="translate(136.893 45.874)" fill="#53a6d8"/>
  <rect id="Retângulo_415" data-name="Retângulo 415" width="0.664" height="2.921" transform="translate(138.42 45.808)" fill="#53a6d8"/>
  <rect id="Retângulo_416" data-name="Retângulo 416" width="0.664" height="60.745" transform="translate(138.951 15.269)" fill="#53a6d8"/>
  <rect id="Retângulo_417" data-name="Retângulo 417" width="0.664" height="92.081" transform="translate(139.88)" fill="#53a6d8"/>
  <rect id="Retângulo_418" data-name="Retângulo 418" width="0.664" height="10.622" transform="translate(140.677 41.559)" fill="#53a6d8"/>
  <rect id="Retângulo_419" data-name="Retângulo 419" width="0.664" height="11.286" transform="translate(141.473 41.559)" fill="#53a6d8"/>
  <rect id="Retângulo_420" data-name="Retângulo 420" width="0.664" height="18.854" transform="translate(142.27 38.107)" fill="#53a6d8"/>
  <rect id="Retângulo_421" data-name="Retângulo 421" width="0.664" height="13.012" transform="translate(143.133 40.962)" fill="#53a6d8"/>
  <rect id="Retângulo_422" data-name="Retângulo 422" width="0.664" height="2.456" transform="translate(144.195 45.609)" fill="#53a6d8"/>
  <rect id="Retângulo_423" data-name="Retângulo 423" width="0.664" height="18.721" transform="translate(145.656 37.908)" fill="#53a6d8"/>
  <rect id="Retângulo_424" data-name="Retângulo 424" width="0.664" height="13.012" transform="translate(146.453 40.497)" fill="#53a6d8"/>
  <rect id="Retângulo_425" data-name="Retângulo 425" width="0.664" height="3.784" transform="translate(147.382 45.144)" fill="#53a6d8"/>
  <rect id="Retângulo_426" data-name="Retângulo 426" width="0.664" height="33.46" transform="translate(148.245 31.335)" fill="#53a6d8"/>
  <rect id="Retângulo_427" data-name="Retângulo 427" width="0.664" height="36.845" transform="translate(149.174 30.605)" fill="#53a6d8"/>
  <rect id="Retângulo_428" data-name="Retângulo 428" width="0.664" height="17.394" transform="translate(150.104 39.103)" fill="#53a6d8"/>
  <rect id="Retângulo_429" data-name="Retângulo 429" width="0.664" height="44.347" transform="translate(150.834 25.692)" fill="#53a6d8"/>
  <rect id="Retângulo_430" data-name="Retângulo 430" width="0.664" height="19.186" transform="translate(151.764 38.97)" fill="#53a6d8"/>
  <rect id="Retângulo_431" data-name="Retângulo 431" width="0.664" height="13.742" transform="translate(152.627 39.634)" fill="#53a6d8"/>
  <rect id="Retângulo_432" data-name="Retângulo 432" width="0.664" height="10.29" transform="translate(153.49 42.024)" fill="#53a6d8"/>
  <rect id="Retângulo_433" data-name="Retângulo 433" width="0.664" height="3.519" transform="translate(154.353 45.343)" fill="#53a6d8"/>
</svg>
