<svg xmlns="http://www.w3.org/2000/svg" width="67.896" height="67.895" viewBox="0 0 67.896 67.895">
  <g id="Grupo_1070" data-name="Grupo 1070" transform="translate(19951.779 17192.676)">
    <g id="Grupo_1069" data-name="Grupo 1069" transform="translate(-19951.779 -17192.678)">
      <path id="Caminho_313" data-name="Caminho 313" d="M31.433,0A31.433,31.433,0,1,1,0,31.433,31.433,31.433,0,0,1,31.433,0Z" transform="translate(2.515 2.514)" fill="#0b3c5e"/>
      <path id="Caminho_53" data-name="Caminho 53" d="M40.357,1191.074a28.919,28.919,0,1,1-28.918,28.918,28.951,28.951,0,0,1,28.918-28.918m0-5.028a33.947,33.947,0,1,0,33.948,33.946,33.948,33.948,0,0,0-33.948-33.946Z" transform="translate(-6.409 -1186.046)" fill="#53a6d8"/>
    </g>
    <rect id="Ret창ngulo_918" data-name="Ret창ngulo 918" width="10" height="27" transform="translate(-19930 -17172)" fill="#fff"/>
    <rect id="Ret창ngulo_919" data-name="Ret창ngulo 919" width="10" height="27" transform="translate(-19915 -17172)" fill="#fff"/>
  </g>
</svg>
