<svg xmlns="http://www.w3.org/2000/svg" viewBox="0 0 39.01 50.28"><defs><style>.cls-1{font-size:8.53px;font-family:MyriadPro-Regular, Myriad Pro;}.cls-1,.cls-3{fill:#015c92;}.cls-2{letter-spacing:0em;}</style></defs><g id="Layer_2" data-name="Layer 2"><g id="_002_-NOTÍCIA_ABERTA" data-name="002 -NOTÍCIA ABERTA"><text class="cls-1" transform="translate(2.19 48.15)">aume<tspan class="cls-2" x="20.21" y="0">n</tspan><tspan x="24.91" y="0">tar</tspan></text><path class="cls-3" d="M3.12,2.08H16.59a1,1,0,0,0,1-1h0a1,1,0,0,0-1-1H1A1,1,0,0,0,0,1V16.59a1,1,0,0,0,1,1H1a1,1,0,0,0,1-1V3.12A1,1,0,0,1,3.12,2.08Z"/><path class="cls-3" d="M35.9,36.94H22.43a1,1,0,0,0-1,1h0a1,1,0,0,0,1,1H38a1,1,0,0,0,1-1V22.43a1,1,0,0,0-1-1h0a1,1,0,0,0-1,1V35.9A1,1,0,0,1,35.9,36.94Z"/><path class="cls-3" d="M30,18.83H20.19V9a.7.7,0,0,0-.7-.7h0a.7.7,0,0,0-.71.7v9.09a.7.7,0,0,1-.7.7H9a.71.71,0,0,0,0,1.41h9.84V30a.7.7,0,1,0,1.4,0V20.93a.7.7,0,0,1,.7-.7H30a.7.7,0,1,0,0-1.4Z"/><path class="cls-3" d="M19.53,31.73A1.71,1.71,0,0,1,17.83,30V21.19H9a1.71,1.71,0,0,1,0-3.41h8.79V9a1.71,1.71,0,0,1,3.41,0v8.84H30a1.7,1.7,0,1,1,0,3.4H21.23V30A1.71,1.71,0,0,1,19.53,31.73Z"/></g></g></svg>