<svg xmlns="http://www.w3.org/2000/svg" viewBox="0 0 39.01 50.28"><defs><style>.cls-1{font-size:8.53px;font-family:MyriadPro-Regular, Myriad Pro;}.cls-1,.cls-2{fill:#015c92;}</style></defs><g id="Layer_2" data-name="Layer 2"><g id="_002_-NOTÍCIA_ABERTA" data-name="002 -NOTÍCIA ABERTA"><text class="cls-1" transform="translate(4.43 48.15)">diminuir</text><path class="cls-2" d="M3.12,2.08H16.59a1,1,0,0,0,1-1h0a1,1,0,0,0-1-1H1A1,1,0,0,0,0,1V16.59a1,1,0,0,0,1,1H1a1,1,0,0,0,1-1V3.12A1,1,0,0,1,3.12,2.08Z"/><path class="cls-2" d="M35.9,36.94H22.43a1,1,0,0,0-1,1h0a1,1,0,0,0,1,1H38a1,1,0,0,0,1-1V22.43a1,1,0,0,0-1-1h0a1,1,0,0,0-1,1V35.9A1,1,0,0,1,35.9,36.94Z"/><rect class="cls-2" x="8.53" y="18.51" width="21.96" height="2" rx="1"/><path class="cls-2" d="M29.49,21.51h-20a2,2,0,1,1,0-4h20a2,2,0,0,1,0,4Zm0-2h0Z"/></g></g></svg>