<svg xmlns="http://www.w3.org/2000/svg" viewBox="0 0 39.01 50.28"><defs><style>.cls-1{font-size:8.53px;font-family:MyriadPro-Regular, Myriad Pro;}.cls-1,.cls-3,.cls-4{fill:#015c92;}.cls-2{letter-spacing:-0.01em;}.cls-4{fill-rule:evenodd;}</style></defs><g id="Layer_2" data-name="Layer 2"><g id="_002_-NOTÍCIA_ABERTA" data-name="002 -NOTÍCIA ABERTA"><text class="cls-1" transform="translate(3.07 48.15)">fa<tspan class="cls-2" x="6.61" y="0">c</tspan><tspan x="10.38" y="0">ebook</tspan></text><path class="cls-3" d="M3.12,2.08H16.59a1,1,0,0,0,1-1h0a1,1,0,0,0-1-1H1A1,1,0,0,0,0,1V16.59a1,1,0,0,0,1,1H1a1,1,0,0,0,1-1V3.12A1,1,0,0,1,3.12,2.08Z"/><path class="cls-3" d="M35.9,36.94H22.43a1,1,0,0,0-1,1h0a1,1,0,0,0,1,1H38a1,1,0,0,0,1-1V22.43a1,1,0,0,0-1-1h0a1,1,0,0,0-1,1V35.9A1,1,0,0,1,35.9,36.94Z"/><path class="cls-4" d="M23.29,11.43c.76,0,1.51,0,2.27,0h.31V7.49c-.4,0-.82-.09-1.25-.12-.77,0-1.55-.07-2.32,0a5.63,5.63,0,0,0-3.28,1,4.94,4.94,0,0,0-2,3.29,11.78,11.78,0,0,0-.14,1.68c0,.88,0,1.76,0,2.65v.33H13.14v4.39h3.74v11h4.57v-11h3.72c.2-1.47.38-2.91.58-4.42h-.84c-1.06,0-3.49,0-3.49,0s0-2.17,0-3.11C21.49,11.86,22.26,11.47,23.29,11.43Z"/></g></g></svg>