<svg xmlns="http://www.w3.org/2000/svg" width="40.775" height="40.774" viewBox="0 0 40.775 40.774">
  <g id="Grupo_965" data-name="Grupo 965" transform="translate(-99.5 -849.509)">
    <g id="Grupo_928" data-name="Grupo 928" transform="translate(99.5 849.509)">
      <path id="Caminho_252" data-name="Caminho 252" d="M102.757,851.68h14.081a1.086,1.086,0,0,0,1.086-1.086h0a1.086,1.086,0,0,0-1.086-1.085H100.586a1.086,1.086,0,0,0-1.086,1.085v16.252a1.086,1.086,0,0,0,1.086,1.086h0a1.085,1.085,0,0,0,1.085-1.086v-14.08A1.086,1.086,0,0,1,102.757,851.68Z" transform="translate(-99.5 -849.509)" fill="#fff"/>
      <path id="Caminho_253" data-name="Caminho 253" d="M136.053,887.147H121.972a1.086,1.086,0,0,0-1.086,1.086h0a1.085,1.085,0,0,0,1.086,1.085h16.252a1.085,1.085,0,0,0,1.086-1.085V871.981a1.086,1.086,0,0,0-1.086-1.086h0a1.086,1.086,0,0,0-1.086,1.086v14.08A1.085,1.085,0,0,1,136.053,887.147Z" transform="translate(-98.534 -848.543)" fill="#fff"/>
    </g>
    <path id="Caminho_254" data-name="Caminho 254" d="M119.877,856.616a13.27,13.27,0,1,0,6.636,24.763l-1.66-2.872a9.954,9.954,0,1,1,4.976-8.621v1.445a1.716,1.716,0,0,1-1.659,1.872,1.661,1.661,0,0,1-1.659-1.659v-6.635h-2.293a6.629,6.629,0,1,0,.161,9.82,4.946,4.946,0,0,0,3.791,1.791,5.032,5.032,0,0,0,4.976-5.19v-1.445A13.285,13.285,0,0,0,119.877,856.616Zm0,16.587a3.317,3.317,0,1,1,3.317-3.317A3.32,3.32,0,0,1,119.877,873.2Z" transform="translate(0.321 0.321)" fill="#fff"/>
  </g>
</svg>
