<svg xmlns="http://www.w3.org/2000/svg" width="40.775" height="40.775" viewBox="0 0 40.775 40.775">
  <g id="Grupo_966" data-name="Grupo 966" transform="translate(-99.5 -793.509)">
    <g id="Grupo_924" data-name="Grupo 924" transform="translate(99.5 793.509)">
      <path id="Caminho_247" data-name="Caminho 247" d="M102.757,795.68h14.081a1.086,1.086,0,0,0,1.086-1.086h0a1.086,1.086,0,0,0-1.086-1.085H100.586a1.086,1.086,0,0,0-1.086,1.085v16.252a1.086,1.086,0,0,0,1.086,1.086h0a1.085,1.085,0,0,0,1.085-1.086v-14.08A1.086,1.086,0,0,1,102.757,795.68Z" transform="translate(-99.5 -793.509)" fill="#fff"/>
      <path id="Caminho_248" data-name="Caminho 248" d="M136.053,831.147H121.972a1.086,1.086,0,0,0-1.086,1.086h0a1.086,1.086,0,0,0,1.086,1.085h16.252a1.086,1.086,0,0,0,1.086-1.085V815.981a1.086,1.086,0,0,0-1.086-1.086h0a1.086,1.086,0,0,0-1.086,1.086v14.08A1.085,1.085,0,0,1,136.053,831.147Z" transform="translate(-98.534 -792.543)" fill="#fff"/>
    </g>
    <g id="Grupo_926" data-name="Grupo 926" transform="translate(106.929 800.937)">
      <g id="Grupo_925" data-name="Grupo 925">
        <path id="Caminho_249" data-name="Caminho 249" d="M126.785,818.063a1.86,1.86,0,0,0-2.811,0c-.657.652-1.314,1.3-1.961,1.966a.385.385,0,0,1-.54.1c-.425-.232-.879-.419-1.288-.673a20.38,20.38,0,0,1-4.914-4.473,11.625,11.625,0,0,1-1.762-2.822.4.4,0,0,1,.1-.52c.657-.635,1.3-1.286,1.944-1.939a1.867,1.867,0,0,0-.005-2.877c-.514-.519-1.027-1.027-1.541-1.546-.531-.531-1.056-1.066-1.591-1.591a1.871,1.871,0,0,0-2.811.005c-.663.652-1.3,1.32-1.971,1.961a3.2,3.2,0,0,0-1.005,2.159,9.165,9.165,0,0,0,.707,3.938,23.932,23.932,0,0,0,4.247,7.074,26.284,26.284,0,0,0,8.7,6.81,12.6,12.6,0,0,0,4.821,1.4,3.533,3.533,0,0,0,3.032-1.155c.563-.629,1.2-1.2,1.8-1.806a1.879,1.879,0,0,0,.01-2.861Q128.369,819.634,126.785,818.063Z" transform="translate(-106.608 -800.506)" fill="#fff"/>
        <path id="Caminho_250" data-name="Caminho 250" d="M125.163,813.542l2.037-.348a9.146,9.146,0,0,0-7.737-7.505l-.286,2.048a7.071,7.071,0,0,1,5.987,5.8Z" transform="translate(-106.04 -800.387)" fill="#fff"/>
        <path id="Caminho_251" data-name="Caminho 251" d="M128.337,804.913a15.031,15.031,0,0,0-8.615-4.3l-.286,2.05a13.11,13.11,0,0,1,11.094,10.753l2.038-.348A15.138,15.138,0,0,0,128.337,804.913Z" transform="translate(-106.029 -800.616)" fill="#fff"/>
      </g>
    </g>
  </g>
</svg>
