<svg xmlns="http://www.w3.org/2000/svg" width="114.264" height="34.563" viewBox="0 0 114.264 34.563">
  <g id="Grupo_245" data-name="Grupo 245" transform="translate(18372.531 6489.213)">
    <text id="BAIXAR_EDITAL" data-name="BAIXAR EDITAL" transform="translate(-18331.52 -6476.847)" fill="#015c92" font-size="12" font-family="Anton-Regular, Anton"><tspan x="0" y="14">BAIXAR EDITAL</tspan></text>
    <path id="Caminho_97" data-name="Caminho 97" d="M406.068,4150.953h27.148v-13.3H406.068Zm18.622-11.018h5.534v2.024h-3.51v1.887h2.79v2.025h-2.79v2.9H424.69Zm-7.984,0h3.217a2.977,2.977,0,0,1,2.974,2.974v2.861a2.977,2.977,0,0,1-2.974,2.974h-3.217Zm-7.776,0h3.222a2.969,2.969,0,1,1,0,5.937h-1.2v2.9h-2.025Z" transform="translate(-18772.535 -10612.419)" fill="#015c92"/>
    <path id="Caminho_98" data-name="Caminho 98" d="M428.254,4148.283v-2.861a.951.951,0,0,0-.949-.949h-1.191v4.759H427.3a.951.951,0,0,0,.949-.949Z" transform="translate(-18779.918 -10614.934)" fill="#015c92"/>
    <path id="Caminho_99" data-name="Caminho 99" d="M400.508,4144.558V4127.2h21.815v-12.416H406.015v9.543h-9.546v25.02h25.854v-4.792Zm7.981-22.166h9.277v2.026h-9.277Z" transform="translate(-18769 -10604)" fill="#015c92"/>
    <path id="Caminho_100" data-name="Caminho 100" d="M403.993,4114.792l-7.515,7.515h7.515Z" transform="translate(-18769.004 -10604.002)" fill="#015c92"/>
    <path id="Caminho_101" data-name="Caminho 101" d="M433.514,4133.5h84.667a5.259,5.259,0,0,1,5.078,5.423v7.346a5.259,5.259,0,0,1-5.078,5.424H433.514" transform="translate(-18782.025 -10610.708)" fill="none" stroke="#015c92" stroke-miterlimit="10" stroke-width="1" fill-rule="evenodd"/>
  </g>
</svg>
