<svg xmlns="http://www.w3.org/2000/svg" viewBox="0 0 62.27 32.14"><defs><style>.cls-1{font-size:6.68px;font-family:MyriadPro-Regular, Myriad Pro;}.cls-1,.cls-4{fill:#fff;}.cls-2{letter-spacing:-0.01em;}.cls-3{letter-spacing:-0.01em;}</style></defs><title>Asset 7</title><g id="Layer_2" data-name="Layer 2"><g id="_002_-NOTÍCIA_ABERTA" data-name="002 -NOTÍCIA ABERTA"><text class="cls-1" transform="translate(33.35 30.47)">insta<tspan class="cls-2" x="13.35" y="0">g</tspan><tspan class="cls-3" x="17.04" y="0">r</tspan><tspan x="19.2" y="0">am</tspan></text><path class="cls-4" d="M2.44,1.63H13A.82.82,0,0,0,13.8.81h0A.81.81,0,0,0,13,0H.81A.81.81,0,0,0,0,.81V13a.81.81,0,0,0,.81.81h0A.82.82,0,0,0,1.63,13V2.44A.81.81,0,0,1,2.44,1.63Z"/><path class="cls-4" d="M28.11,28.92H17.56a.82.82,0,0,0-.82.81h0a.82.82,0,0,0,.82.82H29.73a.82.82,0,0,0,.82-.82V17.56a.82.82,0,0,0-.82-.82h0a.82.82,0,0,0-.81.82V28.11A.82.82,0,0,1,28.11,28.92Z"/><path class="cls-4" d="M19.62,5.56h-8.7a5.37,5.37,0,0,0-5.36,5.36v8.7A5.37,5.37,0,0,0,10.92,25h8.7A5.36,5.36,0,0,0,25,19.62v-8.7A5.37,5.37,0,0,0,19.62,5.56Zm3.64,14.06a3.64,3.64,0,0,1-3.64,3.64h-8.7a3.64,3.64,0,0,1-3.63-3.64v-8.7a3.64,3.64,0,0,1,3.63-3.63h8.7a3.64,3.64,0,0,1,3.64,3.63v8.7Z"/><path class="cls-4" d="M15.27,10.27a5,5,0,1,0,5,5A5,5,0,0,0,15.27,10.27Zm0,8.28a3.28,3.28,0,1,1,3.28-3.28A3.28,3.28,0,0,1,15.27,18.55Z"/><path class="cls-4" d="M20.49,8.81a1.26,1.26,0,0,0-.9.37,1.28,1.28,0,0,0-.37.89,1.32,1.32,0,0,0,.37.9,1.27,1.27,0,0,0,1.79,0,1.32,1.32,0,0,0,.37-.9,1.28,1.28,0,0,0-.37-.89A1.26,1.26,0,0,0,20.49,8.81Z"/></g></g></svg>