<svg id="Grupo_1061" data-name="Grupo 1061" xmlns="http://www.w3.org/2000/svg" width="256.766" height="45.506" viewBox="0 0 256.766 45.506">
  <path id="Caminho_319" data-name="Caminho 319" d="M77.351,398.4a2.057,2.057,0,0,0-1.749-.928,2.316,2.316,0,0,0,.026,4.621,2.133,2.133,0,0,0,1.723-.89l.39.322a2.551,2.551,0,0,1-2.145,1.062,2.825,2.825,0,0,1,0-5.638,2.465,2.465,0,0,1,2.145,1.13Z" transform="translate(-30.366 -359.518)" fill="#fff"/>
  <path id="Caminho_320" data-name="Caminho 320" d="M83.275,400.733a1.9,1.9,0,1,1-3.787,0,1.9,1.9,0,1,1,3.787,0m-3.307.008a1.424,1.424,0,1,0,2.83,0,1.428,1.428,0,1,0-2.83,0" transform="translate(-31.356 -359.773)" fill="#fff"/>
  <path id="Caminho_321" data-name="Caminho 321" d="M85.429,399.445a1.643,1.643,0,0,1,1.36-.817c.793,0,1.348.6,1.348,1.85v2.232h-.466v-2.165c0-.935-.266-1.452-.972-1.452a1.139,1.139,0,0,0-.956.539,2.225,2.225,0,0,0-.315,1.408v1.67h-.463v-3.977h.463Z" transform="translate(-32.186 -359.773)" fill="#fff"/>
  <path id="Caminho_322" data-name="Caminho 322" d="M90.05,397.837c0-.644.144-1.026.739-1.026a1.569,1.569,0,0,1,.532.114v.5a.968.968,0,0,0-.436-.121c-.384,0-.369.255-.369.615v.538h.764v.45h-.764v3.528H90.05v-3.528h-.478v-.45h.478Z" transform="translate(-32.883 -359.497)" fill="#fff"/>
  <path id="Caminho_323" data-name="Caminho 323" d="M92.74,400.763a1.457,1.457,0,0,0,1.367,1.58,1.519,1.519,0,0,0,1.387-.951l.39.225a1.808,1.808,0,0,1-1.729,1.19,1.939,1.939,0,0,1-1.893-2.074,1.975,1.975,0,0,1,1.867-2.1,1.947,1.947,0,0,1,1.879,2.135Zm2.755-.449a1.364,1.364,0,0,0-2.705,0Z" transform="translate(-33.29 -359.773)" fill="#fff"/>
  <path id="Caminho_324" data-name="Caminho 324" d="M100.874,401.773a1.785,1.785,0,0,1-1.462.778,2.1,2.1,0,0,1,.013-4.179,1.681,1.681,0,0,1,1.449.832v-2.261h.464v5.511h-.464Zm-2.843-1.3a1.536,1.536,0,0,0,1.428,1.618,1.62,1.62,0,0,0,.007-3.22,1.519,1.519,0,0,0-1.435,1.6" transform="translate(-34.091 -359.518)" fill="#fff"/>
  <path id="Caminho_325" data-name="Caminho 325" d="M103.485,400.763a1.457,1.457,0,0,0,1.366,1.58,1.517,1.517,0,0,0,1.387-.951l.39.225a1.807,1.807,0,0,1-1.728,1.19,1.938,1.938,0,0,1-1.893-2.074,1.974,1.974,0,0,1,1.866-2.1,1.948,1.948,0,0,1,1.88,2.135Zm2.753-.449a1.364,1.364,0,0,0-2.705,0Z" transform="translate(-34.917 -359.773)" fill="#fff"/>
  <path id="Caminho_326" data-name="Caminho 326" d="M108.756,399.31c.273-.434.567-.682.937-.682a.693.693,0,0,1,.417.135l-.246.435a.521.521,0,0,0-.245-.075c-.342,0-.649.322-.786.869a5.935,5.935,0,0,0-.076,1.207v1.511h-.491v-3.977h.491Z" transform="translate(-35.713 -359.773)" fill="#fff"/>
  <path id="Caminho_327" data-name="Caminho 327" d="M114.019,398.733h.457v3.977h-.457v-.681a1.789,1.789,0,0,1-1.465.778,2.1,2.1,0,0,1,.014-4.179,1.683,1.683,0,0,1,1.45.832Zm-2.845,1.992a1.537,1.537,0,0,0,1.43,1.618,1.62,1.62,0,0,0,.006-3.22,1.518,1.518,0,0,0-1.436,1.6" transform="translate(-36.081 -359.773)" fill="#fff"/>
  <path id="Caminho_328" data-name="Caminho 328" d="M119.935,401.91a1.891,1.891,0,0,1-1.628.9l-.04.339a.606.606,0,0,1,.122-.016.38.38,0,0,1,.39.39c0,.322-.28.585-.765.585a1.477,1.477,0,0,1-.561-.113l.076-.255a1.146,1.146,0,0,0,.4.075c.287,0,.451-.082.451-.239,0-.09-.083-.157-.206-.157a1.305,1.305,0,0,0-.233.036l.083-.65a2,2,0,0,1-1.785-2.045,2.031,2.031,0,0,1,2.031-2.12,1.832,1.832,0,0,1,1.668.922l-.376.255a1.581,1.581,0,1,0-1.306,2.531,1.564,1.564,0,0,0,1.306-.7Z" transform="translate(-36.92 -359.774)" fill="#fff"/>
  <path id="Caminho_329" data-name="Caminho 329" d="M124.843,398.472h.458v3.977h-.458v-.681a1.785,1.785,0,0,1-1.462.778,2.1,2.1,0,0,1,.014-4.179,1.683,1.683,0,0,1,1.449.832ZM122,400.463a1.536,1.536,0,0,0,1.428,1.618,1.62,1.62,0,0,0,.007-3.22,1.519,1.519,0,0,0-1.435,1.6M124.487,397l.233.351a1.138,1.138,0,0,1-.752.322c-.436,0-.636-.306-.95-.306a.86.86,0,0,0-.526.261l-.218-.374a.948.948,0,0,1,.751-.351c.383,0,.649.277.957.277a.974.974,0,0,0,.506-.18" transform="translate(-37.72 -359.511)" fill="#fff"/>
  <path id="Caminho_330" data-name="Caminho 330" d="M130.768,400.733a1.9,1.9,0,1,1-3.786,0,1.9,1.9,0,1,1,3.786,0m-3.309.008a1.424,1.424,0,1,0,2.83,0,1.428,1.428,0,1,0-2.83,0" transform="translate(-38.546 -359.773)" fill="#fff"/>
  <path id="Caminho_331" data-name="Caminho 331" d="M134.874,402.479V397.1h.1l3.254,4.12V397.1h.491v5.377h-.109l-3.247-4.066v4.066Z" transform="translate(-39.741 -359.542)" fill="#fff"/>
  <path id="Caminho_332" data-name="Caminho 332" d="M143.825,398.733h.457v3.977h-.457v-.681a1.788,1.788,0,0,1-1.464.778,2.1,2.1,0,0,1,.014-4.179,1.682,1.682,0,0,1,1.449.832Zm-2.844,1.992a1.537,1.537,0,0,0,1.429,1.618,1.62,1.62,0,0,0,.006-3.22,1.518,1.518,0,0,0-1.435,1.6" transform="translate(-40.593 -359.773)" fill="#fff"/>
  <path id="Caminho_333" data-name="Caminho 333" d="M149.743,401.909a1.9,1.9,0,0,1-1.7.9,1.98,1.98,0,0,1-2-2.051,2.038,2.038,0,0,1,2.031-2.127,1.84,1.84,0,0,1,1.668.929l-.377.255a1.553,1.553,0,0,0-2.843.906,1.545,1.545,0,0,0,1.537,1.625,1.566,1.566,0,0,0,1.306-.7Z" transform="translate(-41.432 -359.773)" fill="#fff"/>
  <path id="Caminho_334" data-name="Caminho 334" d="M151.947,397.239a.415.415,0,0,1-.389.428.41.41,0,0,1-.384-.428.4.4,0,0,1,.384-.419.407.407,0,0,1,.389.419m-.617,1.22h.466v3.977h-.466Z" transform="translate(-42.209 -359.499)" fill="#fff"/>
  <path id="Caminho_335" data-name="Caminho 335" d="M156.675,400.733a1.9,1.9,0,1,1-3.787,0,1.9,1.9,0,1,1,3.787,0m-3.307.008a1.424,1.424,0,1,0,2.83,0,1.428,1.428,0,1,0-2.83,0" transform="translate(-42.468 -359.773)" fill="#fff"/>
  <path id="Caminho_336" data-name="Caminho 336" d="M158.83,399.445a1.641,1.641,0,0,1,1.36-.817c.793,0,1.346.6,1.346,1.85v2.232h-.464v-2.165c0-.935-.266-1.452-.971-1.452a1.138,1.138,0,0,0-.956.539,2.225,2.225,0,0,0-.315,1.408v1.67h-.466v-3.977h.466Z" transform="translate(-43.297 -359.773)" fill="#fff"/>
  <path id="Caminho_337" data-name="Caminho 337" d="M166.407,398.733h.458v3.977h-.458v-.681a1.787,1.787,0,0,1-1.464.778,2.1,2.1,0,0,1,.014-4.179,1.682,1.682,0,0,1,1.449.832Zm-2.843,1.992a1.535,1.535,0,0,0,1.428,1.618,1.62,1.62,0,0,0,.007-3.22,1.517,1.517,0,0,0-1.435,1.6" transform="translate(-44.012 -359.773)" fill="#fff"/>
  <rect id="Ret창ngulo_919" data-name="Ret창ngulo 919" width="0.464" height="5.511" transform="translate(123.879 37.426)" fill="#fff"/>
  <path id="Caminho_338" data-name="Caminho 338" d="M175.844,401.773a1.784,1.784,0,0,1-1.463.778,2.1,2.1,0,0,1,.014-4.179,1.679,1.679,0,0,1,1.449.832v-2.261h.466v5.511h-.466ZM173,400.47a1.536,1.536,0,0,0,1.428,1.618,1.621,1.621,0,0,0,.007-3.22,1.518,1.518,0,0,0-1.435,1.6" transform="translate(-45.441 -359.518)" fill="#fff"/>
  <path id="Caminho_339" data-name="Caminho 339" d="M181.843,400.733a1.9,1.9,0,1,1-3.787,0,1.9,1.9,0,1,1,3.787,0m-3.309.008a1.424,1.424,0,1,0,2.831,0,1.428,1.428,0,1,0-2.831,0" transform="translate(-46.278 -359.773)" fill="#fff"/>
  <path id="Caminho_340" data-name="Caminho 340" d="M183.426,401.878a1,1,0,0,0,.757.443.669.669,0,0,0,.671-.659.647.647,0,0,0-.3-.554c-.832-.509-1.257-.726-1.257-1.423a1,1,0,0,1,1-1.057,1.364,1.364,0,0,1,1,.54l-.3.338a.984.984,0,0,0-.731-.383.536.536,0,0,0-.546.531.66.66,0,0,0,.279.532c.833.532,1.3.735,1.3,1.452a1.119,1.119,0,0,1-1.092,1.176,1.324,1.324,0,0,1-1.073-.569Z" transform="translate(-47.047 -359.773)" fill="#fff"/>
  <path id="Caminho_341" data-name="Caminho 341" d="M188.413,397.626V397.1h2.693v.525h-1.092v4.852h-.494v-4.852Z" transform="translate(-47.846 -359.541)" fill="#fff"/>
  <path id="Caminho_342" data-name="Caminho 342" d="M192.417,399.31c.272-.434.567-.682.937-.682a.688.688,0,0,1,.416.135l-.245.435a.527.527,0,0,0-.245-.075c-.344,0-.65.322-.786.869a5.873,5.873,0,0,0-.076,1.207v1.511h-.49v-3.977h.49Z" transform="translate(-48.378 -359.773)" fill="#fff"/>
  <path id="Caminho_343" data-name="Caminho 343" d="M197.678,398.733h.459v3.977h-.459v-.681a1.786,1.786,0,0,1-1.464.778,2.1,2.1,0,0,1,.015-4.179,1.679,1.679,0,0,1,1.449.832Zm-2.843,1.992a1.536,1.536,0,0,0,1.429,1.618,1.62,1.62,0,0,0,.006-3.22,1.518,1.518,0,0,0-1.435,1.6" transform="translate(-48.746 -359.773)" fill="#fff"/>
  <path id="Caminho_344" data-name="Caminho 344" d="M200.524,402.455h-.464v-5.512h.464v2.217a1.78,1.78,0,0,1,1.456-.787,2.106,2.106,0,0,1-.014,4.186,1.683,1.683,0,0,1-1.442-.838Zm2.844-2a1.541,1.541,0,0,0-1.437-1.617,1.491,1.491,0,0,0-1.44,1.6,1.448,1.448,0,1,0,2.877.015" transform="translate(-49.609 -359.517)" fill="#fff"/>
  <path id="Caminho_345" data-name="Caminho 345" d="M208.7,398.733h.459v3.977H208.7v-.681a1.784,1.784,0,0,1-1.461.778,2.1,2.1,0,0,1,.013-4.179,1.68,1.68,0,0,1,1.449.832Zm-2.842,1.992a1.535,1.535,0,0,0,1.428,1.618,1.62,1.62,0,0,0,.007-3.22,1.518,1.518,0,0,0-1.435,1.6" transform="translate(-50.414 -359.773)" fill="#fff"/>
  <rect id="Ret창ngulo_920" data-name="Ret창ngulo 920" width="0.464" height="5.511" transform="translate(159.765 37.426)" fill="#fff"/>
  <path id="Caminho_346" data-name="Caminho 346" d="M212.7,396.944h.464v2.246a1.635,1.635,0,0,1,1.361-.817c.786,0,1.337.608,1.337,1.8v2.283h-.464V400.29c0-.935-.259-1.452-.963-1.452a1.137,1.137,0,0,0-.956.539,2.238,2.238,0,0,0-.315,1.408v1.67H212.7Z" transform="translate(-51.522 -359.518)" fill="#fff"/>
  <path id="Caminho_347" data-name="Caminho 347" d="M220.736,398.733h.457v3.977h-.457v-.681a1.785,1.785,0,0,1-1.463.778,2.1,2.1,0,0,1,.014-4.179,1.681,1.681,0,0,1,1.449.832Zm-2.844,1.992a1.536,1.536,0,0,0,1.428,1.618,1.62,1.62,0,0,0,.007-3.22,1.518,1.518,0,0,0-1.435,1.6" transform="translate(-52.236 -359.773)" fill="#fff"/>
  <path id="Caminho_348" data-name="Caminho 348" d="M226.292,401.773a1.783,1.783,0,0,1-1.462.778,2.1,2.1,0,0,1,.015-4.179,1.678,1.678,0,0,1,1.447.832v-2.261h.468v5.511h-.468Zm-2.843-1.3a1.537,1.537,0,0,0,1.431,1.618,1.62,1.62,0,0,0,.005-3.22,1.518,1.518,0,0,0-1.436,1.6" transform="translate(-53.078 -359.518)" fill="#fff"/>
  <path id="Caminho_349" data-name="Caminho 349" d="M232.291,400.733a1.9,1.9,0,1,1-3.786,0,1.9,1.9,0,1,1,3.786,0m-3.306.008a1.423,1.423,0,1,0,2.829,0,1.427,1.427,0,1,0-2.829,0" transform="translate(-53.915 -359.773)" fill="#fff"/>
  <path id="Caminho_350" data-name="Caminho 350" d="M234.256,399.31c.273-.434.567-.682.936-.682a.7.7,0,0,1,.418.135l-.245.435a.535.535,0,0,0-.247-.075c-.342,0-.648.322-.786.869a6,6,0,0,0-.076,1.207v1.511h-.491v-3.977h.491Z" transform="translate(-54.712 -359.773)" fill="#fff"/>
  <path id="Caminho_351" data-name="Caminho 351" d="M236.666,400.763a1.457,1.457,0,0,0,1.367,1.58,1.522,1.522,0,0,0,1.387-.951l.39.225a1.808,1.808,0,0,1-1.729,1.19,1.937,1.937,0,0,1-1.892-2.074,1.974,1.974,0,0,1,1.864-2.1,1.95,1.95,0,0,1,1.881,2.135Zm2.755-.449a1.364,1.364,0,0,0-2.706,0Z" transform="translate(-55.079 -359.773)" fill="#fff"/>
  <path id="Caminho_352" data-name="Caminho 352" d="M241.555,401.878a1.006,1.006,0,0,0,.759.443.669.669,0,0,0,.671-.659.651.651,0,0,0-.3-.554c-.836-.509-1.258-.726-1.258-1.423a1,1,0,0,1,1-1.057,1.373,1.373,0,0,1,1.006.54l-.3.338a.984.984,0,0,0-.731-.383.538.538,0,0,0-.549.531.669.669,0,0,0,.282.532c.834.532,1.3.735,1.3,1.452a1.12,1.12,0,0,1-1.094,1.176,1.325,1.325,0,0,1-1.074-.569Z" transform="translate(-55.847 -359.773)" fill="#fff"/>
  <path id="Caminho_353" data-name="Caminho 353" d="M250.164,401.773a1.786,1.786,0,0,1-1.464.778,2.1,2.1,0,0,1,.014-4.179,1.681,1.681,0,0,1,1.45.832v-2.261h.464v5.511h-.464Zm-2.843-1.3a1.535,1.535,0,0,0,1.427,1.618,1.621,1.621,0,0,0,.008-3.22,1.517,1.517,0,0,0-1.436,1.6" transform="translate(-56.691 -359.518)" fill="#fff"/>
  <path id="Caminho_354" data-name="Caminho 354" d="M256.161,400.733a1.9,1.9,0,1,1-3.787,0,1.9,1.9,0,1,1,3.787,0m-3.308.008a1.423,1.423,0,1,0,2.829,0,1.427,1.427,0,1,0-2.829,0" transform="translate(-57.529 -359.773)" fill="#fff"/>
  <path id="Caminho_355" data-name="Caminho 355" d="M260.2,397.1h1.128a3.326,3.326,0,0,1,1.14.136,1.334,1.334,0,0,1,.808,1.295,1.4,1.4,0,0,1-.143.666c-.254.563-.746.78-1.558.78l1.768,2.5h-.608l-1.763-2.5h-.28v2.5H260.2Zm.491.525v1.827c.275,0,.553.008.814.008a1.431,1.431,0,0,0,.962-.233.939.939,0,0,0,.3-.7c0-.524-.328-.905-1.066-.905Z" transform="translate(-58.713 -359.541)" fill="#fff"/>
  <path id="Caminho_356" data-name="Caminho 356" d="M268.107,398.733h.457v3.977h-.457v-.681a1.782,1.782,0,0,1-1.461.778,2.1,2.1,0,0,1,.013-4.179,1.681,1.681,0,0,1,1.449.832Zm-2.842,1.992a1.535,1.535,0,0,0,1.427,1.618,1.622,1.622,0,1,0-1.427-1.618" transform="translate(-59.408 -359.773)" fill="#fff"/>
  <path id="Caminho_357" data-name="Caminho 357" d="M273.46,402.71h-.466v-2.037c0-.307-.026-.561-.033-.741a.819.819,0,0,0-.821-.81,1.055,1.055,0,0,0-.847.464,2.42,2.42,0,0,0-.306,1.438v1.684h-.466v-3.977h.466v.681a1.44,1.44,0,0,1,1.242-.787,1.162,1.162,0,0,1,1.147.959,1.515,1.515,0,0,1,1.334-.959c.751,0,1.236.593,1.236,1.724v2.358h-.464v-2.172c0-.292-.035-.524-.041-.675a.812.812,0,0,0-.821-.741,1.119,1.119,0,0,0-1.033.81,3.046,3.046,0,0,0-.129,1.04Z" transform="translate(-60.276 -359.773)" fill="#fff"/>
  <path id="Caminho_358" data-name="Caminho 358" d="M281.7,400.733a1.9,1.9,0,1,1-3.787,0,1.9,1.9,0,1,1,3.787,0m-3.31.008a1.424,1.424,0,1,0,2.831,0,1.428,1.428,0,1,0-2.831,0" transform="translate(-61.395 -359.773)" fill="#fff"/>
  <path id="Caminho_359" data-name="Caminho 359" d="M285.7,397.1h2.46v.525h-1.969v1.685h1.969v.524h-1.969v2.644H285.7Z" transform="translate(-62.574 -359.542)" fill="#fff"/>
  <path id="Caminho_360" data-name="Caminho 360" d="M290.106,397.239a.414.414,0,0,1-.388.428.409.409,0,0,1-.383-.428.4.4,0,0,1,.383-.419.406.406,0,0,1,.388.419m-.613,1.22h.464v3.977h-.464Z" transform="translate(-63.124 -359.499)" fill="#fff"/>
  <path id="Caminho_361" data-name="Caminho 361" d="M291.635,399.445a1.642,1.642,0,0,1,1.36-.817c.793,0,1.346.6,1.346,1.85v2.232h-.465v-2.165c0-.935-.266-1.452-.97-1.452a1.135,1.135,0,0,0-.956.539,2.22,2.22,0,0,0-.315,1.408v1.67h-.464v-3.977h.464Z" transform="translate(-63.402 -359.773)" fill="#fff"/>
  <path id="Caminho_362" data-name="Caminho 362" d="M299.211,398.733h.457v3.977h-.457v-.681a1.786,1.786,0,0,1-1.464.778,2.1,2.1,0,0,1,.015-4.179,1.683,1.683,0,0,1,1.449.832Zm-2.845,1.992a1.537,1.537,0,0,0,1.429,1.618,1.62,1.62,0,0,0,.007-3.22,1.518,1.518,0,0,0-1.436,1.6" transform="translate(-64.117 -359.773)" fill="#fff"/>
  <path id="Caminho_363" data-name="Caminho 363" d="M302.1,399.445a1.642,1.642,0,0,1,1.36-.817c.793,0,1.346.6,1.346,1.85v2.232h-.464v-2.165c0-.935-.266-1.452-.971-1.452a1.138,1.138,0,0,0-.956.539,2.22,2.22,0,0,0-.315,1.408v1.67h-.464v-3.977h.464Z" transform="translate(-64.986 -359.773)" fill="#fff"/>
  <path id="Caminho_364" data-name="Caminho 364" d="M310.04,401.909a1.9,1.9,0,0,1-1.7.9,1.979,1.979,0,0,1-2-2.051,2.037,2.037,0,0,1,2.029-2.127,1.838,1.838,0,0,1,1.668.929l-.376.255a1.554,1.554,0,0,0-2.845.906,1.546,1.546,0,0,0,1.539,1.625,1.564,1.564,0,0,0,1.306-.7Z" transform="translate(-65.699 -359.773)" fill="#fff"/>
  <path id="Caminho_365" data-name="Caminho 365" d="M312.1,400.763a1.457,1.457,0,0,0,1.367,1.58,1.521,1.521,0,0,0,1.387-.951l.389.225a1.81,1.81,0,0,1-1.729,1.19,1.939,1.939,0,0,1-1.895-2.074,1.976,1.976,0,0,1,1.867-2.1,1.947,1.947,0,0,1,1.879,2.135Zm2.755-.449a1.365,1.365,0,0,0-2.707,0Z" transform="translate(-66.497 -359.773)" fill="#fff"/>
  <path id="Caminho_366" data-name="Caminho 366" d="M317.609,397.239a.414.414,0,0,1-.39.428.409.409,0,0,1-.383-.428.4.4,0,0,1,.383-.419.407.407,0,0,1,.39.419m-.614,1.22h.464v3.977h-.464Z" transform="translate(-67.288 -359.499)" fill="#fff"/>
  <path id="Caminho_367" data-name="Caminho 367" d="M318.946,399.31c.276-.434.567-.682.937-.682a.7.7,0,0,1,.418.135l-.245.435a.525.525,0,0,0-.247-.075c-.341,0-.648.322-.786.869a6,6,0,0,0-.076,1.207v1.511h-.492v-3.977h.492Z" transform="translate(-67.533 -359.773)" fill="#fff"/>
  <path id="Caminho_368" data-name="Caminho 368" d="M324.666,400.733a1.9,1.9,0,1,1-3.786,0,1.9,1.9,0,1,1,3.786,0m-3.308.008a1.424,1.424,0,1,0,2.831,0,1.428,1.428,0,1,0-2.831,0" transform="translate(-67.9 -359.773)" fill="#fff"/>
  <path id="Caminho_369" data-name="Caminho 369" d="M43.356,353.356A20.147,20.147,0,0,1,60,362.653a19.081,19.081,0,0,0-13.981-6.2,19.4,19.4,0,0,0-19.137,19.695c0,10.839,8.583,19.694,19.137,19.694a18.961,18.961,0,0,0,12.694-4.9,20,20,0,0,1-15.358,7.482c-11.4,0-20.586-10.062-20.586-22.537,0-12.38,9.19-22.532,20.586-22.532" transform="translate(-22.77 -352.919)" fill="#fff" fill-rule="evenodd"/>
  <path id="Caminho_370" data-name="Caminho 370" d="M44.866,372.215a6.167,6.167,0,0,1,5.917,6.444,6.231,6.231,0,0,1-5.917,6.455c-3.26,0-5.911-2.931-5.911-6.455a6.166,6.166,0,0,1,5.911-6.444" transform="translate(-25.22 -355.774)" fill="#fff" fill-rule="evenodd"/>
  <path id="Caminho_371" data-name="Caminho 371" d="M57.617,367.551a2.718,2.718,0,0,1,0,5.415,2.727,2.727,0,0,1,0-5.415" transform="translate(-27.682 -355.068)" fill="#fff" fill-rule="evenodd"/>
  <path id="Caminho_372" data-name="Caminho 372" d="M57.617,376.978a2.581,2.581,0,0,1,2.483,2.665,2.609,2.609,0,0,1-2.483,2.755,2.55,2.55,0,0,1-2.4-2.755,2.519,2.519,0,0,1,2.4-2.665" transform="translate(-27.682 -356.495)" fill="#fff" fill-rule="evenodd"/>
  <path id="Caminho_373" data-name="Caminho 373" d="M57.617,386.4a2.72,2.72,0,0,1,0,5.419,2.73,2.73,0,0,1,0-5.419" transform="translate(-27.682 -357.921)" fill="#fff" fill-rule="evenodd"/>
  <path id="Caminho_374" data-name="Caminho 374" d="M64.914,371.2a1.9,1.9,0,1,1-1.711,1.89,1.816,1.816,0,0,1,1.711-1.89" transform="translate(-28.891 -355.62)" fill="#fff" fill-rule="evenodd"/>
  <path id="Caminho_375" data-name="Caminho 375" d="M64.914,377.781a1.9,1.9,0,1,1-1.711,1.894,1.82,1.82,0,0,1,1.711-1.894" transform="translate(-28.891 -356.617)" fill="#fff" fill-rule="evenodd"/>
  <path id="Caminho_376" data-name="Caminho 376" d="M64.914,384.373a1.815,1.815,0,0,1,1.716,1.888,1.722,1.722,0,1,1-3.427,0,1.815,1.815,0,0,1,1.711-1.888" transform="translate(-28.891 -357.615)" fill="#fff" fill-rule="evenodd"/>
  <path id="Caminho_377" data-name="Caminho 377" d="M71.891,377.986A1.742,1.742,0,0,1,73.6,379.8a1.724,1.724,0,1,1-3.433,0,1.748,1.748,0,0,1,1.72-1.809" transform="translate(-29.946 -356.648)" fill="#fff" fill-rule="evenodd"/>
  <path id="Caminho_378" data-name="Caminho 378" d="M108.5,380.8a1.827,1.827,0,0,1-.442.967,12.315,12.315,0,0,1-10.279,5.04,13.18,13.18,0,0,1-10.637-4.9,18,18,0,0,1-3.972-11.967,18.45,18.45,0,0,1,3.889-11.875,12.622,12.622,0,0,1,10.321-5.109q6.81,0,10.678,4.58a1.5,1.5,0,0,1,.421.9,15.063,15.063,0,0,1-1.461,3.246,19.111,19.111,0,0,1-1.839,3.153.546.546,0,0,1-.421.184,5.693,5.693,0,0,1-1.051-.92,11.131,11.131,0,0,0-2.229-1.727,7.014,7.014,0,0,0-3.447-.92,5.818,5.818,0,0,0-4.939,2.531,9.611,9.611,0,0,0-1.7,5.8,9.8,9.8,0,0,0,1.7,5.869,5.785,5.785,0,0,0,4.939,2.577,7.275,7.275,0,0,0,3.469-.874,10.668,10.668,0,0,0,2.186-1.612,5.365,5.365,0,0,1,1.03-.873.573.573,0,0,1,.419.253q.339.415,1.83,2.878A17.281,17.281,0,0,1,108.5,380.8" transform="translate(-31.913 -352.858)" fill="#fff"/>
  <path id="Caminho_379" data-name="Caminho 379" d="M144.8,369.871a17.8,17.8,0,0,1-4.183,12.036,14.249,14.249,0,0,1-21.589-.046,19.268,19.268,0,0,1,0-24.026,14.117,14.117,0,0,1,21.546,0,17.85,17.85,0,0,1,4.225,12.036m-7.968-.047a9.163,9.163,0,0,0-1.912-5.867,6.268,6.268,0,0,0-10.132.091,9.806,9.806,0,0,0-.126,11.693,6.4,6.4,0,0,0,10.2-.139,9.016,9.016,0,0,0,1.975-5.777" transform="translate(-36.706 -352.841)" fill="#fff"/>
  <path id="Caminho_380" data-name="Caminho 380" d="M181.964,354.476q0,2.625-.2,7.883t-.2,7.9v15.166a.543.543,0,0,1-.608.621q-.5,0-1.525.047t-1.523.046c-.364,0-.911-.031-1.639-.093s-1.276-.092-1.641-.092q-.378,0-.9-.759-1.515-2.233-6.81-9.9-1.451-2.141-4.414-6.306a.925.925,0,0,0-.317-.276.68.68,0,0,0-.167.506q0,2.671.136,8.009t.137,8.008c0,.538-.189.805-.567.805h-7.273c-.407,0-.611-.237-.611-.713q0-2.486.221-7.5t.221-7.525q0-2.646-.2-7.916t-.2-7.894c0-.338.275-.507.821-.507a29.84,29.84,0,0,0,3.006-.185q.421-.045,1.66-.3a9.161,9.161,0,0,1,1.662-.206q.252,0,.777.782l7.841,11.76q1.05,1.587,3.174,4.649.524.713.9.714.274,0,.273-1.795,0-2.417-.242-7.274t-.24-7.294c0-.568.144-.851.44-.851q1.26,0,3.8-.115t3.8-.115c.266,0,.4.238.4.713" transform="translate(-42.612 -352.911)" fill="#fff"/>
  <path id="Caminho_381" data-name="Caminho 381" d="M211.707,360.837a.409.409,0,0,1-.462.461q-.8,0-6.328-.345-.123,5.821-.124,8.124,0,2.715.2,8.17t.2,8.17c0,.292-.064.475-.189.552a2.431,2.431,0,0,1-.59.115,27.439,27.439,0,0,1-3.7.184,26.28,26.28,0,0,1-3.8-.184.656.656,0,0,1-.589-.713q0-2.716.21-8.148t.212-8.146q0-1.8-.17-8.009a64.807,64.807,0,0,1-6.706.461c-.224,0-.335-.077-.335-.23a14.932,14.932,0,0,1,.292-1.773c.227-1.074.351-1.725.381-1.956.042-.721.088-1.442.144-2.163q.149-1.726.506-1.726c.028,0,.126.008.294.024a77.7,77.7,0,0,0,10.069.483q1.894,0,6.98-.438,2.732-.229,2.753-.23a1.065,1.065,0,0,1,.484.057.93.93,0,0,1,.085.45q0,.62-.043,1.726c-.026.813-.042,1.388-.042,1.726a15.258,15.258,0,0,0,.137,1.691,15.34,15.34,0,0,1,.136,1.668" transform="translate(-48.015 -352.944)" fill="#fff"/>
  <path id="Caminho_382" data-name="Caminho 382" d="M243.369,385.878c0,.108-.139.183-.421.23a33.093,33.093,0,0,1-4.015.138,32.494,32.494,0,0,1-3.741-.138,2.022,2.022,0,0,1-.525-.115,1.016,1.016,0,0,1-.3-.46q-.316-.9-.924-2.67-.821-2.3-2.564-6.788a1.827,1.827,0,0,0-1.745-.99q.629.046-2.165.047c-.21,0-.315.39-.315,1.174q0,1.566.263,4.672t.262,4.672c0,.261-.064.413-.191.46l-.586.047c-.829.061-2.116.092-3.869.092a25.338,25.338,0,0,1-3.615-.138.681.681,0,0,1-.609-.713q0-2.532.22-7.641t.221-7.663q0-9.734-.4-15.189l-.02-.322c-.014-.261.205-.438.661-.53s2.6-.185,6.421-.277q3.887-.092,6.2-.092a12.315,12.315,0,0,1,7.82,2.37,9.193,9.193,0,0,1,3.426,7.71,13.49,13.49,0,0,1-.883,5.362,10.65,10.65,0,0,1-3.257,3.89q-.484.368-.484.69,0-.023,2.564,5.777a43.91,43.91,0,0,1,2.564,6.4m-8.827-20.643q0-2.809-1.683-3.889a7.779,7.779,0,0,0-4.078-.829q-2,0-2.122.668a43.168,43.168,0,0,0-.128,4.51q0,.53.022,1.565c.013.691.021,1.205.021,1.542q0,.116.671.23a16.843,16.843,0,0,0,2.692.208q4.6,0,4.6-4" transform="translate(-52.373 -352.968)" fill="#fff"/>
  <path id="Caminho_383" data-name="Caminho 383" d="M278.042,385.458c0,.277-.174.468-.525.575a21.939,21.939,0,0,1-3.909.184,24.105,24.105,0,0,1-3.868-.184,1.191,1.191,0,0,1-.9-1.035q-.715-3.315-1.113-3.544a42.329,42.329,0,0,0-5.636-.161,15.172,15.172,0,0,0-3.8.207,6.7,6.7,0,0,0-.8,2.462q-.4,1.912-.967,2.071a32.106,32.106,0,0,1-4.792.184q-3.217,0-3.215-.666,0-.6,4.751-14.706,5.149-15.26,5.591-16.777c.169-.583.364-.875.59-.875q.566,0,1.755.116t1.775.115c.379,0,.935-.027,1.671-.081s1.286-.081,1.651-.081q.4,0,.736.76,1.03,2.417,6.012,16.57,5,14.245,5,14.866m-14.9-20.965q-.442,1.013-1.494,4.4a25.759,25.759,0,0,0-1.135,4.211q0,.415,1.261.461.652.046,2.144.046,1.387,0,1.535-.368a.972.972,0,0,0,.042-.322,24.134,24.134,0,0,0-.967-4.189,34.628,34.628,0,0,0-1.387-4.235" transform="translate(-56.944 -352.894)" fill="#fff"/>
  <path id="Caminho_384" data-name="Caminho 384" d="M307.517,361.29c0,.168-.141.253-.421.253q-1.576,0-4.782-.3t-4.8-.3a8.949,8.949,0,0,0-2.353.16q-.779.392-.779,2.209,0,2.187,1.009,2.486a5.224,5.224,0,0,0,1.283.115q1.449,0,4.341-.172t4.341-.173q.694,0,.693,4.05a18.583,18.583,0,0,1-.231,4.1.563.563,0,0,1-.569.413,6.822,6.822,0,0,0-1.324-.16q-2.251-.229-6.811-.231-1.471,0-1.661.024-1.072.185-1.072.989,0,3.269.251,7.526.21,3.843.21,3.428c0,.4-.44.631-1.324.691a16.748,16.748,0,0,0-1.869-.022,25.727,25.727,0,0,1-5.065-.3.7.7,0,0,1-.612-.713q0-2.553.16-7.676t.157-7.675q0-3.037-.251-7.64-.381-7.111-.4-7.641l-.024-.276c-.013-.384.2-.575.634-.575q1.553,0,4.7.07t4.718.069q1.684,0,5.055-.276t5.055-.277a1.028,1.028,0,0,1,1.177.944q0,.99.085,2.969.042.505.273,1.956a12.961,12.961,0,0,1,.21,1.956" transform="translate(-62.561 -352.935)" fill="#fff"/>
  <g id="Grupo_1062" data-name="Grupo 1062" transform="translate(245.699 0.506)">
    <path id="Caminho_385" data-name="Caminho 385" d="M323.156,386.423H312.3V353.437h10.856Zm-10.644-.212h10.432V353.649H312.512Z" transform="translate(-312.3 -353.437)" fill="#fff"/>
  </g>
  <path id="Caminho_386" data-name="Caminho 386" d="M318.062,389.607h0a4.985,4.985,0,0,1-4.711-5.165v-4.733h2.655v4.733a1.259,1.259,0,0,0,1.1,1.373,1.274,1.274,0,0,0,1.208-1.373v-4.733h4.37v4.733a4.919,4.919,0,0,1-4.626,5.165" transform="translate(-66.76 -356.908)" fill="#fff" fill-rule="evenodd"/>
  <path id="Caminho_387" data-name="Caminho 387" d="M313.239,367.042h4.89a4.965,4.965,0,0,1,0,9.893h-4.89v-3.788h4.89a1.157,1.157,0,0,0,1.114-1.2,1.134,1.134,0,0,0-1.114-1.114h-4.89Z" transform="translate(-66.743 -354.991)" fill="#fff" fill-rule="evenodd"/>
  <path id="Caminho_388" data-name="Caminho 388" d="M313.239,364.174v-9.805h2.75V357.3h6.769v3.873h-6.769v3Z" transform="translate(-66.743 -353.072)" fill="#fff" fill-rule="evenodd"/>
</svg>
