<svg id="Grupo_1060" data-name="Grupo 1060" xmlns="http://www.w3.org/2000/svg" width="131.73" height="41.475" viewBox="0 0 131.73 41.475">
  <path id="Caminho_314" data-name="Caminho 314" d="M-3068.542,1055.814h16.589c.526,0,.527,0,.527.521q0,9.856,0,19.713a4.245,4.245,0,0,0,4.256,4.284,4.153,4.153,0,0,0,4.158-4.224q0-9.856-.006-19.713v-.56h16.855c.007.121.022.261.022.4,0,6.531.056,13.063-.039,19.592a20.587,20.587,0,0,1-.856,4.7,23.664,23.664,0,0,1-4.853,9.619,19.418,19.418,0,0,1-12.584,6.921,21.088,21.088,0,0,1-22.788-14.293,24.364,24.364,0,0,1-1.292-7.884c.026-6.171.008-12.342.008-18.513Z" transform="translate(3113.477 -1055.781)" fill="#fff"/>
  <path id="Caminho_315" data-name="Caminho 315" d="M-3197.215,1056v.507q0,5.558,0,11.116c0,.516,0,.518-.531.518-6.9,0-13.808.013-20.712-.013a2.338,2.338,0,0,0-2.3,1.4,5.889,5.889,0,0,0-.162,5.1,2.872,2.872,0,0,0,2.86,1.851q10.136-.005,20.272.011c.575,0,.575,0,.575.592v19.393c0,.56,0,.56-.561.56-7.117,0-14.235-.028-21.352.018a19.177,19.177,0,0,1-5.894-.887,18.093,18.093,0,0,1-11.872-10.54,21.565,21.565,0,0,1-1.576-10.207,23.456,23.456,0,0,1,4.2-11.99,16.913,16.913,0,0,1,9.552-6.9,15,15,0,0,1,3.948-.535h23.56Z" transform="translate(3238.543 -1055.916)" fill="#fff"/>
  <path id="Caminho_316" data-name="Caminho 316" d="M-2869.026,1096.863h-16.961V1067.8h-12.324v-12.081c.154-.007.3-.02.437-.02q20.434,0,40.869-.009c.382,0,.493.1.492.486-.007,3.719.006,7.438.013,11.157,0,.131,0,.262,0,.447h-12.526Z" transform="translate(2988.23 -1055.69)" fill="#fff"/>
  <path id="Caminho_317" data-name="Caminho 317" d="M-2774.288,1184.74a3.935,3.935,0,0,1-3.937,3.942,3.96,3.96,0,0,1-3.923-3.926,3.954,3.954,0,0,1,3.947-3.94A3.93,3.93,0,0,1-2774.288,1184.74Zm-3.923-3.169a3.177,3.177,0,0,0-3.195,3.156,3.187,3.187,0,0,0,3.193,3.2,3.168,3.168,0,0,0,3.185-3.2A3.158,3.158,0,0,0-2778.212,1181.571Z" transform="translate(2902.768 -1147.747)" fill="#fff"/>
  <path id="Caminho_318" data-name="Caminho 318" d="M-2772.093,1189.707l1.385,1.961c-.849.222-1.079.141-1.484-.46-.208-.309-.413-.622-.631-.923-.3-.415-.494-.481-1.061-.378v1.849a4.01,4.01,0,0,1-.691-.012c-.1-.018-.249-.164-.25-.254q-.024-2.038,0-4.077a.365.365,0,0,1,.262-.24c.772-.005,1.545,0,2.316.039a1.136,1.136,0,0,1,1.147,1.017,1.218,1.218,0,0,1-.862,1.432Zm-1.78-.651c.489,0,.939.02,1.387-.007a.456.456,0,0,0,.426-.492c.014-.27-.088-.5-.364-.536-.478-.055-.962-.053-1.449-.075Z" transform="translate(2897.389 -1152.421)" fill="#fff"/>
</svg>
