<svg xmlns="http://www.w3.org/2000/svg" viewBox="0 0 39.23 50.28"><defs><style>.cls-1{font-size:8.53px;font-family:MyriadPro-Regular, Myriad Pro;}.cls-1,.cls-4,.cls-5{fill:#015c92;}.cls-2{letter-spacing:0.01em;}.cls-3{letter-spacing:-0.01em;}.cls-5{fill-rule:evenodd;}</style></defs><g id="Layer_2" data-name="Layer 2"><g id="_002_-NOTÍCIA_ABERTA" data-name="002 -NOTÍCIA ABERTA"><text class="cls-1" transform="translate(7.69 48.15)"><tspan class="cls-2">t</tspan><tspan x="2.9" y="0">wit</tspan><tspan class="cls-3" x="14" y="0">t</tspan><tspan x="16.78" y="0">er</tspan></text><path class="cls-4" d="M3.22,2.08H16.7a1,1,0,0,0,1-1h0a1,1,0,0,0-1-1H1.15a1,1,0,0,0-1,1V16.59a1,1,0,0,0,1,1h0a1,1,0,0,0,1-1V3.12A1,1,0,0,1,3.22,2.08Z"/><path class="cls-4" d="M36,36.94H22.53a1,1,0,0,0-1,1h0a1,1,0,0,0,1,1H38.08a1,1,0,0,0,1-1V22.43a1,1,0,0,0-1-1h0a1,1,0,0,0-1,1V35.9A1,1,0,0,1,36,36.94Z"/><path class="cls-5" d="M14.49,25.49a5.36,5.36,0,0,1-5-3.71,5.25,5.25,0,0,0,2.3-.07l.07,0a5.36,5.36,0,0,1-3.47-2.46,5.2,5.2,0,0,1-.79-2.84A5.44,5.44,0,0,0,10,17,5.39,5.39,0,0,1,7.8,13.78,5.32,5.32,0,0,1,8.38,9.9a15.28,15.28,0,0,0,11,5.6c0-.22-.06-.4-.08-.59a5.35,5.35,0,0,1,9.09-4.43.27.27,0,0,0,.29.09,10.9,10.9,0,0,0,3.11-1.2l.07,0h0a5.45,5.45,0,0,1-2.29,2.92,10.21,10.21,0,0,0,3-.81l0,0c-.2.26-.4.54-.61.8a10.69,10.69,0,0,1-2,1.85.16.16,0,0,0-.08.17,15.67,15.67,0,0,1-.1,2.37,15.84,15.84,0,0,1-1.38,4.77,15.62,15.62,0,0,1-2.89,4.21,14.3,14.3,0,0,1-7.36,4.1,14.88,14.88,0,0,1-3,.35A15.05,15.05,0,0,1,6.72,27.8l-.13-.08A10.86,10.86,0,0,0,12,27,10.38,10.38,0,0,0,14.49,25.49Z"/></g></g></svg>