<svg xmlns="http://www.w3.org/2000/svg" viewBox="0 0 39.01 50.31"><defs><style>.cls-1{font-size:8.53px;font-family:MyriadPro-Regular, Myriad Pro;}.cls-1,.cls-3,.cls-4{fill:#015c92;}.cls-2{letter-spacing:0em;}.cls-4{fill-rule:evenodd;}</style></defs><g id="Layer_2" data-name="Layer 2"><g id="_002_-NOTÍCIA_ABERTA" data-name="002 -NOTÍCIA ABERTA"><text class="cls-1" transform="translate(1.94 48.18)">wh<tspan class="cls-2" x="11.02" y="0">a</tspan><tspan x="15.1" y="0">tsapp</tspan></text><path class="cls-3" d="M3.12,2.08H16.59a1,1,0,0,0,1-1h0a1,1,0,0,0-1-1H1A1,1,0,0,0,0,1V16.59a1,1,0,0,0,1,1H1a1,1,0,0,0,1-1V3.12A1,1,0,0,1,3.12,2.08Z"/><path class="cls-3" d="M35.9,36.94H22.43a1,1,0,0,0-1,1h0a1,1,0,0,0,1,1H38a1,1,0,0,0,1-1V22.43a1,1,0,0,0-1-1h0a1,1,0,0,0-1,1V35.9A1,1,0,0,1,35.9,36.94Z"/><path class="cls-4" d="M8.74,30.33c.12-.46.22-.87.33-1.28.36-1.3.72-2.6,1.06-3.9a1,1,0,0,0-.06-.63A10.74,10.74,0,1,1,14.71,29a1.07,1.07,0,0,0-.66-.07C11.2,29.69,9.31,30.22,8.74,30.33Zm2.5-2.46c1.07-.28,2-.53,3-.8a.85.85,0,0,1,.73.1A8.79,8.79,0,0,0,21,28.3a9,9,0,1,0-9.25-4.54,1.87,1.87,0,0,1,.2,1.71C11.64,26.22,11.47,27,11.24,27.87Z"/><path class="cls-4" d="M22.34,24.57c-2.1-.07-5.44-1.73-7.72-5.7a3.22,3.22,0,0,1,.49-4.13,1.48,1.48,0,0,1,1.38-.2c.12,0,.24.19.3.32.3.69.6,1.39.87,2.1.14.38-.12.73-.67,1.35a.47.47,0,0,0-.07.61,7.31,7.31,0,0,0,3.73,3.2.44.44,0,0,0,.56-.15c.86-1,.95-1.35,1.4-1.14,2.17,1,2.34,1.08,2.35,1.33A2.36,2.36,0,0,1,22.34,24.57Z"/></g></g></svg>